<?xml version="1.0" encoding="utf-8"?>
<!-- Generator: Adobe Illustrator 16.0.0, SVG Export Plug-In . SVG Version: 6.00 Build 0)  -->
<!DOCTYPE svg PUBLIC "-//W3C//DTD SVG 1.1//EN" "http://www.w3.org/Graphics/SVG/1.1/DTD/svg11.dtd">
<svg version="1.1" id="Layer_1" xmlns="http://www.w3.org/2000/svg" xmlns:xlink="http://www.w3.org/1999/xlink" x="0px" y="0px"
	 width="200px" height="200px" viewBox="0 0 200 200" enable-background="new 0 0 200 200" xml:space="preserve">
<rect display="none" stroke="#000000" stroke-miterlimit="10" width="200" height="200"/>
<g id="Layer_1_2_">
	
		<linearGradient id="SVGID_1_" gradientUnits="userSpaceOnUse" x1="-376.8135" y1="244.3086" x2="-370.5186" y2="244.3086" gradientTransform="matrix(1 0 0 1 568 -151)">
		<stop  offset="0" style="stop-color:#7E5B44"/>
		<stop  offset="0.9852" style="stop-color:#CC9966"/>
	</linearGradient>
	<path fill="none" stroke="url(#SVGID_1_)" stroke-width="2" stroke-miterlimit="10" d="M196.474,89.889
		c0,0,0.193,1.918-1.307,4.077c-1.086,1.561-3.87,1.871-3.87,1.871"/>
	
		<linearGradient id="SVGID_2_" gradientUnits="userSpaceOnUse" x1="-376.9097" y1="250.1758" x2="-370.3701" y2="250.1758" gradientTransform="matrix(1 0 0 1 568 -151)">
		<stop  offset="0" style="stop-color:#7E5B44"/>
		<stop  offset="0.9852" style="stop-color:#CC9966"/>
	</linearGradient>
	<path fill="none" stroke="url(#SVGID_2_)" stroke-width="2" stroke-miterlimit="10" d="M196.629,95.871c0,0,0.092,1.927-1.518,4
		c-1.165,1.5-3.964,1.66-3.964,1.66"/>
	
		<linearGradient id="SVGID_3_" gradientUnits="userSpaceOnUse" x1="-377.2734" y1="237.0801" x2="-371.3018" y2="237.0801" gradientTransform="matrix(1 0 0 1 568 -151)">
		<stop  offset="0" style="stop-color:#7E5B44"/>
		<stop  offset="0.9852" style="stop-color:#CC9966"/>
	</linearGradient>
	<path fill="none" stroke="url(#SVGID_3_)" stroke-width="2" stroke-miterlimit="10" d="M195.664,82.521
		c0,0,0.324,1.901-1.022,4.159c-0.977,1.635-3.734,2.141-3.734,2.141"/>
	
		<linearGradient id="SVGID_4_" gradientUnits="userSpaceOnUse" x1="-378.0791" y1="232.2188" x2="-372.3999" y2="232.2188" gradientTransform="matrix(1 0 0 1 568 -151)">
		<stop  offset="0" style="stop-color:#7E5B44"/>
		<stop  offset="0.9852" style="stop-color:#CC9966"/>
	</linearGradient>
	<path fill="none" stroke="url(#SVGID_4_)" stroke-width="2" stroke-miterlimit="10" d="M194.521,77.553c0,0,0.44,1.875-0.765,4.216
		c-0.874,1.692-3.593,2.374-3.593,2.374"/>
	
		<linearGradient id="SVGID_5_" gradientUnits="userSpaceOnUse" x1="-379.3027" y1="227.1484" x2="-373.6968" y2="227.1484" gradientTransform="matrix(1 0 0 1 568 -151)">
		<stop  offset="0" style="stop-color:#7E5B44"/>
		<stop  offset="0.9852" style="stop-color:#CC9966"/>
	</linearGradient>
	<path fill="none" stroke="url(#SVGID_5_)" stroke-width="2" stroke-miterlimit="10" d="M193.21,72.456c0,0,0.47,1.868-0.698,4.229
		c-0.845,1.708-3.556,2.434-3.556,2.434"/>
	
		<linearGradient id="SVGID_6_" gradientUnits="userSpaceOnUse" x1="-380.3833" y1="221.6748" x2="-375.2769" y2="221.6748" gradientTransform="matrix(1 0 0 1 568 -151)">
		<stop  offset="0" style="stop-color:#7E5B44"/>
		<stop  offset="0.9852" style="stop-color:#CC9966"/>
	</linearGradient>
	<path fill="none" stroke="url(#SVGID_6_)" stroke-width="2" stroke-miterlimit="10" d="M191.484,66.833c0,0,0.67,1.803-0.234,4.281
		c-0.653,1.792-3.268,2.819-3.268,2.819"/>
	
		<linearGradient id="SVGID_7_" gradientUnits="userSpaceOnUse" x1="-382.2544" y1="216.6299" x2="-377.1479" y2="216.6299" gradientTransform="matrix(1 0 0 1 568 -151)">
		<stop  offset="0" style="stop-color:#7E5B44"/>
		<stop  offset="0.9852" style="stop-color:#CC9966"/>
	</linearGradient>
	<path fill="none" stroke="url(#SVGID_7_)" stroke-width="2" stroke-miterlimit="10" d="M189.612,61.789
		c0,0,0.671,1.803-0.233,4.281c-0.654,1.792-3.268,2.819-3.268,2.819"/>
	
		<linearGradient id="SVGID_8_" gradientUnits="userSpaceOnUse" x1="-384.3071" y1="211.0928" x2="-379.708" y2="211.0928" gradientTransform="matrix(1 0 0 1 568 -151)">
		<stop  offset="0" style="stop-color:#7E5B44"/>
		<stop  offset="0.9852" style="stop-color:#CC9966"/>
	</linearGradient>
	<path fill="none" stroke="url(#SVGID_8_)" stroke-width="2" stroke-miterlimit="10" d="M186.806,56.143
		c0,0,0.879,1.709,0.274,4.279c-0.437,1.859-2.911,3.198-2.911,3.198"/>
	
		<linearGradient id="SVGID_9_" gradientUnits="userSpaceOnUse" x1="-386.7749" y1="205.1914" x2="-382.5527" y2="205.1914" gradientTransform="matrix(1 0 0 1 568 -151)">
		<stop  offset="0" style="stop-color:#7E5B44"/>
		<stop  offset="0.9852" style="stop-color:#CC9966"/>
	</linearGradient>
	<path fill="none" stroke="url(#SVGID_9_)" stroke-width="2" stroke-miterlimit="10" d="M183.689,50.196
		c0,0,1.038,1.613,0.685,4.231c-0.257,1.894-2.588,3.473-2.588,3.473"/>
	
		<linearGradient id="SVGID_10_" gradientUnits="userSpaceOnUse" x1="-389.7573" y1="200.1973" x2="-385.5332" y2="200.1973" gradientTransform="matrix(1 0 0 1 568 -151)">
		<stop  offset="0" style="stop-color:#7E5B44"/>
		<stop  offset="0.9852" style="stop-color:#CC9966"/>
	</linearGradient>
	<path fill="none" stroke="url(#SVGID_10_)" stroke-width="2" stroke-miterlimit="10" d="M180.709,45.202
		c0,0,1.038,1.613,0.685,4.23c-0.258,1.894-2.59,3.474-2.59,3.474"/>
	
		<linearGradient id="SVGID_11_" gradientUnits="userSpaceOnUse" x1="-392.7188" y1="195.6387" x2="-388.7041" y2="195.6387" gradientTransform="matrix(1 0 0 1 568 -151)">
		<stop  offset="0" style="stop-color:#7E5B44"/>
		<stop  offset="0.9852" style="stop-color:#CC9966"/>
	</linearGradient>
	<path fill="none" stroke="url(#SVGID_11_)" stroke-width="2" stroke-miterlimit="10" d="M177.344,40.635
		c0,0,1.131,1.547,0.928,4.183c-0.145,1.906-2.382,3.622-2.382,3.622"/>
	
		<linearGradient id="SVGID_12_" gradientUnits="userSpaceOnUse" x1="-395.6494" y1="191.002" x2="-391.9551" y2="191.002" gradientTransform="matrix(1 0 0 1 568 -151)">
		<stop  offset="0" style="stop-color:#7E5B44"/>
		<stop  offset="0.9852" style="stop-color:#CC9966"/>
	</linearGradient>
	<path fill="none" stroke="url(#SVGID_12_)" stroke-width="2" stroke-miterlimit="10" d="M173.7,36.015c0,0,1.28,1.422,1.344,4.064
		c0.048,1.912-2.007,3.851-2.007,3.851"/>
	
		<linearGradient id="SVGID_13_" gradientUnits="userSpaceOnUse" x1="-398.8101" y1="186.9883" x2="-395.3467" y2="186.9883" gradientTransform="matrix(1 0 0 1 568 -151)">
		<stop  offset="0" style="stop-color:#7E5B44"/>
		<stop  offset="0.9852" style="stop-color:#CC9966"/>
	</linearGradient>
	<path fill="none" stroke="url(#SVGID_13_)" stroke-width="2" stroke-miterlimit="10" d="M169.992,32.043
		c0,0,1.384,1.317,1.647,3.947c0.191,1.901-1.709,3.996-1.709,3.996"/>
	
		<linearGradient id="SVGID_14_" gradientUnits="userSpaceOnUse" x1="-402.5771" y1="183.0176" x2="-399.1138" y2="183.0176" gradientTransform="matrix(1 0 0 1 568 -151)">
		<stop  offset="0" style="stop-color:#7E5B44"/>
		<stop  offset="0.9852" style="stop-color:#CC9966"/>
	</linearGradient>
	<path fill="none" stroke="url(#SVGID_14_)" stroke-width="2" stroke-miterlimit="10" d="M166.224,28.072
		c0,0,1.386,1.317,1.649,3.946c0.189,1.902-1.709,3.997-1.709,3.997"/>
	
		<linearGradient id="SVGID_15_" gradientUnits="userSpaceOnUse" x1="-406.8613" y1="179.0137" x2="-403.3311" y2="179.0137" gradientTransform="matrix(1 0 0 1 568 -151)">
		<stop  offset="0" style="stop-color:#7E5B44"/>
		<stop  offset="0.9852" style="stop-color:#CC9966"/>
	</linearGradient>
	<path fill="none" stroke="url(#SVGID_15_)" stroke-width="2" stroke-miterlimit="10" d="M161.789,24.108
		c0,0,1.451,1.243,1.849,3.854c0.288,1.889-1.503,4.082-1.503,4.082"/>
	
		<linearGradient id="SVGID_16_" gradientUnits="userSpaceOnUse" x1="-411.9438" y1="174.998" x2="-408.1846" y2="174.998" gradientTransform="matrix(1 0 0 1 568 -151)">
		<stop  offset="0" style="stop-color:#7E5B44"/>
		<stop  offset="0.9852" style="stop-color:#CC9966"/>
	</linearGradient>
	<path fill="none" stroke="url(#SVGID_16_)" stroke-width="2" stroke-miterlimit="10" d="M156.654,20.161
		c0,0,1.529,1.142,2.096,3.721c0.409,1.865-1.233,4.174-1.233,4.174"/>
	
		<linearGradient id="SVGID_17_" gradientUnits="userSpaceOnUse" x1="-416.6177" y1="171.625" x2="-412.5171" y2="171.625" gradientTransform="matrix(1 0 0 1 568 -151)">
		<stop  offset="0" style="stop-color:#7E5B44"/>
		<stop  offset="0.9852" style="stop-color:#CC9966"/>
	</linearGradient>
	<path fill="none" stroke="url(#SVGID_17_)" stroke-width="2" stroke-miterlimit="10" d="M151.9,16.916c0,0,1.629,0.986,2.44,3.497
		c0.586,1.817-0.829,4.277-0.829,4.277"/>
	
		<linearGradient id="SVGID_18_" gradientUnits="userSpaceOnUse" x1="-421.627" y1="168.6299" x2="-417.5278" y2="168.6299" gradientTransform="matrix(1 0 0 1 568 -151)">
		<stop  offset="0" style="stop-color:#7E5B44"/>
		<stop  offset="0.9852" style="stop-color:#CC9966"/>
	</linearGradient>
	<path fill="none" stroke="url(#SVGID_18_)" stroke-width="2" stroke-miterlimit="10" d="M146.891,13.922
		c0,0,1.628,0.985,2.438,3.496c0.588,1.816-0.828,4.276-0.828,4.276"/>
	
		<linearGradient id="SVGID_19_" gradientUnits="userSpaceOnUse" x1="-426.6118" y1="165.999" x2="-422.5107" y2="165.999" gradientTransform="matrix(1 0 0 1 568 -151)">
		<stop  offset="0" style="stop-color:#7E5B44"/>
		<stop  offset="0.9852" style="stop-color:#CC9966"/>
	</linearGradient>
	<path fill="none" stroke="url(#SVGID_19_)" stroke-width="2" stroke-miterlimit="10" d="M141.906,11.291
		c0,0,1.629,0.986,2.44,3.497c0.587,1.817-0.829,4.276-0.829,4.276"/>
	
		<linearGradient id="SVGID_20_" gradientUnits="userSpaceOnUse" x1="-431.748" y1="163.583" x2="-427.272" y2="163.583" gradientTransform="matrix(1 0 0 1 568 -151)">
		<stop  offset="0" style="stop-color:#7E5B44"/>
		<stop  offset="0.9852" style="stop-color:#CC9966"/>
	</linearGradient>
	<path fill="none" stroke="url(#SVGID_20_)" stroke-width="2" stroke-miterlimit="10" d="M136.676,9.054
		c0,0,1.723,0.807,2.787,3.217c0.771,1.744-0.384,4.341-0.384,4.341"/>
	
		<linearGradient id="SVGID_21_" gradientUnits="userSpaceOnUse" x1="-437.4922" y1="161.2354" x2="-432.812" y2="161.2354" gradientTransform="matrix(1 0 0 1 568 -151)">
		<stop  offset="0" style="stop-color:#7E5B44"/>
		<stop  offset="0.9852" style="stop-color:#CC9966"/>
	</linearGradient>
	<path fill="none" stroke="url(#SVGID_21_)" stroke-width="2" stroke-miterlimit="10" d="M130.882,6.815
		c0,0,1.762,0.709,2.957,3.056c0.863,1.698-0.147,4.356-0.147,4.356"/>
	
		<linearGradient id="SVGID_22_" gradientUnits="userSpaceOnUse" x1="-443.6387" y1="159.2754" x2="-438.7632" y2="159.2754" gradientTransform="matrix(1 0 0 1 568 -151)">
		<stop  offset="0" style="stop-color:#7E5B44"/>
		<stop  offset="0.9852" style="stop-color:#CC9966"/>
	</linearGradient>
	<path fill="none" stroke="url(#SVGID_22_)" stroke-width="2" stroke-miterlimit="10" d="M124.685,4.968
		c0,0,1.798,0.615,3.109,2.896c0.95,1.649,0.075,4.358,0.075,4.358"/>
	
		<linearGradient id="SVGID_23_" gradientUnits="userSpaceOnUse" x1="-449.4229" y1="157.8887" x2="-444.3218" y2="157.8887" gradientTransform="matrix(1 0 0 1 568 -151)">
		<stop  offset="0" style="stop-color:#7E5B44"/>
		<stop  offset="0.9852" style="stop-color:#CC9966"/>
	</linearGradient>
	<path fill="none" stroke="url(#SVGID_23_)" stroke-width="2" stroke-miterlimit="10" d="M118.845,3.716c0,0,1.83,0.509,3.269,2.708
		c1.043,1.591,0.322,4.347,0.322,4.347"/>
	
		<linearGradient id="SVGID_24_" gradientUnits="userSpaceOnUse" x1="-456.1045" y1="156.5938" x2="-450.7085" y2="156.5938" gradientTransform="matrix(1 0 0 1 568 -151)">
		<stop  offset="0" style="stop-color:#7E5B44"/>
		<stop  offset="0.9852" style="stop-color:#CC9966"/>
	</linearGradient>
	<path fill="none" stroke="url(#SVGID_24_)" stroke-width="2" stroke-miterlimit="10" d="M112.092,2.607c0,0,1.86,0.372,3.451,2.459
		c1.152,1.511,0.631,4.312,0.631,4.312"/>
	
		<linearGradient id="SVGID_25_" gradientUnits="userSpaceOnUse" x1="-462.769" y1="155.8125" x2="-457.2896" y2="155.8125" gradientTransform="matrix(1 0 0 1 568 -151)">
		<stop  offset="0" style="stop-color:#7E5B44"/>
		<stop  offset="0.9852" style="stop-color:#CC9966"/>
	</linearGradient>
	<path fill="none" stroke="url(#SVGID_25_)" stroke-width="2" stroke-miterlimit="10" d="M105.408,1.877
		c0,0,1.867,0.335,3.499,2.392c1.18,1.488,0.712,4.298,0.712,4.298"/>
	
		<linearGradient id="SVGID_26_" gradientUnits="userSpaceOnUse" x1="-469.563" y1="155.4453" x2="-463.5034" y2="155.4453" gradientTransform="matrix(1 0 0 1 568 -151)">
		<stop  offset="0" style="stop-color:#7E5B44"/>
		<stop  offset="0.9852" style="stop-color:#CC9966"/>
	</linearGradient>
	<path fill="none" stroke="url(#SVGID_26_)" stroke-width="2" stroke-miterlimit="10" d="M98.486,1.877c0,0,1.894,0.092,3.768,1.923
		c1.356,1.324,1.241,4.172,1.241,4.172"/>
	
		<linearGradient id="SVGID_27_" gradientUnits="userSpaceOnUse" x1="-476.1182" y1="155.7588" x2="-469.3955" y2="155.7588" gradientTransform="matrix(1 0 0 1 568 -151)">
		<stop  offset="0" style="stop-color:#7E5B44"/>
		<stop  offset="0.9852" style="stop-color:#CC9966"/>
	</linearGradient>
	<path fill="none" stroke="url(#SVGID_27_)" stroke-width="2" stroke-miterlimit="10" d="M91.949,2.486c0,0,1.893-0.127,3.959,1.474
		c1.495,1.159,1.699,4.001,1.699,4.001"/>
	
		<linearGradient id="SVGID_28_" gradientUnits="userSpaceOnUse" x1="-483.8091" y1="156.4668" x2="-476.4292" y2="156.4668" gradientTransform="matrix(1 0 0 1 568 -151)">
		<stop  offset="0" style="stop-color:#7E5B44"/>
		<stop  offset="0.9852" style="stop-color:#CC9966"/>
	</linearGradient>
	<path fill="none" stroke="url(#SVGID_28_)" stroke-width="2" stroke-miterlimit="10" d="M84.37,3.492c0,0,1.866-0.338,4.094,1.021
		c1.612,0.983,2.124,3.786,2.124,3.786"/>
	
		<linearGradient id="SVGID_29_" gradientUnits="userSpaceOnUse" x1="-490.6411" y1="157.5713" x2="-483.2598" y2="157.5713" gradientTransform="matrix(1 0 0 1 568 -151)">
		<stop  offset="0" style="stop-color:#7E5B44"/>
		<stop  offset="0.9852" style="stop-color:#CC9966"/>
	</linearGradient>
	<path fill="none" stroke="url(#SVGID_29_)" stroke-width="2" stroke-miterlimit="10" d="M77.538,4.597c0,0,1.867-0.339,4.096,1.02
		c1.611,0.983,2.123,3.786,2.123,3.786"/>
	
		<linearGradient id="SVGID_30_" gradientUnits="userSpaceOnUse" x1="-498.1416" y1="158.9453" x2="-490.147" y2="158.9453" gradientTransform="matrix(1 0 0 1 568 -151)">
		<stop  offset="0" style="stop-color:#7E5B44"/>
		<stop  offset="0.9852" style="stop-color:#CC9966"/>
	</linearGradient>
	<path fill="none" stroke="url(#SVGID_30_)" stroke-width="2" stroke-miterlimit="10" d="M70.156,6.367c0,0,1.812-0.565,4.185,0.512
		c1.717,0.779,2.556,3.498,2.556,3.498"/>
	
		<linearGradient id="SVGID_31_" gradientUnits="userSpaceOnUse" x1="-504.3589" y1="160.8438" x2="-495.9487" y2="160.8438" gradientTransform="matrix(1 0 0 1 568 -151)">
		<stop  offset="0" style="stop-color:#7E5B44"/>
		<stop  offset="0.9852" style="stop-color:#CC9966"/>
	</linearGradient>
	<path fill="none" stroke="url(#SVGID_31_)" stroke-width="2" stroke-miterlimit="10" d="M64.033,8.644c0,0,1.75-0.744,4.215,0.091
		c1.783,0.604,2.881,3.227,2.881,3.227"/>
	
		<linearGradient id="SVGID_32_" gradientUnits="userSpaceOnUse" x1="-510.0029" y1="163.2441" x2="-501.5938" y2="163.2441" gradientTransform="matrix(1 0 0 1 568 -151)">
		<stop  offset="0" style="stop-color:#7E5B44"/>
		<stop  offset="0.9852" style="stop-color:#CC9966"/>
	</linearGradient>
	<path fill="none" stroke="url(#SVGID_32_)" stroke-width="2" stroke-miterlimit="10" d="M58.388,11.044
		c0,0,1.749-0.743,4.214,0.092c1.783,0.604,2.881,3.227,2.881,3.227"/>
	
		<linearGradient id="SVGID_33_" gradientUnits="userSpaceOnUse" x1="-514.9805" y1="165.7939" x2="-506.3604" y2="165.7939" gradientTransform="matrix(1 0 0 1 568 -151)">
		<stop  offset="0" style="stop-color:#7E5B44"/>
		<stop  offset="0.9852" style="stop-color:#CC9966"/>
	</linearGradient>
	<path fill="none" stroke="url(#SVGID_33_)" stroke-width="2" stroke-miterlimit="10" d="M53.465,13.845
		c0,0,1.704-0.848,4.212-0.162c1.816,0.497,3.064,3.048,3.064,3.048"/>
	
		<linearGradient id="SVGID_34_" gradientUnits="userSpaceOnUse" x1="-520.7266" y1="168.4199" x2="-511.8135" y2="168.4199" gradientTransform="matrix(1 0 0 1 568 -151)">
		<stop  offset="0" style="stop-color:#7E5B44"/>
		<stop  offset="0.9852" style="stop-color:#CC9966"/>
	</linearGradient>
	<path fill="none" stroke="url(#SVGID_34_)" stroke-width="2" stroke-miterlimit="10" d="M47.809,16.949c0,0,1.61-1.021,4.175-0.599
		c1.854,0.305,3.354,2.713,3.354,2.713"/>
	
		<linearGradient id="SVGID_35_" gradientUnits="userSpaceOnUse" x1="-525.7749" y1="171.5908" x2="-516.7041" y2="171.5908" gradientTransform="matrix(1 0 0 1 568 -151)">
		<stop  offset="0" style="stop-color:#7E5B44"/>
		<stop  offset="0.9852" style="stop-color:#CC9966"/>
	</linearGradient>
	<path fill="none" stroke="url(#SVGID_35_)" stroke-width="2" stroke-miterlimit="10" d="M42.824,20.512
		c0,0,1.528-1.144,4.117-0.924c1.873,0.159,3.549,2.443,3.549,2.443"/>
	
		<linearGradient id="SVGID_36_" gradientUnits="userSpaceOnUse" x1="-531.2354" y1="175.3398" x2="-522.1641" y2="175.3398" gradientTransform="matrix(1 0 0 1 568 -151)">
		<stop  offset="0" style="stop-color:#7E5B44"/>
		<stop  offset="0.9852" style="stop-color:#CC9966"/>
	</linearGradient>
	<path fill="none" stroke="url(#SVGID_36_)" stroke-width="2" stroke-miterlimit="10" d="M37.364,24.26c0,0,1.527-1.142,4.117-0.923
		c1.873,0.158,3.549,2.442,3.549,2.442"/>
	
		<linearGradient id="SVGID_37_" gradientUnits="userSpaceOnUse" x1="-535.1763" y1="178.5508" x2="-526.0288" y2="178.5508" gradientTransform="matrix(1 0 0 1 568 -151)">
		<stop  offset="0" style="stop-color:#7E5B44"/>
		<stop  offset="0.9852" style="stop-color:#CC9966"/>
	</linearGradient>
	<path fill="none" stroke="url(#SVGID_37_)" stroke-width="2" stroke-miterlimit="10" d="M33.464,27.751
		c0,0,1.466-1.222,4.064-1.141c1.878,0.059,3.669,2.252,3.669,2.252"/>
	
		<linearGradient id="SVGID_38_" gradientUnits="userSpaceOnUse" x1="-539.1206" y1="182.0801" x2="-529.9106" y2="182.0801" gradientTransform="matrix(1 0 0 1 568 -151)">
		<stop  offset="0" style="stop-color:#7E5B44"/>
		<stop  offset="0.9852" style="stop-color:#CC9966"/>
	</linearGradient>
	<path fill="none" stroke="url(#SVGID_38_)" stroke-width="2" stroke-miterlimit="10" d="M29.568,31.651
		c0,0,1.386-1.318,3.982-1.411c1.878-0.068,3.808,2,3.808,2"/>
	
		<linearGradient id="SVGID_39_" gradientUnits="userSpaceOnUse" x1="-543.5488" y1="186.3984" x2="-534.3228" y2="186.3984" gradientTransform="matrix(1 0 0 1 568 -151)">
		<stop  offset="0" style="stop-color:#7E5B44"/>
		<stop  offset="0.9852" style="stop-color:#CC9966"/>
	</linearGradient>
	<path fill="none" stroke="url(#SVGID_39_)" stroke-width="2" stroke-miterlimit="10" d="M25.208,36.481
		c0,0,1.252-1.448,3.828-1.798c1.863-0.253,3.981,1.614,3.981,1.614"/>
	
		<linearGradient id="SVGID_40_" gradientUnits="userSpaceOnUse" x1="-546.8433" y1="190.2598" x2="-537.6177" y2="190.2598" gradientTransform="matrix(1 0 0 1 568 -151)">
		<stop  offset="0" style="stop-color:#7E5B44"/>
		<stop  offset="0.9852" style="stop-color:#CC9966"/>
	</linearGradient>
	<path fill="none" stroke="url(#SVGID_40_)" stroke-width="2" stroke-miterlimit="10" d="M21.914,40.343
		c0,0,1.251-1.448,3.827-1.798c1.863-0.253,3.98,1.614,3.98,1.614"/>
	
		<linearGradient id="SVGID_41_" gradientUnits="userSpaceOnUse" x1="-550.2505" y1="195.4805" x2="-541.0244" y2="195.4805" gradientTransform="matrix(1 0 0 1 568 -151)">
		<stop  offset="0" style="stop-color:#7E5B44"/>
		<stop  offset="0.9852" style="stop-color:#CC9966"/>
	</linearGradient>
	<path fill="none" stroke="url(#SVGID_41_)" stroke-width="2" stroke-miterlimit="10" d="M18.506,45.564
		c0,0,1.252-1.448,3.827-1.798c1.863-0.253,3.981,1.614,3.981,1.614"/>
	
		<linearGradient id="SVGID_42_" gradientUnits="userSpaceOnUse" x1="-553.7881" y1="200.8984" x2="-544.6426" y2="200.8984" gradientTransform="matrix(1 0 0 1 568 -151)">
		<stop  offset="0" style="stop-color:#7E5B44"/>
		<stop  offset="0.9852" style="stop-color:#CC9966"/>
	</linearGradient>
	<path fill="none" stroke="url(#SVGID_42_)" stroke-width="2" stroke-miterlimit="10" d="M15.033,51.25c0,0,1.096-1.574,3.621-2.196
		c1.827-0.449,4.125,1.182,4.125,1.182"/>
	
		<linearGradient id="SVGID_43_" gradientUnits="userSpaceOnUse" x1="-556.8281" y1="205.8301" x2="-547.7656" y2="205.8301" gradientTransform="matrix(1 0 0 1 568 -151)">
		<stop  offset="0" style="stop-color:#7E5B44"/>
		<stop  offset="0.9852" style="stop-color:#CC9966"/>
	</linearGradient>
	<path fill="none" stroke="url(#SVGID_43_)" stroke-width="2" stroke-miterlimit="10" d="M12.023,56.327
		c0,0,1.008-1.634,3.496-2.396c1.8-0.552,4.184,0.947,4.184,0.947"/>
	
		<linearGradient id="SVGID_44_" gradientUnits="userSpaceOnUse" x1="-559.3076" y1="212.0801" x2="-550.3481" y2="212.0801" gradientTransform="matrix(1 0 0 1 568 -151)">
		<stop  offset="0" style="stop-color:#7E5B44"/>
		<stop  offset="0.9852" style="stop-color:#CC9966"/>
	</linearGradient>
	<path fill="none" stroke="url(#SVGID_44_)" stroke-width="2" stroke-miterlimit="10" d="M9.569,62.714c0,0,0.924-1.684,3.37-2.578
		c1.769-0.646,4.225,0.727,4.225,0.727"/>
	
		<linearGradient id="SVGID_45_" gradientUnits="userSpaceOnUse" x1="-561.4648" y1="218.0898" x2="-552.6489" y2="218.0898" gradientTransform="matrix(1 0 0 1 568 -151)">
		<stop  offset="0" style="stop-color:#7E5B44"/>
		<stop  offset="0.9852" style="stop-color:#CC9966"/>
	</linearGradient>
	<path fill="none" stroke="url(#SVGID_45_)" stroke-width="2" stroke-miterlimit="10" d="M7.438,68.881c0,0,0.827-1.736,3.218-2.771
		c1.729-0.749,4.259,0.477,4.259,0.477"/>
	
		<linearGradient id="SVGID_46_" gradientUnits="userSpaceOnUse" x1="-563.2192" y1="223.5938" x2="-554.6255" y2="223.5938" gradientTransform="matrix(1 0 0 1 568 -151)">
		<stop  offset="0" style="stop-color:#7E5B44"/>
		<stop  offset="0.9852" style="stop-color:#CC9966"/>
	</linearGradient>
	<path fill="none" stroke="url(#SVGID_46_)" stroke-width="2" stroke-miterlimit="10" d="M5.712,74.587c0,0,0.701-1.793,3.012-3.001
		c1.671-0.874,4.282,0.162,4.282,0.162"/>
	
		<linearGradient id="SVGID_47_" gradientUnits="userSpaceOnUse" x1="-565.001" y1="230.1758" x2="-556.4727" y2="230.1758" gradientTransform="matrix(1 0 0 1 568 -151)">
		<stop  offset="0" style="stop-color:#7E5B44"/>
		<stop  offset="0.9852" style="stop-color:#CC9966"/>
	</linearGradient>
	<path fill="none" stroke="url(#SVGID_47_)" stroke-width="2" stroke-miterlimit="10" d="M3.937,81.225c0,0,0.668-1.806,2.955-3.06
		c1.654-0.906,4.285,0.079,4.285,0.079"/>
	
		<linearGradient id="SVGID_48_" gradientUnits="userSpaceOnUse" x1="-566.2148" y1="237.0996" x2="-558.2031" y2="237.0996" gradientTransform="matrix(1 0 0 1 568 -151)">
		<stop  offset="0" style="stop-color:#7E5B44"/>
		<stop  offset="0.9852" style="stop-color:#CC9966"/>
	</linearGradient>
	<path fill="none" stroke="url(#SVGID_48_)" stroke-width="2" stroke-miterlimit="10" d="M2.759,88.522c0,0,0.437-1.877,2.55-3.415
		c1.528-1.112,4.26-0.475,4.26-0.475"/>
	
		<linearGradient id="SVGID_49_" gradientUnits="userSpaceOnUse" x1="-566.4976" y1="243.0996" x2="-558.3931" y2="243.0996" gradientTransform="matrix(1 0 0 1 568 -151)">
		<stop  offset="0" style="stop-color:#7E5B44"/>
		<stop  offset="0.9852" style="stop-color:#CC9966"/>
	</linearGradient>
	<path fill="none" stroke="url(#SVGID_49_)" stroke-width="2" stroke-miterlimit="10" d="M2.472,94.459c0,0,0.475-1.867,2.619-3.36
		c1.55-1.08,4.269-0.385,4.269-0.385"/>
	
		<linearGradient id="SVGID_50_" gradientUnits="userSpaceOnUse" x1="-566.2612" y1="257.2783" x2="-559.3789" y2="257.2783" gradientTransform="matrix(1 0 0 1 568 -151)">
		<stop  offset="0" style="stop-color:#7E5B44"/>
		<stop  offset="0.9852" style="stop-color:#CC9966"/>
	</linearGradient>
	<path fill="none" stroke="url(#SVGID_50_)" stroke-width="2" stroke-miterlimit="10" d="M2.738,109.389
		c0,0,0.043-1.929,1.796-3.879c1.269-1.411,4.07-1.364,4.07-1.364"/>
	
		<linearGradient id="SVGID_51_" gradientUnits="userSpaceOnUse" x1="-566.6685" y1="249.5215" x2="-558.7622" y2="249.5215" gradientTransform="matrix(1 0 0 1 568 -151)">
		<stop  offset="0" style="stop-color:#7E5B44"/>
		<stop  offset="0.9852" style="stop-color:#CC9966"/>
	</linearGradient>
	<path fill="none" stroke="url(#SVGID_51_)" stroke-width="2" stroke-miterlimit="10" d="M2.31,101.014c0,0,0.396-1.886,2.474-3.472
		c1.503-1.148,4.248-0.572,4.248-0.572"/>
	
		<linearGradient id="SVGID_52_" gradientUnits="userSpaceOnUse" x1="-565.3296" y1="264.4258" x2="-558.5981" y2="264.4258" gradientTransform="matrix(1 0 0 1 568 -151)">
		<stop  offset="0" style="stop-color:#7E5B44"/>
		<stop  offset="0.9852" style="stop-color:#CC9966"/>
	</linearGradient>
	<path fill="none" stroke="url(#SVGID_52_)" stroke-width="2" stroke-miterlimit="10" d="M3.67,116.63c0,0-0.009-1.93,1.688-3.93
		c1.228-1.447,4.031-1.482,4.031-1.482"/>
	
		<linearGradient id="SVGID_53_" gradientUnits="userSpaceOnUse" x1="-563.9858" y1="269.8232" x2="-557.7725" y2="269.8232" gradientTransform="matrix(1 0 0 1 568 -151)">
		<stop  offset="0" style="stop-color:#7E5B44"/>
		<stop  offset="0.9852" style="stop-color:#CC9966"/>
	</linearGradient>
	<path fill="none" stroke="url(#SVGID_53_)" stroke-width="2" stroke-miterlimit="10" d="M5.027,122.28c0,0-0.226-1.915,1.235-4.1
		c1.058-1.581,3.838-1.939,3.838-1.939"/>
	
		<linearGradient id="SVGID_54_" gradientUnits="userSpaceOnUse" x1="-561.9243" y1="275.9102" x2="-556.3936" y2="275.9102" gradientTransform="matrix(1 0 0 1 568 -151)">
		<stop  offset="0" style="stop-color:#7E5B44"/>
		<stop  offset="0.9852" style="stop-color:#CC9966"/>
	</linearGradient>
	<path fill="none" stroke="url(#SVGID_54_)" stroke-width="2" stroke-miterlimit="10" d="M7.186,128.627c0,0-0.5-1.859,0.629-4.238
		c0.817-1.721,3.516-2.493,3.516-2.493"/>
	
		<linearGradient id="SVGID_55_" gradientUnits="userSpaceOnUse" x1="-560.2651" y1="281.3613" x2="-555.229" y2="281.3613" gradientTransform="matrix(1 0 0 1 568 -151)">
		<stop  offset="0" style="stop-color:#7E5B44"/>
		<stop  offset="0.9852" style="stop-color:#CC9966"/>
	</linearGradient>
	<path fill="none" stroke="url(#SVGID_55_)" stroke-width="2" stroke-miterlimit="10" d="M9.002,134.222
		c0,0-0.699-1.793,0.165-4.286c0.625-1.803,3.224-2.872,3.224-2.872"/>
	
		<linearGradient id="SVGID_56_" gradientUnits="userSpaceOnUse" x1="-558.3135" y1="286.373" x2="-553.2773" y2="286.373" gradientTransform="matrix(1 0 0 1 568 -151)">
		<stop  offset="0" style="stop-color:#7E5B44"/>
		<stop  offset="0.9852" style="stop-color:#CC9966"/>
	</linearGradient>
	<path fill="none" stroke="url(#SVGID_56_)" stroke-width="2" stroke-miterlimit="10" d="M10.954,139.233
		c0,0-0.699-1.793,0.165-4.286c0.626-1.802,3.223-2.872,3.223-2.872"/>
	
		<linearGradient id="SVGID_57_" gradientUnits="userSpaceOnUse" x1="-555.6758" y1="291.8711" x2="-551.1416" y2="291.8711" gradientTransform="matrix(1 0 0 1 568 -151)">
		<stop  offset="0" style="stop-color:#7E5B44"/>
		<stop  offset="0.9852" style="stop-color:#CC9966"/>
	</linearGradient>
	<path fill="none" stroke="url(#SVGID_57_)" stroke-width="2" stroke-miterlimit="10" d="M13.852,144.831
		c0,0-0.906-1.693-0.342-4.273c0.407-1.867,2.859-3.245,2.859-3.245"/>
	
		<linearGradient id="SVGID_58_" gradientUnits="userSpaceOnUse" x1="-552.7466" y1="297.7256" x2="-548.582" y2="297.7256" gradientTransform="matrix(1 0 0 1 568 -151)">
		<stop  offset="0" style="stop-color:#7E5B44"/>
		<stop  offset="0.9852" style="stop-color:#CC9966"/>
	</linearGradient>
	<path fill="none" stroke="url(#SVGID_58_)" stroke-width="2" stroke-miterlimit="10" d="M17.064,150.725
		c0,0-1.065-1.596-0.754-4.219c0.226-1.896,2.533-3.516,2.533-3.516"/>
	
		<linearGradient id="SVGID_59_" gradientUnits="userSpaceOnUse" x1="-549.6851" y1="302.6699" x2="-545.52" y2="302.6699" gradientTransform="matrix(1 0 0 1 568 -151)">
		<stop  offset="0" style="stop-color:#7E5B44"/>
		<stop  offset="0.9852" style="stop-color:#CC9966"/>
	</linearGradient>
	<path fill="none" stroke="url(#SVGID_59_)" stroke-width="2" stroke-miterlimit="10" d="M20.125,155.67
		c0,0-1.065-1.596-0.753-4.221c0.227-1.897,2.534-3.515,2.534-3.515"/>
	
		<linearGradient id="SVGID_60_" gradientUnits="userSpaceOnUse" x1="-546.4482" y1="307.1748" x2="-542.4873" y2="307.1748" gradientTransform="matrix(1 0 0 1 568 -151)">
		<stop  offset="0" style="stop-color:#7E5B44"/>
		<stop  offset="0.9852" style="stop-color:#CC9966"/>
	</linearGradient>
	<path fill="none" stroke="url(#SVGID_60_)" stroke-width="2" stroke-miterlimit="10" d="M23.563,160.179
		c0,0-1.156-1.527-0.996-4.166c0.116-1.909,2.324-3.662,2.324-3.662"/>
	
		<linearGradient id="SVGID_61_" gradientUnits="userSpaceOnUse" x1="-543.1318" y1="311.7578" x2="-539.4863" y2="311.7578" gradientTransform="matrix(1 0 0 1 568 -151)">
		<stop  offset="0" style="stop-color:#7E5B44"/>
		<stop  offset="0.9852" style="stop-color:#CC9966"/>
	</linearGradient>
	<path fill="none" stroke="url(#SVGID_61_)" stroke-width="2" stroke-miterlimit="10" d="M27.281,164.739
		c0,0-1.304-1.401-1.411-4.042c-0.077-1.91,1.945-3.885,1.945-3.885"/>
	
		<linearGradient id="SVGID_62_" gradientUnits="userSpaceOnUse" x1="-539.6792" y1="315.7148" x2="-536.2646" y2="315.7148" gradientTransform="matrix(1 0 0 1 568 -151)">
		<stop  offset="0" style="stop-color:#7E5B44"/>
		<stop  offset="0.9852" style="stop-color:#CC9966"/>
	</linearGradient>
	<path fill="none" stroke="url(#SVGID_62_)" stroke-width="2" stroke-miterlimit="10" d="M31.052,168.647
		c0,0-1.405-1.294-1.713-3.918c-0.221-1.897,1.645-4.024,1.645-4.024"/>
	
		<linearGradient id="SVGID_63_" gradientUnits="userSpaceOnUse" x1="-535.8472" y1="319.623" x2="-532.4326" y2="319.623" gradientTransform="matrix(1 0 0 1 568 -151)">
		<stop  offset="0" style="stop-color:#7E5B44"/>
		<stop  offset="0.9852" style="stop-color:#CC9966"/>
	</linearGradient>
	<path fill="none" stroke="url(#SVGID_63_)" stroke-width="2" stroke-miterlimit="10" d="M34.884,172.556
		c0,0-1.406-1.294-1.713-3.919c-0.221-1.896,1.645-4.023,1.645-4.023"/>
	
		<linearGradient id="SVGID_64_" gradientUnits="userSpaceOnUse" x1="-531.5679" y1="323.5547" x2="-527.981" y2="323.5547" gradientTransform="matrix(1 0 0 1 568 -151)">
		<stop  offset="0" style="stop-color:#7E5B44"/>
		<stop  offset="0.9852" style="stop-color:#CC9966"/>
	</linearGradient>
	<path fill="none" stroke="url(#SVGID_64_)" stroke-width="2" stroke-miterlimit="10" d="M39.381,176.444
		c0,0-1.47-1.218-1.911-3.823c-0.318-1.883,1.437-4.105,1.437-4.105"/>
	
		<linearGradient id="SVGID_65_" gradientUnits="userSpaceOnUse" x1="-526.6523" y1="327.4883" x2="-522.8359" y2="327.4883" gradientTransform="matrix(1 0 0 1 568 -151)">
		<stop  offset="0" style="stop-color:#7E5B44"/>
		<stop  offset="0.9852" style="stop-color:#CC9966"/>
	</linearGradient>
	<path fill="none" stroke="url(#SVGID_65_)" stroke-width="2" stroke-miterlimit="10" d="M44.579,180.307
		c0,0-1.546-1.116-2.155-3.688c-0.439-1.858,1.166-4.192,1.166-4.192"/>
	
		<linearGradient id="SVGID_66_" gradientUnits="userSpaceOnUse" x1="-522.2705" y1="330.7881" x2="-518.1113" y2="330.7881" gradientTransform="matrix(1 0 0 1 568 -151)">
		<stop  offset="0" style="stop-color:#7E5B44"/>
		<stop  offset="0.9852" style="stop-color:#CC9966"/>
	</linearGradient>
	<path fill="none" stroke="url(#SVGID_66_)" stroke-width="2" stroke-miterlimit="10" d="M49.385,183.472
		c0,0-1.646-0.96-2.497-3.455c-0.615-1.809,0.76-4.292,0.76-4.292"/>
	
		<linearGradient id="SVGID_67_" gradientUnits="userSpaceOnUse" x1="-517.2129" y1="333.6992" x2="-513.0542" y2="333.6992" gradientTransform="matrix(1 0 0 1 568 -151)">
		<stop  offset="0" style="stop-color:#7E5B44"/>
		<stop  offset="0.9852" style="stop-color:#CC9966"/>
	</linearGradient>
	<path fill="none" stroke="url(#SVGID_67_)" stroke-width="2" stroke-miterlimit="10" d="M54.442,186.382
		c0,0-1.646-0.959-2.497-3.455c-0.615-1.806,0.76-4.291,0.76-4.291"/>
	
		<linearGradient id="SVGID_68_" gradientUnits="userSpaceOnUse" x1="-512.187" y1="336.2461" x2="-508.0288" y2="336.2461" gradientTransform="matrix(1 0 0 1 568 -151)">
		<stop  offset="0" style="stop-color:#7E5B44"/>
		<stop  offset="0.9852" style="stop-color:#CC9966"/>
	</linearGradient>
	<path fill="none" stroke="url(#SVGID_68_)" stroke-width="2" stroke-miterlimit="10" d="M59.468,188.929
		c0,0-1.645-0.959-2.497-3.454c-0.615-1.809,0.76-4.291,0.76-4.291"/>
	
		<linearGradient id="SVGID_69_" gradientUnits="userSpaceOnUse" x1="-507.394" y1="338.5811" x2="-502.8574" y2="338.5811" gradientTransform="matrix(1 0 0 1 568 -151)">
		<stop  offset="0" style="stop-color:#7E5B44"/>
		<stop  offset="0.9852" style="stop-color:#CC9966"/>
	</linearGradient>
	<path fill="none" stroke="url(#SVGID_69_)" stroke-width="2" stroke-miterlimit="10" d="M64.733,191.079
		c0,0-1.735-0.779-2.838-3.17c-0.798-1.731,0.314-4.347,0.314-4.347"/>
	
		<linearGradient id="SVGID_70_" gradientUnits="userSpaceOnUse" x1="-501.8203" y1="340.835" x2="-497.0796" y2="340.835" gradientTransform="matrix(1 0 0 1 568 -151)">
		<stop  offset="0" style="stop-color:#7E5B44"/>
		<stop  offset="0.9852" style="stop-color:#CC9966"/>
	</linearGradient>
	<path fill="none" stroke="url(#SVGID_70_)" stroke-width="2" stroke-miterlimit="10" d="M70.563,193.219
		c0,0-1.774-0.678-3.007-3.003c-0.891-1.685,0.077-4.359,0.077-4.359"/>
	
		<linearGradient id="SVGID_71_" gradientUnits="userSpaceOnUse" x1="-495.8418" y1="342.6934" x2="-490.9033" y2="342.6934" gradientTransform="matrix(1 0 0 1 568 -151)">
		<stop  offset="0" style="stop-color:#7E5B44"/>
		<stop  offset="0.9852" style="stop-color:#CC9966"/>
	</linearGradient>
	<path fill="none" stroke="url(#SVGID_71_)" stroke-width="2" stroke-miterlimit="10" d="M76.789,194.965
		c0,0-1.807-0.585-3.156-2.844c-0.976-1.634-0.145-4.357-0.145-4.357"/>
	
		<linearGradient id="SVGID_72_" gradientUnits="userSpaceOnUse" x1="-490.2671" y1="343.9863" x2="-485.1011" y2="343.9863" gradientTransform="matrix(1 0 0 1 568 -151)">
		<stop  offset="0" style="stop-color:#7E5B44"/>
		<stop  offset="0.9852" style="stop-color:#CC9966"/>
	</linearGradient>
	<path fill="none" stroke="url(#SVGID_72_)" stroke-width="2" stroke-miterlimit="10" d="M82.647,196.118
		c0,0-1.837-0.478-3.312-2.653c-1.067-1.573-0.393-4.34-0.393-4.34"/>
	
		<linearGradient id="SVGID_73_" gradientUnits="userSpaceOnUse" x1="-483.8677" y1="345.1719" x2="-478.4009" y2="345.1719" gradientTransform="matrix(1 0 0 1 568 -151)">
		<stop  offset="0" style="stop-color:#7E5B44"/>
		<stop  offset="0.9852" style="stop-color:#CC9966"/>
	</linearGradient>
	<path fill="none" stroke="url(#SVGID_73_)" stroke-width="2" stroke-miterlimit="10" d="M89.42,197.115c0,0-1.867-0.34-3.492-2.401
		c-1.176-1.491-0.7-4.301-0.7-4.301"/>
	
		<linearGradient id="SVGID_74_" gradientUnits="userSpaceOnUse" x1="-477.2773" y1="345.8428" x2="-471.7271" y2="345.8428" gradientTransform="matrix(1 0 0 1 568 -151)">
		<stop  offset="0" style="stop-color:#7E5B44"/>
		<stop  offset="0.9852" style="stop-color:#CC9966"/>
	</linearGradient>
	<path fill="none" stroke="url(#SVGID_74_)" stroke-width="2" stroke-miterlimit="10" d="M96.112,197.733
		c0,0-1.873-0.305-3.537-2.334c-1.205-1.469-0.781-4.286-0.781-4.286"/>
	
		<linearGradient id="SVGID_75_" gradientUnits="userSpaceOnUse" x1="-471.0728" y1="346.1006" x2="-464.9331" y2="346.1006" gradientTransform="matrix(1 0 0 1 568 -151)">
		<stop  offset="0" style="stop-color:#7E5B44"/>
		<stop  offset="0.9852" style="stop-color:#CC9966"/>
	</linearGradient>
	<path fill="none" stroke="url(#SVGID_75_)" stroke-width="2" stroke-miterlimit="10" d="M103.035,197.618c0,0-1.896-0.061-3.8-1.86
		c-1.377-1.301-1.308-4.149-1.308-4.149"/>
	
		<linearGradient id="SVGID_76_" gradientUnits="userSpaceOnUse" x1="-465.1816" y1="345.6689" x2="-458.3564" y2="345.6689" gradientTransform="matrix(1 0 0 1 568 -151)">
		<stop  offset="0" style="stop-color:#7E5B44"/>
		<stop  offset="0.9852" style="stop-color:#CC9966"/>
	</linearGradient>
	<path fill="none" stroke="url(#SVGID_76_)" stroke-width="2" stroke-miterlimit="10" d="M109.56,196.9c0,0-1.89,0.159-3.981-1.408
		c-1.515-1.134-1.764-3.972-1.764-3.972"/>
	
		<linearGradient id="SVGID_77_" gradientUnits="userSpaceOnUse" x1="-458.1533" y1="344.8438" x2="-450.6816" y2="344.8438" gradientTransform="matrix(1 0 0 1 568 -151)">
		<stop  offset="0" style="stop-color:#7E5B44"/>
		<stop  offset="0.9852" style="stop-color:#CC9966"/>
	</linearGradient>
	<path fill="none" stroke="url(#SVGID_77_)" stroke-width="2" stroke-miterlimit="10" d="M117.123,195.768
		c0,0-1.861,0.371-4.11-0.95c-1.628-0.956-2.186-3.749-2.186-3.749"/>
	
		<linearGradient id="SVGID_78_" gradientUnits="userSpaceOnUse" x1="-451.3413" y1="343.625" x2="-443.8701" y2="343.625" gradientTransform="matrix(1 0 0 1 568 -151)">
		<stop  offset="0" style="stop-color:#7E5B44"/>
		<stop  offset="0.9852" style="stop-color:#CC9966"/>
	</linearGradient>
	<path fill="none" stroke="url(#SVGID_78_)" stroke-width="2" stroke-miterlimit="10" d="M123.935,194.55c0,0-1.86,0.37-4.11-0.952
		c-1.628-0.956-2.185-3.75-2.185-3.75"/>
	
		<linearGradient id="SVGID_79_" gradientUnits="userSpaceOnUse" x1="-444.4683" y1="342.1387" x2="-436.3979" y2="342.1387" gradientTransform="matrix(1 0 0 1 568 -151)">
		<stop  offset="0" style="stop-color:#7E5B44"/>
		<stop  offset="0.9852" style="stop-color:#CC9966"/>
	</linearGradient>
	<path fill="none" stroke="url(#SVGID_79_)" stroke-width="2" stroke-miterlimit="10" d="M131.289,192.657
		c0,0-1.806,0.595-4.194-0.441c-1.729-0.751-2.612-3.456-2.612-3.456"/>
	
		<linearGradient id="SVGID_80_" gradientUnits="userSpaceOnUse" x1="-438.6914" y1="340.1465" x2="-430.2207" y2="340.1465" gradientTransform="matrix(1 0 0 1 568 -151)">
		<stop  offset="0" style="stop-color:#7E5B44"/>
		<stop  offset="0.9852" style="stop-color:#CC9966"/>
	</linearGradient>
	<path fill="none" stroke="url(#SVGID_80_)" stroke-width="2" stroke-miterlimit="10" d="M137.373,190.278
		c0,0-1.737,0.772-4.216-0.021c-1.793-0.574-2.933-3.177-2.933-3.177"/>
	
		<linearGradient id="SVGID_81_" gradientUnits="userSpaceOnUse" x1="-433.0859" y1="337.6523" x2="-424.6152" y2="337.6523" gradientTransform="matrix(1 0 0 1 568 -151)">
		<stop  offset="0" style="stop-color:#7E5B44"/>
		<stop  offset="0.9852" style="stop-color:#CC9966"/>
	</linearGradient>
	<path fill="none" stroke="url(#SVGID_81_)" stroke-width="2" stroke-miterlimit="10" d="M142.979,187.783
		c0,0-1.736,0.772-4.215-0.021c-1.793-0.572-2.934-3.177-2.934-3.177"/>
	
		<linearGradient id="SVGID_82_" gradientUnits="userSpaceOnUse" x1="-428.3569" y1="335.0254" x2="-419.6851" y2="335.0254" gradientTransform="matrix(1 0 0 1 568 -151)">
		<stop  offset="0" style="stop-color:#7E5B44"/>
		<stop  offset="0.9852" style="stop-color:#CC9966"/>
	</linearGradient>
	<path fill="none" stroke="url(#SVGID_82_)" stroke-width="2" stroke-miterlimit="10" d="M147.855,184.902
		c0,0-1.689,0.874-4.21,0.23c-1.822-0.466-3.111-2.997-3.111-2.997"/>
	
		<linearGradient id="SVGID_83_" gradientUnits="userSpaceOnUse" x1="-422.9409" y1="332.3145" x2="-413.9888" y2="332.3145" gradientTransform="matrix(1 0 0 1 568 -151)">
		<stop  offset="0" style="stop-color:#7E5B44"/>
		<stop  offset="0.9852" style="stop-color:#CC9966"/>
	</linearGradient>
	<path fill="none" stroke="url(#SVGID_83_)" stroke-width="2" stroke-miterlimit="10" d="M153.462,181.703
		c0,0-1.594,1.048-4.165,0.67c-1.86-0.275-3.397-2.657-3.397-2.657"/>
	
		<linearGradient id="SVGID_84_" gradientUnits="userSpaceOnUse" x1="-418.0972" y1="329.0674" x2="-409" y2="329.0674" gradientTransform="matrix(1 0 0 1 568 -151)">
		<stop  offset="0" style="stop-color:#7E5B44"/>
		<stop  offset="0.9852" style="stop-color:#CC9966"/>
	</linearGradient>
	<path fill="none" stroke="url(#SVGID_84_)" stroke-width="2" stroke-miterlimit="10" d="M158.388,178.06
		c0,0-1.509,1.168-4.101,0.992c-1.875-0.127-3.588-2.383-3.588-2.383"/>
	
		<linearGradient id="SVGID_85_" gradientUnits="userSpaceOnUse" x1="-412.6973" y1="325.2275" x2="-403.5991" y2="325.2275" gradientTransform="matrix(1 0 0 1 568 -151)">
		<stop  offset="0" style="stop-color:#7E5B44"/>
		<stop  offset="0.9852" style="stop-color:#CC9966"/>
	</linearGradient>
	<path fill="none" stroke="url(#SVGID_85_)" stroke-width="2" stroke-miterlimit="10" d="M163.789,174.221
		c0,0-1.511,1.168-4.103,0.992c-1.876-0.127-3.587-2.384-3.587-2.384"/>
	
		<linearGradient id="SVGID_86_" gradientUnits="userSpaceOnUse" x1="-408.8843" y1="321.9551" x2="-399.7163" y2="321.9551" gradientTransform="matrix(1 0 0 1 568 -151)">
		<stop  offset="0" style="stop-color:#7E5B44"/>
		<stop  offset="0.9852" style="stop-color:#CC9966"/>
	</linearGradient>
	<path fill="none" stroke="url(#SVGID_86_)" stroke-width="2" stroke-miterlimit="10" d="M167.631,170.664
		c0,0-1.447,1.247-4.045,1.208c-1.879-0.027-3.706-2.19-3.706-2.19"/>
	
		<linearGradient id="SVGID_87_" gradientUnits="userSpaceOnUse" x1="-405.0542" y1="318.3633" x2="-395.8364" y2="318.3633" gradientTransform="matrix(1 0 0 1 568 -151)">
		<stop  offset="0" style="stop-color:#7E5B44"/>
		<stop  offset="0.9852" style="stop-color:#CC9966"/>
	</linearGradient>
	<path fill="none" stroke="url(#SVGID_87_)" stroke-width="2" stroke-miterlimit="10" d="M171.462,166.699
		c0,0-1.362,1.341-3.959,1.479c-1.876,0.097-3.837-1.938-3.837-1.938"/>
	
		<linearGradient id="SVGID_88_" gradientUnits="userSpaceOnUse" x1="-400.708" y1="313.9238" x2="-391.4878" y2="313.9238" gradientTransform="matrix(1 0 0 1 568 -151)">
		<stop  offset="0" style="stop-color:#7E5B44"/>
		<stop  offset="0.9852" style="stop-color:#CC9966"/>
	</linearGradient>
	<path fill="none" stroke="url(#SVGID_88_)" stroke-width="2" stroke-miterlimit="10" d="M175.745,161.799
		c0,0-1.228,1.468-3.799,1.861c-1.858,0.283-4.006-1.547-4.006-1.547"/>
	
		<linearGradient id="SVGID_89_" gradientUnits="userSpaceOnUse" x1="-397.4761" y1="310.0078" x2="-388.2563" y2="310.0078" gradientTransform="matrix(1 0 0 1 568 -151)">
		<stop  offset="0" style="stop-color:#7E5B44"/>
		<stop  offset="0.9852" style="stop-color:#CC9966"/>
	</linearGradient>
	<path fill="none" stroke="url(#SVGID_89_)" stroke-width="2" stroke-miterlimit="10" d="M178.977,157.883
		c0,0-1.228,1.468-3.798,1.861c-1.858,0.283-4.006-1.548-4.006-1.548"/>
	
		<linearGradient id="SVGID_90_" gradientUnits="userSpaceOnUse" x1="-394.1528" y1="304.7295" x2="-384.9341" y2="304.7295" gradientTransform="matrix(1 0 0 1 568 -151)">
		<stop  offset="0" style="stop-color:#7E5B44"/>
		<stop  offset="0.9852" style="stop-color:#CC9966"/>
	</linearGradient>
	<path fill="none" stroke="url(#SVGID_90_)" stroke-width="2" stroke-miterlimit="10" d="M182.299,152.604
		c0,0-1.229,1.47-3.797,1.862c-1.859,0.283-4.006-1.547-4.006-1.547"/>
	
		<linearGradient id="SVGID_91_" gradientUnits="userSpaceOnUse" x1="-390.6123" y1="299.2568" x2="-381.4893" y2="299.2568" gradientTransform="matrix(1 0 0 1 568 -151)">
		<stop  offset="0" style="stop-color:#7E5B44"/>
		<stop  offset="0.9852" style="stop-color:#CC9966"/>
	</linearGradient>
	<path fill="none" stroke="url(#SVGID_91_)" stroke-width="2" stroke-miterlimit="10" d="M185.681,146.863
		c0,0-1.07,1.592-3.585,2.255c-1.82,0.479-4.143-1.112-4.143-1.112"/>
	
		<linearGradient id="SVGID_92_" gradientUnits="userSpaceOnUse" x1="-387.5659" y1="294.2754" x2="-378.5317" y2="294.2754" gradientTransform="matrix(1 0 0 1 568 -151)">
		<stop  offset="0" style="stop-color:#7E5B44"/>
		<stop  offset="0.9852" style="stop-color:#CC9966"/>
	</linearGradient>
	<path fill="none" stroke="url(#SVGID_92_)" stroke-width="2" stroke-miterlimit="10" d="M188.609,141.735
		c0,0-0.984,1.649-3.459,2.455c-1.789,0.581-4.198-0.878-4.198-0.878"/>
	
		<linearGradient id="SVGID_93_" gradientUnits="userSpaceOnUse" x1="-385.0781" y1="287.9883" x2="-376.1562" y2="287.9883" gradientTransform="matrix(1 0 0 1 568 -151)">
		<stop  offset="0" style="stop-color:#7E5B44"/>
		<stop  offset="0.9852" style="stop-color:#CC9966"/>
	</linearGradient>
	<path fill="none" stroke="url(#SVGID_93_)" stroke-width="2" stroke-miterlimit="10" d="M190.959,135.31
		c0,0-0.896,1.698-3.329,2.632c-1.757,0.676-4.234-0.656-4.234-0.656"/>
	
		<linearGradient id="SVGID_94_" gradientUnits="userSpaceOnUse" x1="-382.8701" y1="281.9434" x2="-374.1006" y2="281.9434" gradientTransform="matrix(1 0 0 1 568 -151)">
		<stop  offset="0" style="stop-color:#7E5B44"/>
		<stop  offset="0.9852" style="stop-color:#CC9966"/>
	</linearGradient>
	<path fill="none" stroke="url(#SVGID_94_)" stroke-width="2" stroke-miterlimit="10" d="M192.989,129.105
		c0,0-0.797,1.75-3.171,2.825c-1.716,0.778-4.268-0.405-4.268-0.405"/>
	
		<linearGradient id="SVGID_95_" gradientUnits="userSpaceOnUse" x1="-380.9775" y1="276.4121" x2="-372.438" y2="276.4121" gradientTransform="matrix(1 0 0 1 568 -151)">
		<stop  offset="0" style="stop-color:#7E5B44"/>
		<stop  offset="0.9852" style="stop-color:#CC9966"/>
	</linearGradient>
	<path fill="none" stroke="url(#SVGID_95_)" stroke-width="2" stroke-miterlimit="10" d="M194.625,123.372
		c0,0-0.673,1.804-2.964,3.051c-1.659,0.902-4.285-0.091-4.285-0.091"/>
	
		<linearGradient id="SVGID_96_" gradientUnits="userSpaceOnUse" x1="-379.2349" y1="269.8008" x2="-370.7651" y2="269.8008" gradientTransform="matrix(1 0 0 1 568 -151)">
		<stop  offset="0" style="stop-color:#7E5B44"/>
		<stop  offset="0.9852" style="stop-color:#CC9966"/>
	</linearGradient>
	<path fill="none" stroke="url(#SVGID_96_)" stroke-width="2" stroke-miterlimit="10" d="M196.291,116.706
		c0,0-0.637,1.816-2.904,3.107c-1.641,0.935-4.286-0.007-4.286-0.007"/>
	
		<linearGradient id="SVGID_97_" gradientUnits="userSpaceOnUse" x1="-377.605" y1="262.8623" x2="-369.6699" y2="262.8623" gradientTransform="matrix(1 0 0 1 568 -151)">
		<stop  offset="0" style="stop-color:#7E5B44"/>
		<stop  offset="0.9852" style="stop-color:#CC9966"/>
	</linearGradient>
	<path fill="none" stroke="url(#SVGID_97_)" stroke-width="2" stroke-miterlimit="10" d="M197.353,109.391
		c0,0-0.408,1.884-2.495,3.456c-1.51,1.138-4.251,0.545-4.251,0.545"/>
	
		<linearGradient id="SVGID_98_" gradientUnits="userSpaceOnUse" x1="-377.5142" y1="256.8584" x2="-369.4819" y2="256.8584" gradientTransform="matrix(1 0 0 1 568 -151)">
		<stop  offset="0" style="stop-color:#7E5B44"/>
		<stop  offset="0.9852" style="stop-color:#CC9966"/>
	</linearGradient>
	<path fill="none" stroke="url(#SVGID_98_)" stroke-width="2" stroke-miterlimit="10" d="M197.545,103.449
		c0,0-0.445,1.875-2.565,3.405c-1.534,1.105-4.262,0.455-4.262,0.455"/>
</g>
<g id="Circle_1_">
	
		<linearGradient id="SVGID_99_" gradientUnits="userSpaceOnUse" x1="-555.7354" y1="250.9414" x2="-380.4092" y2="250.9414" gradientTransform="matrix(1 0 0 1 568 -151)">
		<stop  offset="0.0554" style="stop-color:#7E5B44"/>
		<stop  offset="0.523" style="stop-color:#CC9966"/>
		<stop  offset="1" style="stop-color:#7E5B44"/>
	</linearGradient>
	
		<ellipse fill="none" stroke="url(#SVGID_99_)" stroke-width="6" stroke-miterlimit="10" cx="99.928" cy="99.942" rx="84.663" ry="83.631"/>
	
		<linearGradient id="SVGID_100_" gradientUnits="userSpaceOnUse" x1="-557.9688" y1="250.8057" x2="-378.1768" y2="250.8057" gradientTransform="matrix(1 0 0 1 568 -151)">
		<stop  offset="0.0554" style="stop-color:#7E5B44"/>
		<stop  offset="0.523" style="stop-color:#CC9966"/>
		<stop  offset="1" style="stop-color:#7E5B44"/>
	</linearGradient>
	
		<ellipse fill="none" stroke="url(#SVGID_100_)" stroke-width="2" stroke-miterlimit="10" cx="99.928" cy="99.806" rx="88.896" ry="88.063"/>
	
		<linearGradient id="SVGID_101_" gradientUnits="userSpaceOnUse" x1="-564.7764" y1="250.8047" x2="-371.3691" y2="250.8047" gradientTransform="matrix(1 0 0 1 568 -151)">
		<stop  offset="0.0554" style="stop-color:#7E5B44"/>
		<stop  offset="0.523" style="stop-color:#CC9966"/>
		<stop  offset="1" style="stop-color:#7E5B44"/>
	</linearGradient>
	
		<ellipse display="none" fill="none" stroke="url(#SVGID_101_)" stroke-width="6" stroke-miterlimit="10" cx="99.927" cy="99.805" rx="93.704" ry="94.344"/>
</g>
</svg>
