<?xml version="1.0" encoding="utf-8"?>
<!-- Generator: Adobe Illustrator 16.0.0, SVG Export Plug-In . SVG Version: 6.00 Build 0)  -->
<!DOCTYPE svg PUBLIC "-//W3C//DTD SVG 1.1//EN" "http://www.w3.org/Graphics/SVG/1.1/DTD/svg11.dtd">
<svg version="1.1" xmlns="http://www.w3.org/2000/svg" xmlns:xlink="http://www.w3.org/1999/xlink" x="0px" y="0px" width="20px"
	 height="54px" viewBox="0 0 20 54" enable-background="new 0 0 20 54" xml:space="preserve">
<g id="Layer_2" display="none">
	<polygon display="inline" points="19.992,54 0,54 0,0 20.008,0 	"/>
</g>
<g id="Layer_1">
	<path fill="none" stroke="#FFFFFF" stroke-width="0.75" stroke-miterlimit="10" d="M8.245,2.396c0,0,0.012-1.794,1.877-1.794
		c1.739,0,1.877,1.794,1.877,1.794c4.795,0.452,4.693,1.792,5.632,2.69c0.939,0,1.877,0.897,1.877,1.793
		c0,1.793-1.877,1.793-1.877,1.793c0,1.881,0,35.874,0,35.874s1.877,0,1.877,1.795c0,0.897-0.938,1.793-1.877,1.793
		c-0.938,0.897-0.938,2.691-5.632,3.586c0,0,0.134,1.781-1.845,1.781c-1.877,0-1.909-1.781-1.909-1.781
		c-4.692-0.895-4.692-2.688-5.63-3.586c-0.939,0-1.877-0.896-1.877-1.793c0-1.795,1.877-1.795,1.877-1.795V8.674
		c0,0-1.877,0-1.877-1.793c0-0.896,0.938-1.793,1.877-1.793C3.553,4.189,3.603,2.928,8.245,2.396z"/>
	<path fill="none" stroke="#FFFFFF" stroke-miterlimit="10" d="M-0.009,46.873"/>
	<path fill="none" stroke="#FFFFFF" stroke-miterlimit="10" d="M8.791,51.434"/>
	<polygon fill="#FFFFFF" points="2.615,11.365 2.615,16.746 17.663,10.064 17.631,8.674 7.281,8.779 	"/>
	<polygon fill="#FFFFFF" points="17.631,23.92 2.615,30.199 2.615,24.817 17.631,18.54 	"/>
	<polygon fill="#FFFFFF" points="17.65,37.293 2.615,44.548 2.615,39.168 17.631,31.991 	"/>
	<line fill="none" stroke="#FFFFFF" stroke-width="0.75" stroke-miterlimit="10" x1="2.615" y1="8.674" x2="17.631" y2="8.674"/>
	<line fill="none" stroke="#FFFFFF" stroke-miterlimit="10" x1="2.615" y1="44.548" x2="17.631" y2="44.548"/>
</g>
</svg>
