<?xml version="1.0" encoding="utf-8"?>
<!-- Generator: Adobe Illustrator 16.0.0, SVG Export Plug-In . SVG Version: 6.00 Build 0)  -->
<!DOCTYPE svg PUBLIC "-//W3C//DTD SVG 1.1//EN" "http://www.w3.org/Graphics/SVG/1.1/DTD/svg11.dtd">
<svg version="1.1" id="Layer_1" xmlns="http://www.w3.org/2000/svg" xmlns:xlink="http://www.w3.org/1999/xlink" x="0px" y="0px"
	 width="50px" height="50px" viewBox="0 0 50 50" enable-background="new 0 0 50 50" xml:space="preserve">
<rect x="0.203" y="0.378" display="none" stroke="#000000" stroke-miterlimit="10" width="49.376" height="49.425"/>
<g id="Layer_1_2_">
	
		<linearGradient id="SVGID_1_" gradientUnits="userSpaceOnUse" x1="-520.6108" y1="174.4941" x2="-518.9141" y2="174.4941" gradientTransform="matrix(1 0 0 1 568 -151)">
		<stop  offset="0" style="stop-color:#7E5B44"/>
		<stop  offset="0.9852" style="stop-color:#CC9966"/>
	</linearGradient>
	<path fill="none" stroke="url(#SVGID_1_)" stroke-width="0.75" stroke-miterlimit="10" d="M48.709,22.592
		c0,0,0.047,0.474-0.323,1.007c-0.268,0.386-0.955,0.462-0.955,0.462"/>
	
		<linearGradient id="SVGID_2_" gradientUnits="userSpaceOnUse" x1="-520.6274" y1="175.9473" x2="-518.8779" y2="175.9473" gradientTransform="matrix(1 0 0 1 568 -151)">
		<stop  offset="0" style="stop-color:#7E5B44"/>
		<stop  offset="0.9852" style="stop-color:#CC9966"/>
	</linearGradient>
	<path fill="none" stroke="url(#SVGID_2_)" stroke-width="0.75" stroke-miterlimit="10" d="M48.747,24.07
		c0,0,0.022,0.476-0.374,0.989c-0.288,0.371-0.979,0.411-0.979,0.411"/>
	
		<linearGradient id="SVGID_3_" gradientUnits="userSpaceOnUse" x1="-520.7329" y1="172.7031" x2="-519.1079" y2="172.7031" gradientTransform="matrix(1 0 0 1 568 -151)">
		<stop  offset="0" style="stop-color:#7E5B44"/>
		<stop  offset="0.9852" style="stop-color:#CC9966"/>
	</linearGradient>
	<path fill="none" stroke="url(#SVGID_3_)" stroke-width="0.75" stroke-miterlimit="10" d="M48.509,20.771
		c0,0,0.08,0.47-0.252,1.028c-0.241,0.404-0.922,0.529-0.922,0.529"/>
	
		<linearGradient id="SVGID_4_" gradientUnits="userSpaceOnUse" x1="-520.9404" y1="171.4971" x2="-519.3784" y2="171.4971" gradientTransform="matrix(1 0 0 1 568 -151)">
		<stop  offset="0" style="stop-color:#7E5B44"/>
		<stop  offset="0.9852" style="stop-color:#CC9966"/>
	</linearGradient>
	<path fill="none" stroke="url(#SVGID_4_)" stroke-width="0.75" stroke-miterlimit="10" d="M48.228,19.543
		c0,0,0.108,0.463-0.19,1.042c-0.215,0.419-0.887,0.587-0.887,0.587"/>
	
		<linearGradient id="SVGID_5_" gradientUnits="userSpaceOnUse" x1="-521.2441" y1="170.2422" x2="-519.6987" y2="170.2422" gradientTransform="matrix(1 0 0 1 568 -151)">
		<stop  offset="0" style="stop-color:#7E5B44"/>
		<stop  offset="0.9852" style="stop-color:#CC9966"/>
	</linearGradient>
	<path fill="none" stroke="url(#SVGID_5_)" stroke-width="0.75" stroke-miterlimit="10" d="M47.903,18.283
		c0,0,0.116,0.462-0.173,1.045c-0.209,0.423-0.878,0.602-0.878,0.602"/>
	
		<linearGradient id="SVGID_6_" gradientUnits="userSpaceOnUse" x1="-521.5249" y1="168.8809" x2="-520.0894" y2="168.8809" gradientTransform="matrix(1 0 0 1 568 -151)">
		<stop  offset="0" style="stop-color:#7E5B44"/>
		<stop  offset="0.9852" style="stop-color:#CC9966"/>
	</linearGradient>
	<path fill="none" stroke="url(#SVGID_6_)" stroke-width="0.75" stroke-miterlimit="10" d="M47.477,16.894
		c0,0,0.166,0.445-0.058,1.058c-0.162,0.443-0.807,0.696-0.807,0.696"/>
	
		<linearGradient id="SVGID_7_" gradientUnits="userSpaceOnUse" x1="-521.9868" y1="167.6338" x2="-520.5513" y2="167.6338" gradientTransform="matrix(1 0 0 1 568 -151)">
		<stop  offset="0" style="stop-color:#7E5B44"/>
		<stop  offset="0.9852" style="stop-color:#CC9966"/>
	</linearGradient>
	<path fill="none" stroke="url(#SVGID_7_)" stroke-width="0.75" stroke-miterlimit="10" d="M47.015,15.647
		c0,0,0.166,0.445-0.058,1.058c-0.161,0.443-0.807,0.697-0.807,0.697"/>
	
		<linearGradient id="SVGID_8_" gradientUnits="userSpaceOnUse" x1="-522.5078" y1="166.2549" x2="-521.1831" y2="166.2549" gradientTransform="matrix(1 0 0 1 568 -151)">
		<stop  offset="0" style="stop-color:#7E5B44"/>
		<stop  offset="0.9852" style="stop-color:#CC9966"/>
	</linearGradient>
	<path fill="none" stroke="url(#SVGID_8_)" stroke-width="0.75" stroke-miterlimit="10" d="M46.321,14.252
		c0,0,0.218,0.422,0.068,1.057c-0.107,0.459-0.719,0.79-0.719,0.79"/>
	
		<linearGradient id="SVGID_9_" gradientUnits="userSpaceOnUse" x1="-523.1279" y1="164.7891" x2="-521.8853" y2="164.7891" gradientTransform="matrix(1 0 0 1 568 -151)">
		<stop  offset="0" style="stop-color:#7E5B44"/>
		<stop  offset="0.9852" style="stop-color:#CC9966"/>
	</linearGradient>
	<path fill="none" stroke="url(#SVGID_9_)" stroke-width="0.75" stroke-miterlimit="10" d="M45.553,12.782
		c0,0,0.256,0.399,0.169,1.046c-0.063,0.468-0.64,0.858-0.64,0.858"/>
	
		<linearGradient id="SVGID_10_" gradientUnits="userSpaceOnUse" x1="-523.8638" y1="163.5547" x2="-522.6216" y2="163.5547" gradientTransform="matrix(1 0 0 1 568 -151)">
		<stop  offset="0" style="stop-color:#7E5B44"/>
		<stop  offset="0.9852" style="stop-color:#CC9966"/>
	</linearGradient>
	<path fill="none" stroke="url(#SVGID_10_)" stroke-width="0.75" stroke-miterlimit="10" d="M44.817,11.549
		c0,0,0.255,0.398,0.168,1.045c-0.063,0.468-0.639,0.859-0.639,0.859"/>
	
		<linearGradient id="SVGID_11_" gradientUnits="userSpaceOnUse" x1="-524.6016" y1="162.4229" x2="-523.4043" y2="162.4229" gradientTransform="matrix(1 0 0 1 568 -151)">
		<stop  offset="0" style="stop-color:#7E5B44"/>
		<stop  offset="0.9852" style="stop-color:#CC9966"/>
	</linearGradient>
	<path fill="none" stroke="url(#SVGID_11_)" stroke-width="0.75" stroke-miterlimit="10" d="M43.986,10.42
		c0,0,0.278,0.382,0.229,1.034c-0.036,0.471-0.588,0.895-0.588,0.895"/>
	
		<linearGradient id="SVGID_12_" gradientUnits="userSpaceOnUse" x1="-525.3345" y1="161.2676" x2="-524.207" y2="161.2676" gradientTransform="matrix(1 0 0 1 568 -151)">
		<stop  offset="0" style="stop-color:#7E5B44"/>
		<stop  offset="0.9852" style="stop-color:#CC9966"/>
	</linearGradient>
	<path fill="none" stroke="url(#SVGID_12_)" stroke-width="0.75" stroke-miterlimit="10" d="M43.087,9.278
		c0,0,0.315,0.351,0.331,1.004c0.013,0.473-0.495,0.952-0.495,0.952"/>
	
		<linearGradient id="SVGID_13_" gradientUnits="userSpaceOnUse" x1="-526.1216" y1="160.2686" x2="-525.0435" y2="160.2686" gradientTransform="matrix(1 0 0 1 568 -151)">
		<stop  offset="0" style="stop-color:#7E5B44"/>
		<stop  offset="0.9852" style="stop-color:#CC9966"/>
	</linearGradient>
	<path fill="none" stroke="url(#SVGID_13_)" stroke-width="0.75" stroke-miterlimit="10" d="M42.171,8.297
		c0,0,0.342,0.325,0.407,0.975c0.047,0.47-0.422,0.987-0.422,0.987"/>
	
		<linearGradient id="SVGID_14_" gradientUnits="userSpaceOnUse" x1="-527.0522" y1="159.2871" x2="-525.9741" y2="159.2871" gradientTransform="matrix(1 0 0 1 568 -151)">
		<stop  offset="0" style="stop-color:#7E5B44"/>
		<stop  offset="0.9852" style="stop-color:#CC9966"/>
	</linearGradient>
	<path fill="none" stroke="url(#SVGID_14_)" stroke-width="0.75" stroke-miterlimit="10" d="M41.24,7.315
		c0,0,0.343,0.326,0.407,0.975c0.047,0.47-0.422,0.988-0.422,0.988"/>
	
		<linearGradient id="SVGID_15_" gradientUnits="userSpaceOnUse" x1="-528.0981" y1="158.293" x2="-527.0156" y2="158.293" gradientTransform="matrix(1 0 0 1 568 -151)">
		<stop  offset="0" style="stop-color:#7E5B44"/>
		<stop  offset="0.9852" style="stop-color:#CC9966"/>
	</linearGradient>
	<path fill="none" stroke="url(#SVGID_15_)" stroke-width="0.75" stroke-miterlimit="10" d="M40.146,6.335
		c0,0,0.358,0.307,0.456,0.953c0.072,0.467-0.37,1.009-0.37,1.009"/>
	
		<linearGradient id="SVGID_16_" gradientUnits="userSpaceOnUse" x1="-529.3467" y1="157.2949" x2="-528.2134" y2="157.2949" gradientTransform="matrix(1 0 0 1 568 -151)">
		<stop  offset="0" style="stop-color:#7E5B44"/>
		<stop  offset="0.9852" style="stop-color:#CC9966"/>
	</linearGradient>
	<path fill="none" stroke="url(#SVGID_16_)" stroke-width="0.75" stroke-miterlimit="10" d="M38.878,5.36
		c0,0,0.377,0.282,0.518,0.919c0.101,0.461-0.305,1.032-0.305,1.032"/>
	
		<linearGradient id="SVGID_17_" gradientUnits="userSpaceOnUse" x1="-530.4897" y1="156.4521" x2="-529.2832" y2="156.4521" gradientTransform="matrix(1 0 0 1 568 -151)">
		<stop  offset="0" style="stop-color:#7E5B44"/>
		<stop  offset="0.9852" style="stop-color:#CC9966"/>
	</linearGradient>
	<path fill="none" stroke="url(#SVGID_17_)" stroke-width="0.75" stroke-miterlimit="10" d="M37.705,4.559
		c0,0,0.401,0.244,0.602,0.864c0.145,0.449-0.205,1.057-0.205,1.057"/>
	
		<linearGradient id="SVGID_18_" gradientUnits="userSpaceOnUse" x1="-531.7271" y1="155.7109" x2="-530.52" y2="155.7109" gradientTransform="matrix(1 0 0 1 568 -151)">
		<stop  offset="0" style="stop-color:#7E5B44"/>
		<stop  offset="0.9852" style="stop-color:#CC9966"/>
	</linearGradient>
	<path fill="none" stroke="url(#SVGID_18_)" stroke-width="0.75" stroke-miterlimit="10" d="M36.467,3.818
		c0,0,0.402,0.243,0.603,0.864c0.146,0.449-0.204,1.057-0.204,1.057"/>
	
		<linearGradient id="SVGID_19_" gradientUnits="userSpaceOnUse" x1="-532.958" y1="155.0615" x2="-531.75" y2="155.0615" gradientTransform="matrix(1 0 0 1 568 -151)">
		<stop  offset="0" style="stop-color:#7E5B44"/>
		<stop  offset="0.9852" style="stop-color:#CC9966"/>
	</linearGradient>
	<path fill="none" stroke="url(#SVGID_19_)" stroke-width="0.75" stroke-miterlimit="10" d="M35.236,3.168
		c0,0,0.403,0.244,0.604,0.864c0.145,0.449-0.205,1.057-0.205,1.057"/>
	
		<linearGradient id="SVGID_20_" gradientUnits="userSpaceOnUse" x1="-534.2134" y1="154.4551" x2="-532.9258" y2="154.4551" gradientTransform="matrix(1 0 0 1 568 -151)">
		<stop  offset="0" style="stop-color:#7E5B44"/>
		<stop  offset="0.9852" style="stop-color:#CC9966"/>
	</linearGradient>
	<path fill="none" stroke="url(#SVGID_20_)" stroke-width="0.75" stroke-miterlimit="10" d="M33.945,2.615
		c0,0,0.426,0.199,0.688,0.795c0.19,0.431-0.095,1.073-0.095,1.073"/>
	
		<linearGradient id="SVGID_21_" gradientUnits="userSpaceOnUse" x1="-535.6245" y1="153.8711" x2="-534.293" y2="153.8711" gradientTransform="matrix(1 0 0 1 568 -151)">
		<stop  offset="0" style="stop-color:#7E5B44"/>
		<stop  offset="0.9852" style="stop-color:#CC9966"/>
	</linearGradient>
	<path fill="none" stroke="url(#SVGID_21_)" stroke-width="0.75" stroke-miterlimit="10" d="M32.516,2.062
		c0,0,0.435,0.175,0.73,0.755c0.213,0.419-0.037,1.077-0.037,1.077"/>
	
		<linearGradient id="SVGID_22_" gradientUnits="userSpaceOnUse" x1="-537.1367" y1="153.3828" x2="-535.7622" y2="153.3828" gradientTransform="matrix(1 0 0 1 568 -151)">
		<stop  offset="0" style="stop-color:#7E5B44"/>
		<stop  offset="0.9852" style="stop-color:#CC9966"/>
	</linearGradient>
	<path fill="none" stroke="url(#SVGID_22_)" stroke-width="0.75" stroke-miterlimit="10" d="M30.985,1.605
		c0,0,0.443,0.152,0.768,0.716c0.235,0.408,0.019,1.077,0.019,1.077"/>
	
		<linearGradient id="SVGID_23_" gradientUnits="userSpaceOnUse" x1="-538.5562" y1="153.0352" x2="-537.1348" y2="153.0352" gradientTransform="matrix(1 0 0 1 568 -151)">
		<stop  offset="0" style="stop-color:#7E5B44"/>
		<stop  offset="0.9852" style="stop-color:#CC9966"/>
	</linearGradient>
	<path fill="none" stroke="url(#SVGID_23_)" stroke-width="0.75" stroke-miterlimit="10" d="M29.544,1.296
		c0,0,0.451,0.125,0.807,0.669C30.608,2.358,30.43,3.04,30.43,3.04"/>
	
		<linearGradient id="SVGID_24_" gradientUnits="userSpaceOnUse" x1="-540.1982" y1="152.709" x2="-538.7119" y2="152.709" gradientTransform="matrix(1 0 0 1 568 -151)">
		<stop  offset="0" style="stop-color:#7E5B44"/>
		<stop  offset="0.9852" style="stop-color:#CC9966"/>
	</linearGradient>
	<path fill="none" stroke="url(#SVGID_24_)" stroke-width="0.75" stroke-miterlimit="10" d="M27.876,1.022
		c0,0,0.459,0.092,0.853,0.608c0.283,0.373,0.156,1.065,0.156,1.065"/>
	
		<linearGradient id="SVGID_25_" gradientUnits="userSpaceOnUse" x1="-541.8398" y1="152.5146" x2="-540.3364" y2="152.5146" gradientTransform="matrix(1 0 0 1 568 -151)">
		<stop  offset="0" style="stop-color:#7E5B44"/>
		<stop  offset="0.9852" style="stop-color:#CC9966"/>
	</linearGradient>
	<path fill="none" stroke="url(#SVGID_25_)" stroke-width="0.75" stroke-miterlimit="10" d="M26.227,0.842
		c0,0,0.461,0.083,0.864,0.591c0.292,0.368,0.175,1.062,0.175,1.062"/>
	
		<linearGradient id="SVGID_26_" gradientUnits="userSpaceOnUse" x1="-543.5015" y1="152.415" x2="-541.8711" y2="152.415" gradientTransform="matrix(1 0 0 1 568 -151)">
		<stop  offset="0" style="stop-color:#7E5B44"/>
		<stop  offset="0.9852" style="stop-color:#CC9966"/>
	</linearGradient>
	<path fill="none" stroke="url(#SVGID_26_)" stroke-width="0.75" stroke-miterlimit="10" d="M24.518,0.842
		c0,0,0.467,0.023,0.93,0.476c0.335,0.327,0.306,1.03,0.306,1.03"/>
	
		<linearGradient id="SVGID_27_" gradientUnits="userSpaceOnUse" x1="-545.1216" y1="152.4941" x2="-543.3262" y2="152.4941" gradientTransform="matrix(1 0 0 1 568 -151)">
		<stop  offset="0" style="stop-color:#7E5B44"/>
		<stop  offset="0.9852" style="stop-color:#CC9966"/>
	</linearGradient>
	<path fill="none" stroke="url(#SVGID_27_)" stroke-width="0.75" stroke-miterlimit="10" d="M22.903,0.992
		c0,0,0.467-0.031,0.978,0.365C24.25,1.643,24.3,2.346,24.3,2.346"/>
	
		<linearGradient id="SVGID_28_" gradientUnits="userSpaceOnUse" x1="-547.0352" y1="152.6758" x2="-545.0635" y2="152.6758" gradientTransform="matrix(1 0 0 1 568 -151)">
		<stop  offset="0" style="stop-color:#7E5B44"/>
		<stop  offset="0.9852" style="stop-color:#CC9966"/>
	</linearGradient>
	<path fill="none" stroke="url(#SVGID_28_)" stroke-width="0.75" stroke-miterlimit="10" d="M21.032,1.241
		c0,0,0.46-0.084,1.011,0.252c0.398,0.243,0.524,0.936,0.524,0.936"/>
	
		<linearGradient id="SVGID_29_" gradientUnits="userSpaceOnUse" x1="-548.7217" y1="152.9492" x2="-546.7505" y2="152.9492" gradientTransform="matrix(1 0 0 1 568 -151)">
		<stop  offset="0" style="stop-color:#7E5B44"/>
		<stop  offset="0.9852" style="stop-color:#CC9966"/>
	</linearGradient>
	<path fill="none" stroke="url(#SVGID_29_)" stroke-width="0.75" stroke-miterlimit="10" d="M19.346,1.514
		c0,0,0.461-0.083,1.011,0.252c0.398,0.244,0.524,0.936,0.524,0.936"/>
	
		<linearGradient id="SVGID_30_" gradientUnits="userSpaceOnUse" x1="-550.5874" y1="153.2959" x2="-548.4541" y2="153.2959" gradientTransform="matrix(1 0 0 1 568 -151)">
		<stop  offset="0" style="stop-color:#7E5B44"/>
		<stop  offset="0.9852" style="stop-color:#CC9966"/>
	</linearGradient>
	<path fill="none" stroke="url(#SVGID_30_)" stroke-width="0.75" stroke-miterlimit="10" d="M17.523,1.952
		c0,0,0.447-0.14,1.033,0.126c0.423,0.192,0.631,0.864,0.631,0.864"/>
	
		<linearGradient id="SVGID_31_" gradientUnits="userSpaceOnUse" x1="-552.1353" y1="153.7715" x2="-549.8906" y2="153.7715" gradientTransform="matrix(1 0 0 1 568 -151)">
		<stop  offset="0" style="stop-color:#7E5B44"/>
		<stop  offset="0.9852" style="stop-color:#CC9966"/>
	</linearGradient>
	<path fill="none" stroke="url(#SVGID_31_)" stroke-width="0.75" stroke-miterlimit="10" d="M16.011,2.514
		c0,0,0.432-0.184,1.041,0.023c0.44,0.149,0.711,0.797,0.711,0.797"/>
	
		<linearGradient id="SVGID_32_" gradientUnits="userSpaceOnUse" x1="-553.5288" y1="154.3652" x2="-551.2842" y2="154.3652" gradientTransform="matrix(1 0 0 1 568 -151)">
		<stop  offset="0" style="stop-color:#7E5B44"/>
		<stop  offset="0.9852" style="stop-color:#CC9966"/>
	</linearGradient>
	<path fill="none" stroke="url(#SVGID_32_)" stroke-width="0.75" stroke-miterlimit="10" d="M14.618,3.107
		c0,0,0.432-0.184,1.041,0.022c0.44,0.149,0.711,0.797,0.711,0.797"/>
	
		<linearGradient id="SVGID_33_" gradientUnits="userSpaceOnUse" x1="-554.7646" y1="154.998" x2="-552.4644" y2="154.998" gradientTransform="matrix(1 0 0 1 568 -151)">
		<stop  offset="0" style="stop-color:#7E5B44"/>
		<stop  offset="0.9852" style="stop-color:#CC9966"/>
	</linearGradient>
	<path fill="none" stroke="url(#SVGID_33_)" stroke-width="0.75" stroke-miterlimit="10" d="M13.402,3.799c0,0,0.42-0.209,1.04-0.04
		c0.449,0.123,0.757,0.753,0.757,0.753"/>
	
		<linearGradient id="SVGID_34_" gradientUnits="userSpaceOnUse" x1="-556.1948" y1="155.6523" x2="-553.8174" y2="155.6523" gradientTransform="matrix(1 0 0 1 568 -151)">
		<stop  offset="0" style="stop-color:#7E5B44"/>
		<stop  offset="0.9852" style="stop-color:#CC9966"/>
	</linearGradient>
	<path fill="none" stroke="url(#SVGID_34_)" stroke-width="0.75" stroke-miterlimit="10" d="M12.006,4.566
		c0,0,0.397-0.252,1.031-0.148c0.458,0.076,0.828,0.67,0.828,0.67"/>
	
		<linearGradient id="SVGID_35_" gradientUnits="userSpaceOnUse" x1="-557.4502" y1="156.4404" x2="-555.0298" y2="156.4404" gradientTransform="matrix(1 0 0 1 568 -151)">
		<stop  offset="0" style="stop-color:#7E5B44"/>
		<stop  offset="0.9852" style="stop-color:#CC9966"/>
	</linearGradient>
	<path fill="none" stroke="url(#SVGID_35_)" stroke-width="0.75" stroke-miterlimit="10" d="M10.775,5.447
		c0,0,0.377-0.283,1.017-0.229c0.462,0.04,0.875,0.604,0.875,0.604"/>
	
		<linearGradient id="SVGID_36_" gradientUnits="userSpaceOnUse" x1="-558.7979" y1="157.3662" x2="-556.3779" y2="157.3662" gradientTransform="matrix(1 0 0 1 568 -151)">
		<stop  offset="0" style="stop-color:#7E5B44"/>
		<stop  offset="0.9852" style="stop-color:#CC9966"/>
	</linearGradient>
	<path fill="none" stroke="url(#SVGID_36_)" stroke-width="0.75" stroke-miterlimit="10" d="M9.427,6.373
		c0,0,0.376-0.282,1.016-0.228c0.462,0.039,0.876,0.604,0.876,0.604"/>
	
		<linearGradient id="SVGID_37_" gradientUnits="userSpaceOnUse" x1="-559.7764" y1="158.1631" x2="-557.3359" y2="158.1631" gradientTransform="matrix(1 0 0 1 568 -151)">
		<stop  offset="0" style="stop-color:#7E5B44"/>
		<stop  offset="0.9852" style="stop-color:#CC9966"/>
	</linearGradient>
	<path fill="none" stroke="url(#SVGID_37_)" stroke-width="0.75" stroke-miterlimit="10" d="M8.464,7.236
		c0,0,0.362-0.302,1.003-0.282c0.464,0.014,0.906,0.557,0.906,0.557"/>
	
		<linearGradient id="SVGID_38_" gradientUnits="userSpaceOnUse" x1="-560.7554" y1="159.0391" x2="-558.2998" y2="159.0391" gradientTransform="matrix(1 0 0 1 568 -151)">
		<stop  offset="0" style="stop-color:#7E5B44"/>
		<stop  offset="0.9852" style="stop-color:#CC9966"/>
	</linearGradient>
	<path fill="none" stroke="url(#SVGID_38_)" stroke-width="0.75" stroke-miterlimit="10" d="M7.503,8.2c0,0,0.342-0.326,0.983-0.349
		c0.463-0.017,0.94,0.494,0.94,0.494"/>
	
		<linearGradient id="SVGID_39_" gradientUnits="userSpaceOnUse" x1="-561.8584" y1="160.1035" x2="-559.3979" y2="160.1035" gradientTransform="matrix(1 0 0 1 568 -151)">
		<stop  offset="0" style="stop-color:#7E5B44"/>
		<stop  offset="0.9852" style="stop-color:#CC9966"/>
	</linearGradient>
	<path fill="none" stroke="url(#SVGID_39_)" stroke-width="0.75" stroke-miterlimit="10" d="M6.426,9.394
		c0,0,0.309-0.358,0.945-0.444c0.46-0.062,0.983,0.398,0.983,0.398"/>
	
		<linearGradient id="SVGID_40_" gradientUnits="userSpaceOnUse" x1="-562.6714" y1="161.0576" x2="-560.2114" y2="161.0576" gradientTransform="matrix(1 0 0 1 568 -151)">
		<stop  offset="0" style="stop-color:#7E5B44"/>
		<stop  offset="0.9852" style="stop-color:#CC9966"/>
	</linearGradient>
	<path fill="none" stroke="url(#SVGID_40_)" stroke-width="0.75" stroke-miterlimit="10" d="M5.612,10.348
		c0,0,0.31-0.358,0.945-0.444c0.46-0.062,0.983,0.399,0.983,0.399"/>
	
		<linearGradient id="SVGID_41_" gradientUnits="userSpaceOnUse" x1="-563.5122" y1="162.3477" x2="-561.0522" y2="162.3477" gradientTransform="matrix(1 0 0 1 568 -151)">
		<stop  offset="0" style="stop-color:#7E5B44"/>
		<stop  offset="0.9852" style="stop-color:#CC9966"/>
	</linearGradient>
	<path fill="none" stroke="url(#SVGID_41_)" stroke-width="0.75" stroke-miterlimit="10" d="M4.771,11.638
		c0,0,0.309-0.357,0.945-0.444c0.46-0.062,0.983,0.399,0.983,0.399"/>
	
		<linearGradient id="SVGID_42_" gradientUnits="userSpaceOnUse" x1="-564.394" y1="163.6816" x2="-561.9565" y2="163.6816" gradientTransform="matrix(1 0 0 1 568 -151)">
		<stop  offset="0" style="stop-color:#7E5B44"/>
		<stop  offset="0.9852" style="stop-color:#CC9966"/>
	</linearGradient>
	<path fill="none" stroke="url(#SVGID_42_)" stroke-width="0.75" stroke-miterlimit="10" d="M3.914,13.043
		c0,0,0.271-0.389,0.895-0.543c0.451-0.11,1.019,0.292,1.019,0.292"/>
	
		<linearGradient id="SVGID_43_" gradientUnits="userSpaceOnUse" x1="-565.1479" y1="164.8975" x2="-562.7334" y2="164.8975" gradientTransform="matrix(1 0 0 1 568 -151)">
		<stop  offset="0" style="stop-color:#7E5B44"/>
		<stop  offset="0.9852" style="stop-color:#CC9966"/>
	</linearGradient>
	<path fill="none" stroke="url(#SVGID_43_)" stroke-width="0.75" stroke-miterlimit="10" d="M3.171,14.298
		c0,0,0.249-0.404,0.863-0.592c0.444-0.137,1.033,0.234,1.033,0.234"/>
	
		<linearGradient id="SVGID_44_" gradientUnits="userSpaceOnUse" x1="-565.7632" y1="166.4395" x2="-563.377" y2="166.4395" gradientTransform="matrix(1 0 0 1 568 -151)">
		<stop  offset="0" style="stop-color:#7E5B44"/>
		<stop  offset="0.9852" style="stop-color:#CC9966"/>
	</linearGradient>
	<path fill="none" stroke="url(#SVGID_44_)" stroke-width="0.75" stroke-miterlimit="10" d="M2.565,15.876
		c0,0,0.228-0.416,0.832-0.637c0.437-0.16,1.043,0.179,1.043,0.179"/>
	
		<linearGradient id="SVGID_45_" gradientUnits="userSpaceOnUse" x1="-566.2998" y1="167.9219" x2="-563.9517" y2="167.9219" gradientTransform="matrix(1 0 0 1 568 -151)">
		<stop  offset="0" style="stop-color:#7E5B44"/>
		<stop  offset="0.9852" style="stop-color:#CC9966"/>
	</linearGradient>
	<path fill="none" stroke="url(#SVGID_45_)" stroke-width="0.75" stroke-miterlimit="10" d="M2.039,17.4
		c0,0,0.204-0.429,0.794-0.684c0.427-0.185,1.051,0.118,1.051,0.118"/>
	
		<linearGradient id="SVGID_46_" gradientUnits="userSpaceOnUse" x1="-566.7368" y1="169.2773" x2="-564.4478" y2="169.2773" gradientTransform="matrix(1 0 0 1 568 -151)">
		<stop  offset="0" style="stop-color:#7E5B44"/>
		<stop  offset="0.9852" style="stop-color:#CC9966"/>
	</linearGradient>
	<path fill="none" stroke="url(#SVGID_46_)" stroke-width="0.75" stroke-miterlimit="10" d="M1.613,18.81
		c0,0,0.173-0.443,0.744-0.741c0.413-0.216,1.057,0.04,1.057,0.04"/>
	
		<linearGradient id="SVGID_47_" gradientUnits="userSpaceOnUse" x1="-567.1777" y1="170.9023" x2="-564.9067" y2="170.9023" gradientTransform="matrix(1 0 0 1 568 -151)">
		<stop  offset="0" style="stop-color:#7E5B44"/>
		<stop  offset="0.9852" style="stop-color:#CC9966"/>
	</linearGradient>
	<path fill="none" stroke="url(#SVGID_47_)" stroke-width="0.75" stroke-miterlimit="10" d="M1.174,20.451
		c0,0,0.165-0.447,0.73-0.756c0.408-0.224,1.058,0.02,1.058,0.02"/>
	
		<linearGradient id="SVGID_48_" gradientUnits="userSpaceOnUse" x1="-567.4814" y1="172.6055" x2="-565.3491" y2="172.6055" gradientTransform="matrix(1 0 0 1 568 -151)">
		<stop  offset="0" style="stop-color:#7E5B44"/>
		<stop  offset="0.9852" style="stop-color:#CC9966"/>
	</linearGradient>
	<path fill="none" stroke="url(#SVGID_48_)" stroke-width="0.75" stroke-miterlimit="10" d="M0.884,22.254
		c0,0,0.108-0.464,0.629-0.844c0.377-0.275,1.052-0.118,1.052-0.118"/>
	
		<linearGradient id="SVGID_49_" gradientUnits="userSpaceOnUse" x1="-567.5503" y1="174.0898" x2="-565.394" y2="174.0898" gradientTransform="matrix(1 0 0 1 568 -151)">
		<stop  offset="0" style="stop-color:#7E5B44"/>
		<stop  offset="0.9852" style="stop-color:#CC9966"/>
	</linearGradient>
	<path fill="none" stroke="url(#SVGID_49_)" stroke-width="0.75" stroke-miterlimit="10" d="M0.813,23.721
		c0,0,0.117-0.461,0.646-0.831c0.382-0.267,1.054-0.095,1.054-0.095"/>
	
		<linearGradient id="SVGID_50_" gradientUnits="userSpaceOnUse" x1="-567.4961" y1="177.5801" x2="-565.6665" y2="177.5801" gradientTransform="matrix(1 0 0 1 568 -151)">
		<stop  offset="0" style="stop-color:#7E5B44"/>
		<stop  offset="0.9852" style="stop-color:#CC9966"/>
	</linearGradient>
	<path fill="none" stroke="url(#SVGID_50_)" stroke-width="0.75" stroke-miterlimit="10" d="M0.879,27.411
		c0,0,0.011-0.477,0.443-0.958c0.313-0.349,1.005-0.337,1.005-0.337"/>
	
		<linearGradient id="SVGID_51_" gradientUnits="userSpaceOnUse" x1="-567.5942" y1="175.6738" x2="-565.4902" y2="175.6738" gradientTransform="matrix(1 0 0 1 568 -151)">
		<stop  offset="0" style="stop-color:#7E5B44"/>
		<stop  offset="0.9852" style="stop-color:#CC9966"/>
	</linearGradient>
	<path fill="none" stroke="url(#SVGID_51_)" stroke-width="0.75" stroke-miterlimit="10" d="M0.773,25.341
		c0,0,0.098-0.466,0.611-0.858c0.371-0.284,1.049-0.141,1.049-0.141"/>
	
		<linearGradient id="SVGID_52_" gradientUnits="userSpaceOnUse" x1="-567.2661" y1="179.3457" x2="-565.4751" y2="179.3457" gradientTransform="matrix(1 0 0 1 568 -151)">
		<stop  offset="0" style="stop-color:#7E5B44"/>
		<stop  offset="0.9852" style="stop-color:#CC9966"/>
	</linearGradient>
	<path fill="none" stroke="url(#SVGID_52_)" stroke-width="0.75" stroke-miterlimit="10" d="M1.109,29.2
		c0,0-0.002-0.477,0.417-0.971c0.303-0.358,0.995-0.366,0.995-0.366"/>
	
		<linearGradient id="SVGID_53_" gradientUnits="userSpaceOnUse" x1="-566.9341" y1="180.6855" x2="-565.2554" y2="180.6855" gradientTransform="matrix(1 0 0 1 568 -151)">
		<stop  offset="0" style="stop-color:#7E5B44"/>
		<stop  offset="0.9852" style="stop-color:#CC9966"/>
	</linearGradient>
	<path fill="none" stroke="url(#SVGID_53_)" stroke-width="0.75" stroke-miterlimit="10" d="M1.444,30.597
		c0,0-0.056-0.474,0.305-1.014c0.261-0.391,0.948-0.479,0.948-0.479"/>
	
		<linearGradient id="SVGID_54_" gradientUnits="userSpaceOnUse" x1="-566.4253" y1="182.2012" x2="-564.896" y2="182.2012" gradientTransform="matrix(1 0 0 1 568 -151)">
		<stop  offset="0" style="stop-color:#7E5B44"/>
		<stop  offset="0.9852" style="stop-color:#CC9966"/>
	</linearGradient>
	<path fill="none" stroke="url(#SVGID_54_)" stroke-width="0.75" stroke-miterlimit="10" d="M1.977,32.165
		c0,0-0.124-0.46,0.155-1.048C2.334,30.693,3,30.501,3,30.501"/>
	
		<linearGradient id="SVGID_55_" gradientUnits="userSpaceOnUse" x1="-566.0156" y1="183.5576" x2="-564.5952" y2="183.5576" gradientTransform="matrix(1 0 0 1 568 -151)">
		<stop  offset="0" style="stop-color:#7E5B44"/>
		<stop  offset="0.9852" style="stop-color:#CC9966"/>
	</linearGradient>
	<path fill="none" stroke="url(#SVGID_55_)" stroke-width="0.75" stroke-miterlimit="10" d="M2.425,33.547
		c0,0-0.173-0.442,0.041-1.059c0.155-0.445,0.796-0.71,0.796-0.71"/>
	
		<linearGradient id="SVGID_56_" gradientUnits="userSpaceOnUse" x1="-565.5342" y1="184.7969" x2="-564.1143" y2="184.7969" gradientTransform="matrix(1 0 0 1 568 -151)">
		<stop  offset="0" style="stop-color:#7E5B44"/>
		<stop  offset="0.9852" style="stop-color:#CC9966"/>
	</linearGradient>
	<path fill="none" stroke="url(#SVGID_56_)" stroke-width="0.75" stroke-miterlimit="10" d="M2.907,34.786
		c0,0-0.173-0.443,0.041-1.06c0.154-0.445,0.795-0.709,0.795-0.709"/>
	
		<linearGradient id="SVGID_57_" gradientUnits="userSpaceOnUse" x1="-564.8828" y1="186.165" x2="-563.5723" y2="186.165" gradientTransform="matrix(1 0 0 1 568 -151)">
		<stop  offset="0" style="stop-color:#7E5B44"/>
		<stop  offset="0.9852" style="stop-color:#CC9966"/>
	</linearGradient>
	<path fill="none" stroke="url(#SVGID_57_)" stroke-width="0.75" stroke-miterlimit="10" d="M3.622,36.169
		c0,0-0.224-0.419-0.084-1.057c0.1-0.46,0.706-0.801,0.706-0.801"/>
	
		<linearGradient id="SVGID_58_" gradientUnits="userSpaceOnUse" x1="-564.1597" y1="187.6211" x2="-562.9292" y2="187.6211" gradientTransform="matrix(1 0 0 1 568 -151)">
		<stop  offset="0" style="stop-color:#7E5B44"/>
		<stop  offset="0.9852" style="stop-color:#CC9966"/>
	</linearGradient>
	<path fill="none" stroke="url(#SVGID_58_)" stroke-width="0.75" stroke-miterlimit="10" d="M4.416,37.626
		c0,0-0.263-0.395-0.187-1.043c0.056-0.468,0.625-0.868,0.625-0.868"/>
	
		<linearGradient id="SVGID_59_" gradientUnits="userSpaceOnUse" x1="-563.4038" y1="188.8428" x2="-562.1733" y2="188.8428" gradientTransform="matrix(1 0 0 1 568 -151)">
		<stop  offset="0" style="stop-color:#7E5B44"/>
		<stop  offset="0.9852" style="stop-color:#CC9966"/>
	</linearGradient>
	<path fill="none" stroke="url(#SVGID_59_)" stroke-width="0.75" stroke-miterlimit="10" d="M5.171,38.849
		c0,0-0.263-0.395-0.186-1.043c0.056-0.47,0.625-0.87,0.625-0.87"/>
	
		<linearGradient id="SVGID_60_" gradientUnits="userSpaceOnUse" x1="-562.6045" y1="189.9609" x2="-561.4185" y2="189.9609" gradientTransform="matrix(1 0 0 1 568 -151)">
		<stop  offset="0" style="stop-color:#7E5B44"/>
		<stop  offset="0.9852" style="stop-color:#CC9966"/>
	</linearGradient>
	<path fill="none" stroke="url(#SVGID_60_)" stroke-width="0.75" stroke-miterlimit="10" d="M6.021,39.962
		c0,0-0.286-0.377-0.246-1.029c0.028-0.472,0.574-0.905,0.574-0.905"/>
	
		<linearGradient id="SVGID_61_" gradientUnits="userSpaceOnUse" x1="-561.7856" y1="191.1035" x2="-560.668" y2="191.1035" gradientTransform="matrix(1 0 0 1 568 -151)">
		<stop  offset="0" style="stop-color:#7E5B44"/>
		<stop  offset="0.9852" style="stop-color:#CC9966"/>
	</linearGradient>
	<path fill="none" stroke="url(#SVGID_61_)" stroke-width="0.75" stroke-miterlimit="10" d="M6.938,41.089
		c0,0-0.321-0.346-0.348-0.999c-0.019-0.472,0.48-0.96,0.48-0.96"/>
	
		<linearGradient id="SVGID_62_" gradientUnits="userSpaceOnUse" x1="-560.9331" y1="192.0879" x2="-559.8652" y2="192.0879" gradientTransform="matrix(1 0 0 1 568 -151)">
		<stop  offset="0" style="stop-color:#7E5B44"/>
		<stop  offset="0.9852" style="stop-color:#CC9966"/>
	</linearGradient>
	<path fill="none" stroke="url(#SVGID_62_)" stroke-width="0.75" stroke-miterlimit="10" d="M7.869,42.055
		c0,0-0.347-0.319-0.422-0.969c-0.055-0.468,0.406-0.994,0.406-0.994"/>
	
		<linearGradient id="SVGID_63_" gradientUnits="userSpaceOnUse" x1="-559.9873" y1="193.0547" x2="-558.9204" y2="193.0547" gradientTransform="matrix(1 0 0 1 568 -151)">
		<stop  offset="0" style="stop-color:#7E5B44"/>
		<stop  offset="0.9852" style="stop-color:#CC9966"/>
	</linearGradient>
	<path fill="none" stroke="url(#SVGID_63_)" stroke-width="0.75" stroke-miterlimit="10" d="M8.815,43.021
		c0,0-0.348-0.319-0.423-0.968c-0.055-0.47,0.406-0.994,0.406-0.994"/>
	
		<linearGradient id="SVGID_64_" gradientUnits="userSpaceOnUse" x1="-558.9312" y1="194.0303" x2="-557.8354" y2="194.0303" gradientTransform="matrix(1 0 0 1 568 -151)">
		<stop  offset="0" style="stop-color:#7E5B44"/>
		<stop  offset="0.9852" style="stop-color:#CC9966"/>
	</linearGradient>
	<path fill="none" stroke="url(#SVGID_64_)" stroke-width="0.75" stroke-miterlimit="10" d="M9.925,43.981
		c0,0-0.363-0.301-0.472-0.944c-0.078-0.466,0.355-1.015,0.355-1.015"/>
	
		<linearGradient id="SVGID_65_" gradientUnits="userSpaceOnUse" x1="-557.7178" y1="195.0078" x2="-556.5718" y2="195.0078" gradientTransform="matrix(1 0 0 1 568 -151)">
		<stop  offset="0" style="stop-color:#7E5B44"/>
		<stop  offset="0.9852" style="stop-color:#CC9966"/>
	</linearGradient>
	<path fill="none" stroke="url(#SVGID_65_)" stroke-width="0.75" stroke-miterlimit="10" d="M11.208,44.937
		c0,0-0.382-0.276-0.532-0.911c-0.108-0.46,0.288-1.036,0.288-1.036"/>
	
		<linearGradient id="SVGID_66_" gradientUnits="userSpaceOnUse" x1="-556.6357" y1="195.832" x2="-555.4155" y2="195.832" gradientTransform="matrix(1 0 0 1 568 -151)">
		<stop  offset="0" style="stop-color:#7E5B44"/>
		<stop  offset="0.9852" style="stop-color:#CC9966"/>
	</linearGradient>
	<path fill="none" stroke="url(#SVGID_66_)" stroke-width="0.75" stroke-miterlimit="10" d="M12.395,45.719
		c0,0-0.407-0.238-0.617-0.854c-0.151-0.446,0.188-1.061,0.188-1.061"/>
	
		<linearGradient id="SVGID_67_" gradientUnits="userSpaceOnUse" x1="-555.3867" y1="196.5518" x2="-554.168" y2="196.5518" gradientTransform="matrix(1 0 0 1 568 -151)">
		<stop  offset="0" style="stop-color:#7E5B44"/>
		<stop  offset="0.9852" style="stop-color:#CC9966"/>
	</linearGradient>
	<path fill="none" stroke="url(#SVGID_67_)" stroke-width="0.75" stroke-miterlimit="10" d="M13.643,46.438
		c0,0-0.406-0.236-0.616-0.854c-0.152-0.446,0.188-1.061,0.188-1.061"/>
	
		<linearGradient id="SVGID_68_" gradientUnits="userSpaceOnUse" x1="-554.146" y1="197.1816" x2="-552.9272" y2="197.1816" gradientTransform="matrix(1 0 0 1 568 -151)">
		<stop  offset="0" style="stop-color:#7E5B44"/>
		<stop  offset="0.9852" style="stop-color:#CC9966"/>
	</linearGradient>
	<path fill="none" stroke="url(#SVGID_68_)" stroke-width="0.75" stroke-miterlimit="10" d="M14.884,47.066
		c0,0-0.406-0.236-0.617-0.853c-0.151-0.447,0.188-1.061,0.188-1.061"/>
	
		<linearGradient id="SVGID_69_" gradientUnits="userSpaceOnUse" x1="-552.9629" y1="197.7676" x2="-551.6621" y2="197.7676" gradientTransform="matrix(1 0 0 1 568 -151)">
		<stop  offset="0" style="stop-color:#7E5B44"/>
		<stop  offset="0.9852" style="stop-color:#CC9966"/>
	</linearGradient>
	<path fill="none" stroke="url(#SVGID_69_)" stroke-width="0.75" stroke-miterlimit="10" d="M16.184,47.599
		c0,0-0.428-0.192-0.701-0.783c-0.197-0.429,0.078-1.075,0.078-1.075"/>
	
		<linearGradient id="SVGID_70_" gradientUnits="userSpaceOnUse" x1="-551.5869" y1="198.3291" x2="-550.2422" y2="198.3291" gradientTransform="matrix(1 0 0 1 568 -151)">
		<stop  offset="0" style="stop-color:#7E5B44"/>
		<stop  offset="0.9852" style="stop-color:#CC9966"/>
	</linearGradient>
	<path fill="none" stroke="url(#SVGID_70_)" stroke-width="0.75" stroke-miterlimit="10" d="M17.624,48.127
		c0,0-0.438-0.168-0.742-0.742c-0.22-0.416,0.019-1.077,0.019-1.077"/>
	
		<linearGradient id="SVGID_71_" gradientUnits="userSpaceOnUse" x1="-550.1108" y1="198.792" x2="-548.7236" y2="198.792" gradientTransform="matrix(1 0 0 1 568 -151)">
		<stop  offset="0" style="stop-color:#7E5B44"/>
		<stop  offset="0.9852" style="stop-color:#CC9966"/>
	</linearGradient>
	<path fill="none" stroke="url(#SVGID_71_)" stroke-width="0.75" stroke-miterlimit="10" d="M19.161,48.559
		c0,0-0.446-0.145-0.779-0.703c-0.241-0.403-0.036-1.077-0.036-1.077"/>
	
		<linearGradient id="SVGID_72_" gradientUnits="userSpaceOnUse" x1="-548.7344" y1="199.1162" x2="-547.2993" y2="199.1162" gradientTransform="matrix(1 0 0 1 568 -151)">
		<stop  offset="0" style="stop-color:#7E5B44"/>
		<stop  offset="0.9852" style="stop-color:#CC9966"/>
	</linearGradient>
	<path fill="none" stroke="url(#SVGID_72_)" stroke-width="0.75" stroke-miterlimit="10" d="M20.607,48.843
		c0,0-0.453-0.117-0.817-0.655c-0.264-0.389-0.097-1.072-0.097-1.072"/>
	
		<linearGradient id="SVGID_73_" gradientUnits="userSpaceOnUse" x1="-547.1543" y1="199.415" x2="-545.6533" y2="199.415" gradientTransform="matrix(1 0 0 1 568 -151)">
		<stop  offset="0" style="stop-color:#7E5B44"/>
		<stop  offset="0.9852" style="stop-color:#CC9966"/>
	</linearGradient>
	<path fill="none" stroke="url(#SVGID_73_)" stroke-width="0.75" stroke-miterlimit="10" d="M22.279,49.09
		c0,0-0.461-0.084-0.862-0.594c-0.291-0.368-0.173-1.062-0.173-1.062"/>
	
		<linearGradient id="SVGID_74_" gradientUnits="userSpaceOnUse" x1="-545.5273" y1="199.582" x2="-544.0088" y2="199.582" gradientTransform="matrix(1 0 0 1 568 -151)">
		<stop  offset="0" style="stop-color:#7E5B44"/>
		<stop  offset="0.9852" style="stop-color:#CC9966"/>
	</linearGradient>
	<path fill="none" stroke="url(#SVGID_74_)" stroke-width="0.75" stroke-miterlimit="10" d="M23.931,49.242
		c0,0-0.462-0.075-0.873-0.576c-0.297-0.362-0.193-1.059-0.193-1.059"/>
	
		<linearGradient id="SVGID_75_" gradientUnits="userSpaceOnUse" x1="-543.9956" y1="199.6543" x2="-542.3467" y2="199.6543" gradientTransform="matrix(1 0 0 1 568 -151)">
		<stop  offset="0" style="stop-color:#7E5B44"/>
		<stop  offset="0.9852" style="stop-color:#CC9966"/>
	</linearGradient>
	<path fill="none" stroke="url(#SVGID_75_)" stroke-width="0.75" stroke-miterlimit="10" d="M25.641,49.215
		c0,0-0.469-0.016-0.938-0.46c-0.34-0.321-0.323-1.026-0.323-1.026"/>
	
		<linearGradient id="SVGID_76_" gradientUnits="userSpaceOnUse" x1="-542.5405" y1="199.543" x2="-540.7178" y2="199.543" gradientTransform="matrix(1 0 0 1 568 -151)">
		<stop  offset="0" style="stop-color:#7E5B44"/>
		<stop  offset="0.9852" style="stop-color:#CC9966"/>
	</linearGradient>
	<path fill="none" stroke="url(#SVGID_76_)" stroke-width="0.75" stroke-miterlimit="10" d="M27.251,49.037
		c0,0-0.466,0.039-0.983-0.348c-0.374-0.28-0.435-0.982-0.435-0.982"/>
	
		<linearGradient id="SVGID_77_" gradientUnits="userSpaceOnUse" x1="-540.8042" y1="199.333" x2="-538.8076" y2="199.333" gradientTransform="matrix(1 0 0 1 568 -151)">
		<stop  offset="0" style="stop-color:#7E5B44"/>
		<stop  offset="0.9852" style="stop-color:#CC9966"/>
	</linearGradient>
	<path fill="none" stroke="url(#SVGID_77_)" stroke-width="0.75" stroke-miterlimit="10" d="M29.119,48.757
		c0,0-0.46,0.092-1.016-0.234c-0.402-0.236-0.54-0.927-0.54-0.927"/>
	
		<linearGradient id="SVGID_78_" gradientUnits="userSpaceOnUse" x1="-539.1216" y1="199.0312" x2="-537.126" y2="199.0312" gradientTransform="matrix(1 0 0 1 568 -151)">
		<stop  offset="0" style="stop-color:#7E5B44"/>
		<stop  offset="0.9852" style="stop-color:#CC9966"/>
	</linearGradient>
	<path fill="none" stroke="url(#SVGID_78_)" stroke-width="0.75" stroke-miterlimit="10" d="M30.8,48.455
		c0,0-0.459,0.093-1.015-0.234c-0.402-0.236-0.539-0.927-0.539-0.927"/>
	
		<linearGradient id="SVGID_79_" gradientUnits="userSpaceOnUse" x1="-537.4209" y1="198.6562" x2="-535.2671" y2="198.6562" gradientTransform="matrix(1 0 0 1 568 -151)">
		<stop  offset="0" style="stop-color:#7E5B44"/>
		<stop  offset="0.9852" style="stop-color:#CC9966"/>
	</linearGradient>
	<path fill="none" stroke="url(#SVGID_79_)" stroke-width="0.75" stroke-miterlimit="10" d="M32.615,47.988
		c0,0-0.445,0.147-1.035-0.109c-0.427-0.186-0.645-0.854-0.645-0.854"/>
	
		<linearGradient id="SVGID_80_" gradientUnits="userSpaceOnUse" x1="-535.9907" y1="198.1592" x2="-533.7295" y2="198.1592" gradientTransform="matrix(1 0 0 1 568 -151)">
		<stop  offset="0" style="stop-color:#7E5B44"/>
		<stop  offset="0.9852" style="stop-color:#CC9966"/>
	</linearGradient>
	<path fill="none" stroke="url(#SVGID_80_)" stroke-width="0.75" stroke-miterlimit="10" d="M34.118,47.4
		c0,0-0.429,0.19-1.041-0.005c-0.442-0.142-0.725-0.785-0.725-0.785"/>
	
		<linearGradient id="SVGID_81_" gradientUnits="userSpaceOnUse" x1="-534.6069" y1="197.543" x2="-532.3452" y2="197.543" gradientTransform="matrix(1 0 0 1 568 -151)">
		<stop  offset="0" style="stop-color:#7E5B44"/>
		<stop  offset="0.9852" style="stop-color:#CC9966"/>
	</linearGradient>
	<path fill="none" stroke="url(#SVGID_81_)" stroke-width="0.75" stroke-miterlimit="10" d="M35.502,46.783
		c0,0-0.429,0.191-1.041-0.005c-0.442-0.142-0.725-0.785-0.725-0.785"/>
	
		<linearGradient id="SVGID_82_" gradientUnits="userSpaceOnUse" x1="-533.4365" y1="196.8906" x2="-531.1221" y2="196.8906" gradientTransform="matrix(1 0 0 1 568 -151)">
		<stop  offset="0" style="stop-color:#7E5B44"/>
		<stop  offset="0.9852" style="stop-color:#CC9966"/>
	</linearGradient>
	<path fill="none" stroke="url(#SVGID_82_)" stroke-width="0.75" stroke-miterlimit="10" d="M36.705,46.072
		c0,0-0.416,0.216-1.039,0.057c-0.45-0.115-0.769-0.74-0.769-0.74"/>
	
		<linearGradient id="SVGID_83_" gradientUnits="userSpaceOnUse" x1="-532.0928" y1="196.2148" x2="-529.7041" y2="196.2148" gradientTransform="matrix(1 0 0 1 568 -151)">
		<stop  offset="0" style="stop-color:#7E5B44"/>
		<stop  offset="0.9852" style="stop-color:#CC9966"/>
	</linearGradient>
	<path fill="none" stroke="url(#SVGID_83_)" stroke-width="0.75" stroke-miterlimit="10" d="M38.09,45.281
		c0,0-0.394,0.259-1.028,0.166c-0.46-0.068-0.839-0.657-0.839-0.657"/>
	
		<linearGradient id="SVGID_84_" gradientUnits="userSpaceOnUse" x1="-530.8911" y1="195.4082" x2="-528.4639" y2="195.4082" gradientTransform="matrix(1 0 0 1 568 -151)">
		<stop  offset="0" style="stop-color:#7E5B44"/>
		<stop  offset="0.9852" style="stop-color:#CC9966"/>
	</linearGradient>
	<path fill="none" stroke="url(#SVGID_84_)" stroke-width="0.75" stroke-miterlimit="10" d="M39.307,44.381
		c0,0-0.373,0.289-1.014,0.245c-0.462-0.031-0.886-0.589-0.886-0.589"/>
	
		<linearGradient id="SVGID_85_" gradientUnits="userSpaceOnUse" x1="-529.5576" y1="194.459" x2="-527.1309" y2="194.459" gradientTransform="matrix(1 0 0 1 568 -151)">
		<stop  offset="0" style="stop-color:#7E5B44"/>
		<stop  offset="0.9852" style="stop-color:#CC9966"/>
	</linearGradient>
	<path fill="none" stroke="url(#SVGID_85_)" stroke-width="0.75" stroke-miterlimit="10" d="M40.64,43.432
		c0,0-0.373,0.289-1.013,0.245c-0.464-0.03-0.886-0.588-0.886-0.588"/>
	
		<linearGradient id="SVGID_86_" gradientUnits="userSpaceOnUse" x1="-528.6128" y1="193.6475" x2="-526.1675" y2="193.6475" gradientTransform="matrix(1 0 0 1 568 -151)">
		<stop  offset="0" style="stop-color:#7E5B44"/>
		<stop  offset="0.9852" style="stop-color:#CC9966"/>
	</linearGradient>
	<path fill="none" stroke="url(#SVGID_86_)" stroke-width="0.75" stroke-miterlimit="10" d="M41.588,42.554
		c0,0-0.357,0.308-0.998,0.298c-0.465-0.006-0.916-0.541-0.916-0.541"/>
	
		<linearGradient id="SVGID_87_" gradientUnits="userSpaceOnUse" x1="-527.6616" y1="192.7578" x2="-525.2041" y2="192.7578" gradientTransform="matrix(1 0 0 1 568 -151)">
		<stop  offset="0" style="stop-color:#7E5B44"/>
		<stop  offset="0.9852" style="stop-color:#CC9966"/>
	</linearGradient>
	<path fill="none" stroke="url(#SVGID_87_)" stroke-width="0.75" stroke-miterlimit="10" d="M42.533,41.574
		c0,0-0.336,0.33-0.978,0.365c-0.463,0.023-0.947-0.479-0.947-0.479"/>
	
		<linearGradient id="SVGID_88_" gradientUnits="userSpaceOnUse" x1="-526.5796" y1="191.6641" x2="-524.1216" y2="191.6641" gradientTransform="matrix(1 0 0 1 568 -151)">
		<stop  offset="0" style="stop-color:#7E5B44"/>
		<stop  offset="0.9852" style="stop-color:#CC9966"/>
	</linearGradient>
	<path fill="none" stroke="url(#SVGID_88_)" stroke-width="0.75" stroke-miterlimit="10" d="M43.591,40.362
		c0,0-0.303,0.362-0.938,0.46c-0.458,0.07-0.988-0.383-0.988-0.383"/>
	
		<linearGradient id="SVGID_89_" gradientUnits="userSpaceOnUse" x1="-525.7812" y1="190.6953" x2="-523.3232" y2="190.6953" gradientTransform="matrix(1 0 0 1 568 -151)">
		<stop  offset="0" style="stop-color:#7E5B44"/>
		<stop  offset="0.9852" style="stop-color:#CC9966"/>
	</linearGradient>
	<path fill="none" stroke="url(#SVGID_89_)" stroke-width="0.75" stroke-miterlimit="10" d="M44.389,39.395
		c0,0-0.303,0.363-0.938,0.46c-0.459,0.07-0.989-0.382-0.989-0.382"/>
	
		<linearGradient id="SVGID_90_" gradientUnits="userSpaceOnUse" x1="-524.96" y1="189.3916" x2="-522.5024" y2="189.3916" gradientTransform="matrix(1 0 0 1 568 -151)">
		<stop  offset="0" style="stop-color:#7E5B44"/>
		<stop  offset="0.9852" style="stop-color:#CC9966"/>
	</linearGradient>
	<path fill="none" stroke="url(#SVGID_90_)" stroke-width="0.75" stroke-miterlimit="10" d="M45.209,38.09
		c0,0-0.303,0.364-0.938,0.461c-0.459,0.069-0.988-0.382-0.988-0.382"/>
	
		<linearGradient id="SVGID_91_" gradientUnits="userSpaceOnUse" x1="-524.0757" y1="188.0439" x2="-521.645" y2="188.0439" gradientTransform="matrix(1 0 0 1 568 -151)">
		<stop  offset="0" style="stop-color:#7E5B44"/>
		<stop  offset="0.9852" style="stop-color:#CC9966"/>
	</linearGradient>
	<path fill="none" stroke="url(#SVGID_91_)" stroke-width="0.75" stroke-miterlimit="10" d="M46.044,36.671
		c0,0-0.265,0.394-0.885,0.558c-0.45,0.118-1.022-0.275-1.022-0.275"/>
	
		<linearGradient id="SVGID_92_" gradientUnits="userSpaceOnUse" x1="-523.3174" y1="186.8164" x2="-520.9106" y2="186.8164" gradientTransform="matrix(1 0 0 1 568 -151)">
		<stop  offset="0" style="stop-color:#7E5B44"/>
		<stop  offset="0.9852" style="stop-color:#CC9966"/>
	</linearGradient>
	<path fill="none" stroke="url(#SVGID_92_)" stroke-width="0.75" stroke-miterlimit="10" d="M46.768,35.404
		c0,0-0.243,0.407-0.854,0.606c-0.441,0.144-1.036-0.217-1.036-0.217"/>
	
		<linearGradient id="SVGID_93_" gradientUnits="userSpaceOnUse" x1="-522.6973" y1="185.2656" x2="-520.3208" y2="185.2656" gradientTransform="matrix(1 0 0 1 568 -151)">
		<stop  offset="0" style="stop-color:#7E5B44"/>
		<stop  offset="0.9852" style="stop-color:#CC9966"/>
	</linearGradient>
	<path fill="none" stroke="url(#SVGID_93_)" stroke-width="0.75" stroke-miterlimit="10" d="M47.348,33.815
		c0,0-0.222,0.42-0.822,0.651c-0.435,0.167-1.045-0.162-1.045-0.162"/>
	
		<linearGradient id="SVGID_94_" gradientUnits="userSpaceOnUse" x1="-522.1455" y1="183.7754" x2="-519.8101" y2="183.7754" gradientTransform="matrix(1 0 0 1 568 -151)">
		<stop  offset="0" style="stop-color:#7E5B44"/>
		<stop  offset="0.9852" style="stop-color:#CC9966"/>
	</linearGradient>
	<path fill="none" stroke="url(#SVGID_94_)" stroke-width="0.75" stroke-miterlimit="10" d="M47.849,32.283
		c0,0-0.196,0.433-0.783,0.698c-0.423,0.191-1.054-0.1-1.054-0.1"/>
	
		<linearGradient id="SVGID_95_" gradientUnits="userSpaceOnUse" x1="-521.6704" y1="182.4121" x2="-519.396" y2="182.4121" gradientTransform="matrix(1 0 0 1 568 -151)">
		<stop  offset="0" style="stop-color:#7E5B44"/>
		<stop  offset="0.9852" style="stop-color:#CC9966"/>
	</linearGradient>
	<path fill="none" stroke="url(#SVGID_95_)" stroke-width="0.75" stroke-miterlimit="10" d="M48.253,30.866
		c0,0-0.167,0.446-0.732,0.754c-0.409,0.224-1.058-0.022-1.058-0.022"/>
	
		<linearGradient id="SVGID_96_" gradientUnits="userSpaceOnUse" x1="-521.2368" y1="180.7793" x2="-518.9824" y2="180.7793" gradientTransform="matrix(1 0 0 1 568 -151)">
		<stop  offset="0" style="stop-color:#7E5B44"/>
		<stop  offset="0.9852" style="stop-color:#CC9966"/>
	</linearGradient>
	<path fill="none" stroke="url(#SVGID_96_)" stroke-width="0.75" stroke-miterlimit="10" d="M48.664,29.219
		c0,0-0.158,0.449-0.718,0.767c-0.404,0.231-1.058-0.001-1.058-0.001"/>
	
		<linearGradient id="SVGID_97_" gradientUnits="userSpaceOnUse" x1="-520.8203" y1="179.0723" x2="-518.7075" y2="179.0723" gradientTransform="matrix(1 0 0 1 568 -151)">
		<stop  offset="0" style="stop-color:#7E5B44"/>
		<stop  offset="0.9852" style="stop-color:#CC9966"/>
	</linearGradient>
	<path fill="none" stroke="url(#SVGID_97_)" stroke-width="0.75" stroke-miterlimit="10" d="M48.926,27.411
		c0,0-0.101,0.466-0.616,0.854c-0.373,0.282-1.05,0.135-1.05,0.135"/>
	
		<linearGradient id="SVGID_98_" gradientUnits="userSpaceOnUse" x1="-520.7988" y1="177.5879" x2="-518.6621" y2="177.5879" gradientTransform="matrix(1 0 0 1 568 -151)">
		<stop  offset="0" style="stop-color:#7E5B44"/>
		<stop  offset="0.9852" style="stop-color:#CC9966"/>
	</linearGradient>
	<path fill="none" stroke="url(#SVGID_98_)" stroke-width="0.75" stroke-miterlimit="10" d="M48.973,25.942
		c0,0-0.109,0.463-0.633,0.841c-0.379,0.273-1.052,0.113-1.052,0.113"/>
</g>
<g id="Circle_1_">
	
		<linearGradient id="SVGID_99_" gradientUnits="userSpaceOnUse" x1="-564.2788" y1="176.0762" x2="-521.9756" y2="176.0762" gradientTransform="matrix(1 0 0 1 568 -151)">
		<stop  offset="0.0554" style="stop-color:#7E5B44"/>
		<stop  offset="0.523" style="stop-color:#CC9966"/>
		<stop  offset="1" style="stop-color:#7E5B44"/>
	</linearGradient>
	
		<ellipse fill="none" stroke="url(#SVGID_99_)" stroke-width="0.5" stroke-miterlimit="10" cx="24.873" cy="25.076" rx="20.901" ry="20.667"/>
	<linearGradient id="SVGID_100_" gradientUnits="userSpaceOnUse" x1="2.5508" y1="25.042" x2="47.1943" y2="25.042">
		<stop  offset="0.0554" style="stop-color:#7E5B44"/>
		<stop  offset="0.523" style="stop-color:#CC9966"/>
		<stop  offset="1" style="stop-color:#7E5B44"/>
	</linearGradient>
	
		<ellipse fill="none" stroke="url(#SVGID_100_)" stroke-width="0.75" stroke-miterlimit="10" cx="24.873" cy="25.042" rx="21.946" ry="21.762"/>
	
		<linearGradient id="SVGID_101_" gradientUnits="userSpaceOnUse" x1="-569.2607" y1="176.042" x2="-516.9932" y2="176.042" gradientTransform="matrix(1 0 0 1 568 -151)">
		<stop  offset="0.0554" style="stop-color:#7E5B44"/>
		<stop  offset="0.523" style="stop-color:#CC9966"/>
		<stop  offset="1" style="stop-color:#7E5B44"/>
	</linearGradient>
	
		<ellipse display="none" fill="none" stroke="url(#SVGID_101_)" stroke-width="6" stroke-miterlimit="10" cx="24.873" cy="25.042" rx="23.134" ry="23.314"/>
</g>
</svg>
