<svg enable-background="new 0 0 35 92" height="92" viewBox="0 0 35 92" width="35" xmlns="http://www.w3.org/2000/svg" xmlns:xlink="http://www.w3.org/1999/xlink"><linearGradient id="a"><stop offset=".0545" stop-color="#7e5a43"/><stop offset=".523" stop-color="#c96"/><stop offset=".9415" stop-color="#7e5a43"/></linearGradient><linearGradient id="b" gradientUnits="userSpaceOnUse" x1="3.7798" x2="31.793" xlink:href="#a" y1="28.6436" y2="28.6436"/><linearGradient id="c" gradientUnits="userSpaceOnUse" x1=".2979" x2="34.7031" xlink:href="#a" y1="65.8086" y2="65.8086"/><linearGradient id="d" gradientUnits="userSpaceOnUse" x1=".2969" x2="34.3262" xlink:href="#a" y1="10.0439" y2="10.0439"/><path d="m31.793 39.839c-.018-12.57-.032-23.756-.032-25.133v1.963l-27.981 12.17v13.743l27.981-11.849z" fill="url(#b)"/><path d="m31.847 77.641s-.028-20.192-.054-37.729l-27.922 12.045-.091-9.375v23.218l27.981-11.849.032 9.179-27.922 12.045-.091-9.375v11.91c-.94 0-3.393 1.06-3.478 2.796-.085 1.735 1.061 2.318 2.949 2.605 5.941 5.294 9.967 4.692 11.156 5.079.257 1.822.598 3.514 3.037 3.514 2.221 0 3.032-1.736 3.204-3.646 3.162-.042 8.462-2.038 10.6-4.947 1.159-.098 3.459-.173 3.455-2.604-.004-2.435-2.856-2.866-2.856-2.866z" fill="url(#c)"/><path d="m34.325 11.754c.049-3.092-1.949-2.017-2.649-2.778-5.043-5.476-10.943-4.514-11.028-5.208-.086-.694-.214-3.472-3.204-3.472-3.209 0-3.037 3.472-3.037 3.472-5.386.52-9.576 4.38-11.113 5.122-1.538.174-2.997.194-2.997 2.691 0 2.712 3.483 3.125 3.483 3.125v5.086l9.538-5.086h18.443c1.176-.293 2.52-.217 2.564-2.952z" fill="url(#d)"/></svg>