<?xml version="1.0" encoding="utf-8"?>
<!-- Generator: Adobe Illustrator 16.0.0, SVG Export Plug-In . SVG Version: 6.00 Build 0)  -->
<!DOCTYPE svg PUBLIC "-//W3C//DTD SVG 1.1//EN" "http://www.w3.org/Graphics/SVG/1.1/DTD/svg11.dtd">
<svg version="1.1" xmlns="http://www.w3.org/2000/svg" xmlns:xlink="http://www.w3.org/1999/xlink" x="0px" y="0px" width="50px"
	 height="50px" viewBox="0 0 50 50" enable-background="new 0 0 50 50" xml:space="preserve">
<g id="Layer_2" display="none">
	<rect display="inline" width="50" height="50"/>
</g>
<g id="Layer_1">
	<g id="Layer_1_2_">
		<path fill="none" stroke="#FFFFFF" stroke-width="0.75" stroke-miterlimit="10" d="M48.856,22.618c0,0,0.048,0.477-0.324,1.013
			c-0.269,0.389-0.96,0.466-0.96,0.466"/>
		<path fill="none" stroke="#FFFFFF" stroke-width="0.75" stroke-miterlimit="10" d="M48.895,24.106c0,0,0.022,0.48-0.376,0.996
			c-0.289,0.373-0.982,0.414-0.982,0.414"/>
		<path fill="none" stroke="#FFFFFF" stroke-width="0.75" stroke-miterlimit="10" d="M48.655,20.784c0,0,0.082,0.473-0.253,1.035
			c-0.242,0.407-0.926,0.533-0.926,0.533"/>
		<path fill="none" stroke="#FFFFFF" stroke-width="0.75" stroke-miterlimit="10" d="M48.372,19.547c0,0,0.11,0.466-0.189,1.05
			c-0.216,0.421-0.89,0.59-0.89,0.59"/>
		<path fill="none" stroke="#FFFFFF" stroke-width="0.75" stroke-miterlimit="10" d="M48.047,18.279c0,0,0.117,0.465-0.172,1.053
			c-0.21,0.425-0.882,0.605-0.882,0.605"/>
		<path fill="none" stroke="#FFFFFF" stroke-width="0.75" stroke-miterlimit="10" d="M47.619,16.88c0,0,0.166,0.449-0.058,1.066
			c-0.162,0.446-0.81,0.701-0.81,0.701"/>
		<path fill="none" stroke="#FFFFFF" stroke-width="0.75" stroke-miterlimit="10" d="M47.154,15.625c0,0,0.168,0.449-0.057,1.065
			c-0.162,0.446-0.812,0.701-0.812,0.701"/>
		<path fill="none" stroke="#FFFFFF" stroke-width="0.75" stroke-miterlimit="10" d="M46.459,14.22c0,0,0.218,0.425,0.067,1.065
			c-0.107,0.462-0.722,0.795-0.722,0.795"/>
		<path fill="none" stroke="#FFFFFF" stroke-width="0.75" stroke-miterlimit="10" d="M45.687,12.74c0,0,0.258,0.402,0.17,1.053
			c-0.063,0.471-0.642,0.863-0.642,0.863"/>
		<path fill="none" stroke="#FFFFFF" stroke-width="0.75" stroke-miterlimit="10" d="M44.946,11.498c0,0,0.259,0.4,0.171,1.052
			c-0.063,0.472-0.643,0.865-0.643,0.865"/>
		<path fill="none" stroke="#FFFFFF" stroke-width="0.75" stroke-miterlimit="10" d="M44.112,10.361c0,0,0.281,0.384,0.231,1.04
			c-0.036,0.475-0.593,0.902-0.593,0.902"/>
		<path fill="none" stroke="#FFFFFF" stroke-width="0.75" stroke-miterlimit="10" d="M43.209,9.211c0,0,0.318,0.354,0.334,1.011
			c0.012,0.476-0.498,0.959-0.498,0.959"/>
		<path fill="none" stroke="#FFFFFF" stroke-width="0.75" stroke-miterlimit="10" d="M42.291,8.222c0,0,0.342,0.328,0.408,0.982
			c0.047,0.473-0.425,0.995-0.425,0.995"/>
		<path fill="none" stroke="#FFFFFF" stroke-width="0.75" stroke-miterlimit="10" d="M41.354,7.234c0,0,0.344,0.328,0.41,0.982
			c0.048,0.474-0.423,0.995-0.423,0.995"/>
		<path fill="none" stroke="#FFFFFF" stroke-width="0.75" stroke-miterlimit="10" d="M40.257,6.248c0,0,0.36,0.31,0.458,0.959
			c0.071,0.47-0.375,1.017-0.375,1.017"/>
		<path fill="none" stroke="#FFFFFF" stroke-width="0.75" stroke-miterlimit="10" d="M38.983,5.266c0,0,0.377,0.284,0.519,0.925
			c0.103,0.464-0.306,1.039-0.306,1.039"/>
		<path fill="none" stroke="#FFFFFF" stroke-width="0.75" stroke-miterlimit="10" d="M37.805,4.458c0,0,0.404,0.247,0.605,0.871
			c0.146,0.452-0.206,1.064-0.206,1.064"/>
		<path fill="none" stroke="#FFFFFF" stroke-width="0.75" stroke-miterlimit="10" d="M36.562,3.713c0,0,0.402,0.245,0.604,0.87
			c0.146,0.452-0.205,1.064-0.205,1.064"/>
		<path fill="none" stroke="#FFFFFF" stroke-width="0.75" stroke-miterlimit="10" d="M35.325,3.059c0,0,0.406,0.245,0.606,0.87
			c0.146,0.452-0.206,1.064-0.206,1.064"/>
		<path fill="none" stroke="#FFFFFF" stroke-width="0.75" stroke-miterlimit="10" d="M34.029,2.501c0,0,0.427,0.201,0.69,0.802
			c0.191,0.434-0.096,1.08-0.096,1.08"/>
		<path fill="none" stroke="#FFFFFF" stroke-width="0.75" stroke-miterlimit="10" d="M32.594,1.944c0,0,0.436,0.177,0.731,0.761
			c0.215,0.422-0.036,1.083-0.036,1.083"/>
		<path fill="none" stroke="#FFFFFF" stroke-width="0.75" stroke-miterlimit="10" d="M31.057,1.485c0,0,0.444,0.153,0.771,0.72
			c0.235,0.411,0.019,1.085,0.019,1.085"/>
		<path fill="none" stroke="#FFFFFF" stroke-width="0.75" stroke-miterlimit="10" d="M29.608,1.173c0,0,0.452,0.126,0.81,0.673
			c0.259,0.396,0.08,1.082,0.08,1.082"/>
		<path fill="none" stroke="#FFFFFF" stroke-width="0.75" stroke-miterlimit="10" d="M27.934,0.897c0,0,0.462,0.093,0.854,0.613
			c0.288,0.375,0.158,1.073,0.158,1.073"/>
		<path fill="none" stroke="#FFFFFF" stroke-width="0.75" stroke-miterlimit="10" d="M26.276,0.716c0,0,0.463,0.083,0.867,0.595
			C27.437,1.682,27.32,2.38,27.32,2.38"/>
		<path fill="none" stroke="#FFFFFF" stroke-width="0.75" stroke-miterlimit="10" d="M24.56,0.716c0,0,0.47,0.023,0.935,0.479
			c0.336,0.329,0.307,1.038,0.307,1.038"/>
		<path fill="none" stroke="#FFFFFF" stroke-width="0.75" stroke-miterlimit="10" d="M22.938,0.867c0,0,0.47-0.032,0.982,0.366
			c0.371,0.289,0.422,0.997,0.422,0.997"/>
		<path fill="none" stroke="#FFFFFF" stroke-width="0.75" stroke-miterlimit="10" d="M21.06,1.118c0,0,0.462-0.084,1.016,0.253
			c0.399,0.245,0.525,0.943,0.525,0.943"/>
		<path fill="none" stroke="#FFFFFF" stroke-width="0.75" stroke-miterlimit="10" d="M19.366,1.393c0,0,0.462-0.085,1.014,0.253
			c0.4,0.245,0.527,0.941,0.527,0.941"/>
		<path fill="none" stroke="#FFFFFF" stroke-width="0.75" stroke-miterlimit="10" d="M17.535,1.832c0,0,0.449-0.14,1.039,0.128
			C19,2.154,19.207,2.831,19.207,2.831"/>
		<path fill="none" stroke="#FFFFFF" stroke-width="0.75" stroke-miterlimit="10" d="M16.017,2.4c0,0,0.435-0.186,1.045,0.022
			c0.443,0.151,0.714,0.803,0.714,0.803"/>
		<path fill="none" stroke="#FFFFFF" stroke-width="0.75" stroke-miterlimit="10" d="M14.617,2.997c0,0,0.433-0.185,1.045,0.022
			c0.442,0.15,0.714,0.803,0.714,0.803"/>
		<path fill="none" stroke="#FFFFFF" stroke-width="0.75" stroke-miterlimit="10" d="M13.396,3.694c0,0,0.423-0.211,1.044-0.041
			c0.45,0.124,0.76,0.759,0.76,0.759"/>
		<path fill="none" stroke="#FFFFFF" stroke-width="0.75" stroke-miterlimit="10" d="M11.994,4.466c0,0,0.399-0.254,1.035-0.148
			c0.46,0.076,0.832,0.675,0.832,0.675"/>
		<path fill="none" stroke="#FFFFFF" stroke-width="0.75" stroke-miterlimit="10" d="M10.758,5.352c0,0,0.379-0.284,1.021-0.229
			c0.465,0.04,0.88,0.608,0.88,0.608"/>
		<path fill="none" stroke="#FFFFFF" stroke-width="0.75" stroke-miterlimit="10" d="M9.404,6.286c0,0,0.379-0.285,1.021-0.229
			c0.463,0.039,0.88,0.607,0.88,0.607"/>
		<path fill="none" stroke="#FFFFFF" stroke-width="0.75" stroke-miterlimit="10" d="M8.437,7.154c0,0,0.364-0.304,1.009-0.284
			c0.465,0.014,0.909,0.56,0.909,0.56"/>
		<path fill="none" stroke="#FFFFFF" stroke-width="0.75" stroke-miterlimit="10" d="M7.471,8.125c0,0,0.344-0.328,0.987-0.352
			c0.466-0.016,0.945,0.498,0.945,0.498"/>
		<path fill="none" stroke="#FFFFFF" stroke-width="0.75" stroke-miterlimit="10" d="M6.39,9.327c0,0,0.31-0.36,0.949-0.448
			c0.462-0.063,0.988,0.401,0.988,0.401"/>
		<path fill="none" stroke="#FFFFFF" stroke-width="0.75" stroke-miterlimit="10" d="M5.573,10.287c0,0,0.31-0.359,0.949-0.446
			c0.462-0.063,0.987,0.401,0.987,0.401"/>
		<path fill="none" stroke="#FFFFFF" stroke-width="0.75" stroke-miterlimit="10" d="M4.729,11.587c0,0,0.309-0.36,0.949-0.447
			c0.461-0.063,0.987,0.402,0.987,0.402"/>
		<path fill="none" stroke="#FFFFFF" stroke-width="0.75" stroke-miterlimit="10" d="M3.867,13.002c0,0,0.272-0.392,0.897-0.547
			c0.453-0.112,1.023,0.294,1.023,0.294"/>
		<path fill="none" stroke="#FFFFFF" stroke-width="0.75" stroke-miterlimit="10" d="M3.121,14.265c0,0,0.25-0.407,0.868-0.596
			c0.446-0.138,1.036,0.235,1.036,0.235"/>
		<path fill="none" stroke="#FFFFFF" stroke-width="0.75" stroke-miterlimit="10" d="M2.512,15.855c0,0,0.229-0.419,0.836-0.642
			c0.438-0.16,1.048,0.181,1.048,0.181"/>
		<path fill="none" stroke="#FFFFFF" stroke-width="0.75" stroke-miterlimit="10" d="M1.983,17.39c0,0,0.206-0.432,0.799-0.69
			c0.429-0.187,1.057,0.118,1.057,0.118"/>
		<path fill="none" stroke="#FFFFFF" stroke-width="0.75" stroke-miterlimit="10" d="M1.556,18.81c0,0,0.173-0.446,0.747-0.747
			c0.415-0.218,1.062,0.041,1.062,0.041"/>
		<path fill="none" stroke="#FFFFFF" stroke-width="0.75" stroke-miterlimit="10" d="M1.116,20.461c0,0,0.166-0.45,0.732-0.761
			c0.41-0.225,1.062,0.02,1.062,0.02"/>
		<path fill="none" stroke="#FFFFFF" stroke-width="0.75" stroke-miterlimit="10" d="M0.824,22.278c0,0,0.109-0.468,0.633-0.851
			c0.379-0.275,1.056-0.117,1.056-0.117"/>
		<path fill="none" stroke="#FFFFFF" stroke-width="0.75" stroke-miterlimit="10" d="M0.752,23.755c0,0,0.118-0.465,0.649-0.836
			c0.385-0.27,1.059-0.096,1.059-0.096"/>
		<path fill="none" stroke="#FFFFFF" stroke-width="0.75" stroke-miterlimit="10" d="M0.818,27.469c0,0,0.011-0.479,0.446-0.964
			c0.314-0.351,1.009-0.34,1.009-0.34"/>
		<path fill="none" stroke="#FFFFFF" stroke-width="0.75" stroke-miterlimit="10" d="M0.712,25.386c0,0,0.098-0.47,0.613-0.864
			c0.373-0.287,1.054-0.142,1.054-0.142"/>
		<path fill="none" stroke="#FFFFFF" stroke-width="0.75" stroke-miterlimit="10" d="M1.05,29.271c0,0-0.003-0.479,0.418-0.977
			c0.304-0.361,1-0.369,1-0.369"/>
		<path fill="none" stroke="#FFFFFF" stroke-width="0.75" stroke-miterlimit="10" d="M1.386,30.679c0,0-0.056-0.477,0.307-1.021
			c0.262-0.393,0.952-0.483,0.952-0.483"/>
		<path fill="none" stroke="#FFFFFF" stroke-width="0.75" stroke-miterlimit="10" d="M1.921,32.257c0,0-0.124-0.462,0.156-1.055
			c0.203-0.428,0.872-0.619,0.872-0.619"/>
		<path fill="none" stroke="#FFFFFF" stroke-width="0.75" stroke-miterlimit="10" d="M2.372,33.649c0,0-0.173-0.446,0.042-1.065
			c0.155-0.448,0.799-0.716,0.799-0.716"/>
		<path fill="none" stroke="#FFFFFF" stroke-width="0.75" stroke-miterlimit="10" d="M2.856,34.897c0,0-0.174-0.447,0.041-1.066
			c0.155-0.449,0.799-0.716,0.799-0.716"/>
		<path fill="none" stroke="#FFFFFF" stroke-width="0.75" stroke-miterlimit="10" d="M3.574,36.29c0,0-0.225-0.423-0.085-1.064
			c0.101-0.463,0.709-0.807,0.709-0.807"/>
		<path fill="none" stroke="#FFFFFF" stroke-width="0.75" stroke-miterlimit="10" d="M4.371,37.757c0,0-0.264-0.396-0.186-1.051
			c0.055-0.47,0.627-0.874,0.627-0.874"/>
		<path fill="none" stroke="#FFFFFF" stroke-width="0.75" stroke-miterlimit="10" d="M5.131,38.987c0,0-0.265-0.397-0.188-1.051
			c0.056-0.472,0.628-0.874,0.628-0.874"/>
		<path fill="none" stroke="#FFFFFF" stroke-width="0.75" stroke-miterlimit="10" d="M5.983,40.109c0,0-0.287-0.381-0.248-1.036
			c0.028-0.476,0.576-0.911,0.576-0.911"/>
		<path fill="none" stroke="#FFFFFF" stroke-width="0.75" stroke-miterlimit="10" d="M6.904,41.243c0,0-0.324-0.348-0.35-1.005
			c-0.02-0.476,0.481-0.967,0.481-0.967"/>
		<path fill="none" stroke="#FFFFFF" stroke-width="0.75" stroke-miterlimit="10" d="M7.839,42.217c0,0-0.35-0.322-0.425-0.976
			c-0.055-0.472,0.408-1.002,0.408-1.002"/>
		<path fill="none" stroke="#FFFFFF" stroke-width="0.75" stroke-miterlimit="10" d="M8.79,43.188c0,0-0.349-0.321-0.425-0.976
			c-0.055-0.472,0.408-1.001,0.408-1.001"/>
		<path fill="none" stroke="#FFFFFF" stroke-width="0.75" stroke-miterlimit="10" d="M9.904,44.157c0,0-0.365-0.304-0.474-0.952
			c-0.079-0.468,0.356-1.021,0.356-1.021"/>
		<path fill="none" stroke="#FFFFFF" stroke-width="0.75" stroke-miterlimit="10" d="M11.193,45.117c0,0-0.384-0.277-0.534-0.917
			c-0.11-0.461,0.288-1.043,0.288-1.043"/>
		<path fill="none" stroke="#FFFFFF" stroke-width="0.75" stroke-miterlimit="10" d="M12.385,45.905c0,0-0.408-0.238-0.618-0.859
			c-0.154-0.45,0.188-1.067,0.188-1.067"/>
		<path fill="none" stroke="#FFFFFF" stroke-width="0.75" stroke-miterlimit="10" d="M13.64,46.63c0,0-0.409-0.239-0.62-0.859
			c-0.153-0.449,0.189-1.067,0.189-1.067"/>
		<path fill="none" stroke="#FFFFFF" stroke-width="0.75" stroke-miterlimit="10" d="M14.885,47.264c0,0-0.408-0.238-0.619-0.859
			c-0.153-0.449,0.188-1.068,0.188-1.068"/>
		<path fill="none" stroke="#FFFFFF" stroke-width="0.75" stroke-miterlimit="10" d="M16.191,47.799c0,0-0.43-0.193-0.704-0.789
			c-0.198-0.431,0.078-1.081,0.078-1.081"/>
		<path fill="none" stroke="#FFFFFF" stroke-width="0.75" stroke-miterlimit="10" d="M17.636,48.332c0,0-0.44-0.17-0.745-0.749
			C16.67,47.166,16.91,46.5,16.91,46.5"/>
		<path fill="none" stroke="#FFFFFF" stroke-width="0.75" stroke-miterlimit="10" d="M19.18,48.766c0,0-0.448-0.146-0.783-0.707
			c-0.24-0.407-0.036-1.084-0.036-1.084"/>
		<path fill="none" stroke="#FFFFFF" stroke-width="0.75" stroke-miterlimit="10" d="M20.632,49.053c0,0-0.455-0.118-0.82-0.66
			c-0.265-0.392-0.098-1.079-0.098-1.079"/>
		<path fill="none" stroke="#FFFFFF" stroke-width="0.75" stroke-miterlimit="10" d="M22.313,49.301c0,0-0.463-0.085-0.868-0.598
			c-0.29-0.371-0.173-1.071-0.173-1.071"/>
		<path fill="none" stroke="#FFFFFF" stroke-width="0.75" stroke-miterlimit="10" d="M23.972,49.454c0,0-0.465-0.076-0.877-0.581
			c-0.299-0.364-0.194-1.065-0.194-1.065"/>
		<path fill="none" stroke="#FFFFFF" stroke-width="0.75" stroke-miterlimit="10" d="M25.688,49.426c0,0-0.47-0.014-0.942-0.463
			c-0.342-0.323-0.324-1.033-0.324-1.033"/>
		<path fill="none" stroke="#FFFFFF" stroke-width="0.75" stroke-miterlimit="10" d="M27.306,49.247c0,0-0.468,0.04-0.988-0.351
			c-0.375-0.282-0.437-0.987-0.437-0.987"/>
		<path fill="none" stroke="#FFFFFF" stroke-width="0.75" stroke-miterlimit="10" d="M29.181,48.966c0,0-0.462,0.093-1.02-0.236
			c-0.402-0.237-0.541-0.933-0.541-0.933"/>
		<path fill="none" stroke="#FFFFFF" stroke-width="0.75" stroke-miterlimit="10" d="M30.87,48.664c0,0-0.462,0.09-1.019-0.238
			c-0.405-0.237-0.543-0.933-0.543-0.933"/>
		<path fill="none" stroke="#FFFFFF" stroke-width="0.75" stroke-miterlimit="10" d="M32.694,48.191c0,0-0.448,0.148-1.041-0.109
			c-0.428-0.188-0.646-0.86-0.646-0.86"/>
		<path fill="none" stroke="#FFFFFF" stroke-width="0.75" stroke-miterlimit="10" d="M34.202,47.599c0,0-0.43,0.194-1.045-0.004
			c-0.444-0.143-0.729-0.791-0.729-0.791"/>
		<path fill="none" stroke="#FFFFFF" stroke-width="0.75" stroke-miterlimit="10" d="M35.593,46.979c0,0-0.432,0.193-1.046-0.005
			c-0.445-0.143-0.728-0.79-0.728-0.79"/>
		<path fill="none" stroke="#FFFFFF" stroke-width="0.75" stroke-miterlimit="10" d="M36.8,46.262c0,0-0.417,0.218-1.043,0.058
			c-0.45-0.116-0.771-0.746-0.771-0.746"/>
		<path fill="none" stroke="#FFFFFF" stroke-width="0.75" stroke-miterlimit="10" d="M38.192,45.466c0,0-0.396,0.26-1.034,0.166
			c-0.46-0.068-0.842-0.66-0.842-0.66"/>
		<path fill="none" stroke="#FFFFFF" stroke-width="0.75" stroke-miterlimit="10" d="M39.413,44.56c0,0-0.373,0.289-1.017,0.246
			c-0.466-0.031-0.89-0.593-0.89-0.593"/>
		<path fill="none" stroke="#FFFFFF" stroke-width="0.75" stroke-miterlimit="10" d="M40.753,43.603c0,0-0.375,0.292-1.019,0.248
			c-0.465-0.032-0.89-0.594-0.89-0.594"/>
		<path fill="none" stroke="#FFFFFF" stroke-width="0.75" stroke-miterlimit="10" d="M41.704,42.718c0,0-0.358,0.311-1.003,0.303
			c-0.465-0.008-0.919-0.546-0.919-0.546"/>
		<path fill="none" stroke="#FFFFFF" stroke-width="0.75" stroke-miterlimit="10" d="M42.654,41.732c0,0-0.337,0.334-0.98,0.369
			c-0.466,0.022-0.952-0.484-0.952-0.484"/>
		<path fill="none" stroke="#FFFFFF" stroke-width="0.75" stroke-miterlimit="10" d="M43.716,40.513c0,0-0.305,0.365-0.941,0.463
			c-0.46,0.071-0.993-0.385-0.993-0.385"/>
		<path fill="none" stroke="#FFFFFF" stroke-width="0.75" stroke-miterlimit="10" d="M44.518,39.537c0,0-0.304,0.366-0.941,0.465
			c-0.461,0.069-0.993-0.387-0.993-0.387"/>
		<path fill="none" stroke="#FFFFFF" stroke-width="0.75" stroke-miterlimit="10" d="M45.343,38.225c0,0-0.307,0.365-0.942,0.463
			c-0.462,0.071-0.995-0.386-0.995-0.386"/>
		<path fill="none" stroke="#FFFFFF" stroke-width="0.75" stroke-miterlimit="10" d="M46.181,36.796c0,0-0.266,0.396-0.89,0.56
			c-0.451,0.121-1.026-0.275-1.026-0.275"/>
		<path fill="none" stroke="#FFFFFF" stroke-width="0.75" stroke-miterlimit="10" d="M46.905,35.521c0,0-0.242,0.411-0.856,0.611
			c-0.443,0.144-1.04-0.22-1.04-0.22"/>
		<path fill="none" stroke="#FFFFFF" stroke-width="0.75" stroke-miterlimit="10" d="M47.489,33.921c0,0-0.223,0.422-0.826,0.654
			c-0.436,0.168-1.05-0.163-1.05-0.163"/>
		<path fill="none" stroke="#FFFFFF" stroke-width="0.75" stroke-miterlimit="10" d="M47.994,32.378c0,0-0.199,0.435-0.787,0.7
			c-0.426,0.194-1.06-0.1-1.06-0.1"/>
		<path fill="none" stroke="#FFFFFF" stroke-width="0.75" stroke-miterlimit="10" d="M48.398,30.95c0,0-0.166,0.449-0.735,0.759
			c-0.41,0.226-1.062-0.021-1.062-0.021"/>
		<path fill="none" stroke="#FFFFFF" stroke-width="0.75" stroke-miterlimit="10" d="M48.812,29.292c0,0-0.159,0.451-0.719,0.771
			c-0.408,0.233-1.064-0.001-1.064-0.001"/>
		<path fill="none" stroke="#FFFFFF" stroke-width="0.75" stroke-miterlimit="10" d="M49.074,27.471c0,0-0.101,0.469-0.619,0.86
			c-0.374,0.282-1.055,0.135-1.055,0.135"/>
		<path fill="none" stroke="#FFFFFF" stroke-width="0.75" stroke-miterlimit="10" d="M49.123,25.992c0,0-0.112,0.466-0.637,0.847
			c-0.38,0.275-1.058,0.114-1.058,0.114"/>
	</g>
	<g id="Circle_1_">
		
			<ellipse fill="none" stroke="#FFFFFF" stroke-width="0.5" stroke-miterlimit="10" cx="24.917" cy="25.119" rx="20.992" ry="20.812"/>
		
			<ellipse fill="none" stroke="#FFFFFF" stroke-width="0.5" stroke-miterlimit="10" cx="24.917" cy="25.085" rx="22.042" ry="21.915"/>
		
			<ellipse display="none" fill="none" stroke="#FFFFFF" stroke-width="0.5" stroke-miterlimit="10" cx="24.917" cy="25.085" rx="23.234" ry="23.478"/>
	</g>
</g>
</svg>
