<svg enable-background="new 0 0 500 226" height="226" viewBox="0 0 500 226" width="500" xmlns="http://www.w3.org/2000/svg" xmlns:xlink="http://www.w3.org/1999/xlink"><linearGradient id="a" gradientTransform="matrix(1 0 0 -1 564 444.3076)" gradientUnits="userSpaceOnUse" x1="-369.3091" x2="-310.6631" y1="389.4233" y2="389.4233"><stop offset=".0545" stop-color="#7e5b44"/><stop offset=".523" stop-color="#c96"/><stop offset=".9415" stop-color="#7e5b44"/></linearGradient><text fill="#fff" font-family="'LucidaGrande'" font-size="28.7652" transform="matrix(1.2052 0 0 1 135.1821 149.4438)">BARBER SHOP</text><text transform="matrix(1.1314 0 0 1 143.4126 192.061)"><tspan fill="#c49a6c" font-family="'LucidaGrande'" font-size="21.382" x="0" y="0">TAILORED CUTS &amp;</tspan><tspan fill="#c49a6c" font-family="'LucidaGrande'" font-size="21.382" x="7.945" y="25.658">CLASSIC SHAVES</tspan></text><text fill="#fff" font-family="'Modern-Regular'" font-size="115.4102" transform="matrix(.5166 0 0 1 3.3335 95.1948)">THE B</text><text fill="#fff" font-family="'Modern-Regular'" font-size="115.4102" transform="matrix(.5166 0 0 1 260.3062 95.1948)">RBEROS</text><path d="m252.812 94.822c-2.246-4.722-30.005-68.791-30.005-68.791s-2.033-4.519-3.69-5.839c.535-1.827 1.053-3.72 1.188-5.255.162-1.824.096-4.948-4.558-6.625-4.653-1.675-6.893 1.893-8.022 3.047-1.235-.916-2.62-5.584-2.62-5.584s-1.071-2.031-2.355-1.574c-1.284.458-1.123 1.522-.962 2.589.161 1.066 4.654 8.884 4.654 8.884s-10.216 36.451-10.698 49.042c-.45 11.794-1.765 26.804-.552 32.765 1.183 5.816 6.33 8.159 9.484 8.153 4.336-.01 10.833-3.827 10.27-10.205-.592-6.692-2.515-16.294-1.926-31.374.226-5.792 1.938-22.418 2.728-26.451 1.605 2.894 5.509 9.139 5.509 9.139s-4.065 3.909-2.459 7.719c1.604 3.806 19.527 44.997 19.527 44.997s4.914 8.866 11.92 4.196c3.693-2.461 3.391-7.103 2.567-8.833zm-48.029 2.69c-1.92 0-3.477-1.477-3.477-3.3 0-1.822 1.556-3.301 3.477-3.301s3.477 1.479 3.477 3.301c0 1.824-1.556 3.3-3.477 3.3zm7.702-76.811c-1.003 0-1.818-.773-1.818-1.727s.815-1.726 1.818-1.726c1.004 0 1.818.772 1.818 1.726s-.814 1.727-1.818 1.727zm4.012 11.525c-.375-.864 1.604-7.921 1.604-7.921h.214l9.199 20.867-3.157.255c.002-.001-7.486-12.338-7.86-13.201zm31.769 68.435c-3.525 2.596-5.96-.767-6.62-2.12-5.499-11.3-18.623-42.608-19.662-45.351-1.041-2.741 2.268-4.466 2.268-4.466 4.546-1.22 5.295 1.421 5.295 1.421s18.453 41.376 19.52 44.066c1.072 2.691 1.82 4.521-.801 6.45z" fill="url(#a)"/></svg>