<svg enable-background="new 0 0 50 50" height="50" viewBox="0 0 50 50" width="50" xmlns="http://www.w3.org/2000/svg"><g fill="none" stroke="#fff" stroke-miterlimit="10"><g stroke-width=".75"><path d="m48.856 22.618s.048.477-.324 1.013c-.269.389-.96.466-.96.466"/><path d="m48.895 24.106s.022.48-.376.996c-.289.373-.982.414-.982.414"/><path d="m48.655 20.784s.082.473-.253 1.035c-.242.407-.926.533-.926.533"/><path d="m48.372 19.547s.11.466-.189 1.05c-.216.421-.89.59-.89.59"/><path d="m48.047 18.279s.117.465-.172 1.053c-.21.425-.882.605-.882.605"/><path d="m47.619 16.88s.166.449-.058 1.066c-.162.446-.81.701-.81.701"/><path d="m47.154 15.625s.168.449-.057 1.065c-.162.446-.812.701-.812.701"/><path d="m46.459 14.22s.218.425.067 1.065c-.107.462-.722.795-.722.795"/><path d="m45.687 12.74s.258.402.17 1.053c-.063.471-.642.863-.642.863"/><path d="m44.946 11.498s.259.4.171 1.052c-.063.472-.643.865-.643.865"/><path d="m44.112 10.361s.281.384.231 1.04c-.036.475-.593.902-.593.902"/><path d="m43.209 9.211s.318.354.334 1.011c.012.476-.498.959-.498.959"/><path d="m42.291 8.222s.342.328.408.982c.047.473-.425.995-.425.995"/><path d="m41.354 7.234s.344.328.41.982c.048.474-.423.995-.423.995"/><path d="m40.257 6.248s.36.31.458.959c.071.47-.375 1.017-.375 1.017"/><path d="m38.983 5.266s.377.284.519.925c.103.464-.306 1.039-.306 1.039"/><path d="m37.805 4.458s.404.247.605.871c.146.452-.206 1.064-.206 1.064"/><path d="m36.562 3.713s.402.245.604.87c.146.452-.205 1.064-.205 1.064"/><path d="m35.325 3.059s.406.245.606.87c.146.452-.206 1.064-.206 1.064"/><path d="m34.029 2.501s.427.201.69.802c.191.434-.096 1.08-.096 1.08"/><path d="m32.594 1.944s.436.177.731.761c.215.422-.036 1.083-.036 1.083"/><path d="m31.057 1.485s.444.153.771.72c.235.411.019 1.085.019 1.085"/><path d="m29.608 1.173s.452.126.81.673c.259.396.08 1.082.08 1.082"/><path d="m27.934.897s.462.093.854.613c.288.375.158 1.073.158 1.073"/><path d="m26.276.716s.463.083.867.595c.294.371.177 1.069.177 1.069"/><path d="m24.56.716s.47.023.935.479c.336.329.307 1.038.307 1.038"/><path d="m22.938.867s.47-.032.982.366c.371.289.422.997.422.997"/><path d="m21.06 1.118s.462-.084 1.016.253c.399.245.525.943.525.943"/><path d="m19.366 1.393s.462-.085 1.014.253c.4.245.527.941.527.941"/><path d="m17.535 1.832s.449-.14 1.039.128c.426.194.633.871.633.871"/><path d="m16.017 2.4s.435-.186 1.045.022c.443.151.714.803.714.803"/><path d="m14.617 2.997s.433-.185 1.045.022c.442.15.714.803.714.803"/><path d="m13.396 3.694s.423-.211 1.044-.041c.45.124.76.759.76.759"/><path d="m11.994 4.466s.399-.254 1.035-.148c.46.076.832.675.832.675"/><path d="m10.758 5.352s.379-.284 1.021-.229c.465.04.88.608.88.608"/><path d="m9.404 6.286s.379-.285 1.021-.229c.463.039.88.607.88.607"/><path d="m8.437 7.154s.364-.304 1.009-.284c.465.014.909.56.909.56"/><path d="m7.471 8.125s.344-.328.987-.352c.466-.016.945.498.945.498"/><path d="m6.39 9.327s.31-.36.949-.448c.462-.063.988.401.988.401"/><path d="m5.573 10.287s.31-.359.949-.446c.462-.063.987.401.987.401"/><path d="m4.729 11.587s.309-.36.949-.447c.461-.063.987.402.987.402"/><path d="m3.867 13.002s.272-.392.897-.547c.453-.112 1.023.294 1.023.294"/><path d="m3.121 14.265s.25-.407.868-.596c.446-.138 1.036.235 1.036.235"/><path d="m2.512 15.855s.229-.419.836-.642c.438-.16 1.048.181 1.048.181"/><path d="m1.983 17.39s.206-.432.799-.69c.429-.187 1.057.118 1.057.118"/><path d="m1.556 18.81s.173-.446.747-.747c.415-.218 1.062.041 1.062.041"/><path d="m1.116 20.461s.166-.45.732-.761c.41-.225 1.062.02 1.062.02"/><path d="m.824 22.278s.109-.468.633-.851c.379-.275 1.056-.117 1.056-.117"/><path d="m.752 23.755s.118-.465.649-.836c.385-.27 1.059-.096 1.059-.096"/><path d="m.818 27.469s.011-.479.446-.964c.314-.351 1.009-.34 1.009-.34"/><path d="m.712 25.386s.098-.47.613-.864c.373-.287 1.054-.142 1.054-.142"/><path d="m1.05 29.271s-.003-.479.418-.977c.304-.361 1-.369 1-.369"/><path d="m1.386 30.679s-.056-.477.307-1.021c.262-.393.952-.483.952-.483"/><path d="m1.921 32.257s-.124-.462.156-1.055c.203-.428.872-.619.872-.619"/><path d="m2.372 33.649s-.173-.446.042-1.065c.155-.448.799-.716.799-.716"/><path d="m2.856 34.897s-.174-.447.041-1.066c.155-.449.799-.716.799-.716"/><path d="m3.574 36.29s-.225-.423-.085-1.064c.101-.463.709-.807.709-.807"/><path d="m4.371 37.757s-.264-.396-.186-1.051c.055-.47.627-.874.627-.874"/><path d="m5.131 38.987s-.265-.397-.188-1.051c.056-.472.628-.874.628-.874"/><path d="m5.983 40.109s-.287-.381-.248-1.036c.028-.476.576-.911.576-.911"/><path d="m6.904 41.243s-.324-.348-.35-1.005c-.02-.476.481-.967.481-.967"/><path d="m7.839 42.217s-.35-.322-.425-.976c-.055-.472.408-1.002.408-1.002"/><path d="m8.79 43.188s-.349-.321-.425-.976c-.055-.472.408-1.001.408-1.001"/><path d="m9.904 44.157s-.365-.304-.474-.952c-.079-.468.356-1.021.356-1.021"/><path d="m11.193 45.117s-.384-.277-.534-.917c-.11-.461.288-1.043.288-1.043"/><path d="m12.385 45.905s-.408-.238-.618-.859c-.154-.45.188-1.067.188-1.067"/><path d="m13.64 46.63s-.409-.239-.62-.859c-.153-.449.189-1.067.189-1.067"/><path d="m14.885 47.264s-.408-.238-.619-.859c-.153-.449.188-1.068.188-1.068"/><path d="m16.191 47.799s-.43-.193-.704-.789c-.198-.431.078-1.081.078-1.081"/><path d="m17.636 48.332s-.44-.17-.745-.749c-.221-.417.019-1.083.019-1.083"/><path d="m19.18 48.766s-.448-.146-.783-.707c-.24-.407-.036-1.084-.036-1.084"/><path d="m20.632 49.053s-.455-.118-.82-.66c-.265-.392-.098-1.079-.098-1.079"/><path d="m22.313 49.301s-.463-.085-.868-.598c-.29-.371-.173-1.071-.173-1.071"/><path d="m23.972 49.454s-.465-.076-.877-.581c-.299-.364-.194-1.065-.194-1.065"/><path d="m25.688 49.426s-.47-.014-.942-.463c-.342-.323-.324-1.033-.324-1.033"/><path d="m27.306 49.247s-.468.04-.988-.351c-.375-.282-.437-.987-.437-.987"/><path d="m29.181 48.966s-.462.093-1.02-.236c-.402-.237-.541-.933-.541-.933"/><path d="m30.87 48.664s-.462.09-1.019-.238c-.405-.237-.543-.933-.543-.933"/><path d="m32.694 48.191s-.448.148-1.041-.109c-.428-.188-.646-.86-.646-.86"/><path d="m34.202 47.599s-.43.194-1.045-.004c-.444-.143-.729-.791-.729-.791"/><path d="m35.593 46.979s-.432.193-1.046-.005c-.445-.143-.728-.79-.728-.79"/><path d="m36.8 46.262s-.417.218-1.043.058c-.45-.116-.771-.746-.771-.746"/><path d="m38.192 45.466s-.396.26-1.034.166c-.46-.068-.842-.66-.842-.66"/><path d="m39.413 44.56s-.373.289-1.017.246c-.466-.031-.89-.593-.89-.593"/><path d="m40.753 43.603s-.375.292-1.019.248c-.465-.032-.89-.594-.89-.594"/><path d="m41.704 42.718s-.358.311-1.003.303c-.465-.008-.919-.546-.919-.546"/><path d="m42.654 41.732s-.337.334-.98.369c-.466.022-.952-.484-.952-.484"/><path d="m43.716 40.513s-.305.365-.941.463c-.46.071-.993-.385-.993-.385"/><path d="m44.518 39.537s-.304.366-.941.465c-.461.069-.993-.387-.993-.387"/><path d="m45.343 38.225s-.307.365-.942.463c-.462.071-.995-.386-.995-.386"/><path d="m46.181 36.796s-.266.396-.89.56c-.451.121-1.026-.275-1.026-.275"/><path d="m46.905 35.521s-.242.411-.856.611c-.443.144-1.04-.22-1.04-.22"/><path d="m47.489 33.921s-.223.422-.826.654c-.436.168-1.05-.163-1.05-.163"/><path d="m47.994 32.378s-.199.435-.787.7c-.426.194-1.06-.1-1.06-.1"/><path d="m48.398 30.95s-.166.449-.735.759c-.41.226-1.062-.021-1.062-.021"/><path d="m48.812 29.292s-.159.451-.719.771c-.408.233-1.064-.001-1.064-.001"/><path d="m49.074 27.471s-.101.469-.619.86c-.374.282-1.055.135-1.055.135"/><path d="m49.123 25.992s-.112.466-.637.847c-.38.275-1.058.114-1.058.114"/></g><ellipse cx="24.917" cy="25.119" rx="20.992" ry="20.812" stroke-width=".5"/><ellipse cx="24.917" cy="25.085" rx="22.042" ry="21.915" stroke-width=".5"/></g></svg>