<svg enable-background="new 0 0 20 54" height="54" viewBox="0 0 20 54" width="20" xmlns="http://www.w3.org/2000/svg"><path d="m8.245 2.396s.012-1.794 1.877-1.794c1.739 0 1.877 1.794 1.877 1.794 4.795.452 4.693 1.792 5.632 2.69.939 0 1.877.897 1.877 1.793 0 1.793-1.877 1.793-1.877 1.793v35.874s1.877 0 1.877 1.795c0 .897-.938 1.793-1.877 1.793-.938.897-.938 2.691-5.632 3.586 0 0 .134 1.781-1.845 1.781-1.877 0-1.909-1.781-1.909-1.781-4.692-.895-4.692-2.688-5.63-3.586-.939 0-1.877-.896-1.877-1.793 0-1.795 1.877-1.795 1.877-1.795v-35.872s-1.877 0-1.877-1.793c0-.896.938-1.793 1.877-1.793.938-.899.988-2.16 5.63-2.692z" fill="none" stroke="#fff" stroke-miterlimit="10" stroke-width=".75"/><g fill="#fff"><path d="m2.615 11.365v5.381l15.048-6.682-.032-1.39-10.35.105z"/><path d="m17.631 23.92-15.016 6.279v-5.382l15.016-6.277z"/><path d="m17.65 37.293-15.035 7.255v-5.38l15.016-7.177z"/></g><path d="m2.615 8.674h15.016" fill="none" stroke="#fff" stroke-miterlimit="10" stroke-width=".75"/><path d="m2.615 44.548h15.016" fill="none" stroke="#fff" stroke-miterlimit="10"/></svg>