<svg enable-background="new 0 0 50 50" height="50" viewBox="0 0 50 50" width="50" xmlns="http://www.w3.org/2000/svg" xmlns:xlink="http://www.w3.org/1999/xlink"><linearGradient id="a"><stop offset="0" stop-color="#7e5b44"/><stop offset=".9852" stop-color="#c96"/></linearGradient><linearGradient id="b" gradientUnits="userSpaceOnUse" x1="47.3892" x2="49.0859" xlink:href="#a" y1="23.4941" y2="23.4941"/><linearGradient id="c" gradientUnits="userSpaceOnUse" x1="47.3726" x2="49.1221" xlink:href="#a" y1="24.9473" y2="24.9473"/><linearGradient id="d" gradientUnits="userSpaceOnUse" x1="47.2671" x2="48.8921" xlink:href="#a" y1="21.7031" y2="21.7031"/><linearGradient id="e" gradientUnits="userSpaceOnUse" x1="47.0596" x2="48.6216" xlink:href="#a" y1="20.4971" y2="20.4971"/><linearGradient id="f" gradientUnits="userSpaceOnUse" x1="46.7559" x2="48.3013" xlink:href="#a" y1="19.2422" y2="19.2422"/><linearGradient id="g" gradientUnits="userSpaceOnUse" x1="46.4751" x2="47.9106" xlink:href="#a" y1="17.8809" y2="17.8809"/><linearGradient id="h" gradientUnits="userSpaceOnUse" x1="46.0132" x2="47.4487" xlink:href="#a" y1="16.6338" y2="16.6338"/><linearGradient id="i" gradientUnits="userSpaceOnUse" x1="45.4922" x2="46.8169" xlink:href="#a" y1="15.2549" y2="15.2549"/><linearGradient id="j" gradientUnits="userSpaceOnUse" x1="44.8721" x2="46.1147" xlink:href="#a" y1="13.7891" y2="13.7891"/><linearGradient id="k" gradientUnits="userSpaceOnUse" x1="44.1362" x2="45.3784" xlink:href="#a" y1="12.5547" y2="12.5547"/><linearGradient id="l" gradientUnits="userSpaceOnUse" x1="43.3984" x2="44.5957" xlink:href="#a" y1="11.4229" y2="11.4229"/><linearGradient id="m" gradientUnits="userSpaceOnUse" x1="42.6655" x2="43.793" xlink:href="#a" y1="10.2676" y2="10.2676"/><linearGradient id="n" gradientUnits="userSpaceOnUse" x1="41.8784" x2="42.9565" xlink:href="#a" y1="9.2686" y2="9.2686"/><linearGradient id="o" gradientUnits="userSpaceOnUse" x1="40.9478" x2="42.0259" xlink:href="#a" y1="8.2871" y2="8.2871"/><linearGradient id="p" gradientUnits="userSpaceOnUse" x1="39.9019" x2="40.9844" xlink:href="#a" y1="7.293" y2="7.293"/><linearGradient id="q" gradientUnits="userSpaceOnUse" x1="38.6533" x2="39.7866" xlink:href="#a" y1="6.2949" y2="6.2949"/><linearGradient id="r" gradientUnits="userSpaceOnUse" x1="37.5103" x2="38.7168" xlink:href="#a" y1="5.4521" y2="5.4521"/><linearGradient id="s" gradientUnits="userSpaceOnUse" x1="36.2729" x2="37.48" xlink:href="#a" y1="4.7109" y2="4.7109"/><linearGradient id="t" gradientUnits="userSpaceOnUse" x1="35.042" x2="36.25" xlink:href="#a" y1="4.0615" y2="4.0615"/><linearGradient id="u" gradientUnits="userSpaceOnUse" x1="33.7866" x2="35.0742" xlink:href="#a" y1="3.4551" y2="3.4551"/><linearGradient id="v" gradientUnits="userSpaceOnUse" x1="32.3755" x2="33.707" xlink:href="#a" y1="2.8711" y2="2.8711"/><linearGradient id="w" gradientUnits="userSpaceOnUse" x1="30.8633" x2="32.2378" xlink:href="#a" y1="2.3828" y2="2.3828"/><linearGradient id="x" gradientUnits="userSpaceOnUse" x1="29.4438" x2="30.8652" xlink:href="#a" y1="2.0352" y2="2.0352"/><linearGradient id="y" gradientUnits="userSpaceOnUse" x1="27.8018" x2="29.2881" xlink:href="#a" y1="1.709" y2="1.709"/><linearGradient id="z" gradientUnits="userSpaceOnUse" x1="26.1602" x2="27.6636" xlink:href="#a" y1="1.5146" y2="1.5146"/><linearGradient id="A" gradientUnits="userSpaceOnUse" x1="24.4985" x2="26.1289" xlink:href="#a" y1="1.415" y2="1.415"/><linearGradient id="B" gradientUnits="userSpaceOnUse" x1="22.8784" x2="24.6738" xlink:href="#a" y1="1.4941" y2="1.4941"/><linearGradient id="C" gradientUnits="userSpaceOnUse" x1="20.9648" x2="22.9365" xlink:href="#a" y1="1.6758" y2="1.6758"/><linearGradient id="D" gradientUnits="userSpaceOnUse" x1="19.2783" x2="21.2495" xlink:href="#a" y1="1.9492" y2="1.9492"/><linearGradient id="E" gradientUnits="userSpaceOnUse" x1="17.4126" x2="19.5459" xlink:href="#a" y1="2.2959" y2="2.2959"/><linearGradient id="F" gradientUnits="userSpaceOnUse" x1="15.8647" x2="18.1094" xlink:href="#a" y1="2.7715" y2="2.7715"/><linearGradient id="G" gradientUnits="userSpaceOnUse" x1="14.4712" x2="16.7158" xlink:href="#a" y1="3.3652" y2="3.3652"/><linearGradient id="H" gradientUnits="userSpaceOnUse" x1="13.2354" x2="15.5356" xlink:href="#a" y1="3.998" y2="3.998"/><linearGradient id="I" gradientUnits="userSpaceOnUse" x1="11.8052" x2="14.1826" xlink:href="#a" y1="4.6523" y2="4.6523"/><linearGradient id="J" gradientUnits="userSpaceOnUse" x1="10.5498" x2="12.9702" xlink:href="#a" y1="5.4404" y2="5.4404"/><linearGradient id="K" gradientUnits="userSpaceOnUse" x1="9.2021" x2="11.6221" xlink:href="#a" y1="6.3662" y2="6.3662"/><linearGradient id="L" gradientUnits="userSpaceOnUse" x1="8.2236" x2="10.6641" xlink:href="#a" y1="7.1631" y2="7.1631"/><linearGradient id="M" gradientUnits="userSpaceOnUse" x1="7.2446" x2="9.7002" xlink:href="#a" y1="8.0391" y2="8.0391"/><linearGradient id="N" gradientUnits="userSpaceOnUse" x1="6.1416" x2="8.6021" xlink:href="#a" y1="9.1035" y2="9.1035"/><linearGradient id="O" gradientUnits="userSpaceOnUse" x1="5.3286" x2="7.7886" xlink:href="#a" y1="10.0576" y2="10.0576"/><linearGradient id="P" gradientUnits="userSpaceOnUse" x1="4.4878" x2="6.9478" xlink:href="#a" y1="11.3477" y2="11.3477"/><linearGradient id="Q" gradientUnits="userSpaceOnUse" x1="3.606" x2="6.0435" xlink:href="#a" y1="12.6816" y2="12.6816"/><linearGradient id="R" gradientUnits="userSpaceOnUse" x1="2.8521" x2="5.2666" xlink:href="#a" y1="13.8975" y2="13.8975"/><linearGradient id="S" gradientUnits="userSpaceOnUse" x1="2.2368" x2="4.623" xlink:href="#a" y1="15.4395" y2="15.4395"/><linearGradient id="T" gradientUnits="userSpaceOnUse" x1="1.7002" x2="4.0483" xlink:href="#a" y1="16.9219" y2="16.9219"/><linearGradient id="U" gradientUnits="userSpaceOnUse" x1="1.2632" x2="3.5522" xlink:href="#a" y1="18.2773" y2="18.2773"/><linearGradient id="V" gradientUnits="userSpaceOnUse" x1=".8223" x2="3.0933" xlink:href="#a" y1="19.9023" y2="19.9023"/><linearGradient id="W" gradientUnits="userSpaceOnUse" x1=".5186" x2="2.6509" xlink:href="#a" y1="21.6055" y2="21.6055"/><linearGradient id="X" gradientUnits="userSpaceOnUse" x1=".4497" x2="2.606" xlink:href="#a" y1="23.0898" y2="23.0898"/><linearGradient id="Y" gradientUnits="userSpaceOnUse" x1=".5039" x2="2.3335" xlink:href="#a" y1="26.5801" y2="26.5801"/><linearGradient id="Z" gradientUnits="userSpaceOnUse" x1=".4058" x2="2.5098" xlink:href="#a" y1="24.6738" y2="24.6738"/><linearGradient id="aa" gradientUnits="userSpaceOnUse" x1=".7339" x2="2.5249" xlink:href="#a" y1="28.3457" y2="28.3457"/><linearGradient id="ab" gradientUnits="userSpaceOnUse" x1="1.0659" x2="2.7446" xlink:href="#a" y1="29.6855" y2="29.6855"/><linearGradient id="ac" gradientUnits="userSpaceOnUse" x1="1.5747" x2="3.104" xlink:href="#a" y1="31.2012" y2="31.2012"/><linearGradient id="ad" gradientUnits="userSpaceOnUse" x1="1.9844" x2="3.4048" xlink:href="#a" y1="32.5576" y2="32.5576"/><linearGradient id="ae" gradientUnits="userSpaceOnUse" x1="2.4658" x2="3.8857" xlink:href="#a" y1="33.7969" y2="33.7969"/><linearGradient id="af" gradientUnits="userSpaceOnUse" x1="3.1172" x2="4.4277" xlink:href="#a" y1="35.165" y2="35.165"/><linearGradient id="ag" gradientUnits="userSpaceOnUse" x1="3.8403" x2="5.0708" xlink:href="#a" y1="36.6211" y2="36.6211"/><linearGradient id="ah" gradientUnits="userSpaceOnUse" x1="4.5962" x2="5.8267" xlink:href="#a" y1="37.8428" y2="37.8428"/><linearGradient id="ai" gradientUnits="userSpaceOnUse" x1="5.3955" x2="6.5815" xlink:href="#a" y1="38.9609" y2="38.9609"/><linearGradient id="aj" gradientUnits="userSpaceOnUse" x1="6.2144" x2="7.332" xlink:href="#a" y1="40.1035" y2="40.1035"/><linearGradient id="ak" gradientUnits="userSpaceOnUse" x1="7.0669" x2="8.1348" xlink:href="#a" y1="41.0879" y2="41.0879"/><linearGradient id="al" gradientUnits="userSpaceOnUse" x1="8.0127" x2="9.0796" xlink:href="#a" y1="42.0547" y2="42.0547"/><linearGradient id="am" gradientUnits="userSpaceOnUse" x1="9.0688" x2="10.1646" xlink:href="#a" y1="43.0303" y2="43.0303"/><linearGradient id="an" gradientUnits="userSpaceOnUse" x1="10.2822" x2="11.4282" xlink:href="#a" y1="44.0078" y2="44.0078"/><linearGradient id="ao" gradientUnits="userSpaceOnUse" x1="11.3643" x2="12.5845" xlink:href="#a" y1="44.832" y2="44.832"/><linearGradient id="ap" gradientUnits="userSpaceOnUse" x1="12.6133" x2="13.832" xlink:href="#a" y1="45.5518" y2="45.5518"/><linearGradient id="aq" gradientUnits="userSpaceOnUse" x1="13.854" x2="15.0728" xlink:href="#a" y1="46.1816" y2="46.1816"/><linearGradient id="ar" gradientUnits="userSpaceOnUse" x1="15.0371" x2="16.3379" xlink:href="#a" y1="46.7676" y2="46.7676"/><linearGradient id="as" gradientUnits="userSpaceOnUse" x1="16.4131" x2="17.7578" xlink:href="#a" y1="47.3291" y2="47.3291"/><linearGradient id="at" gradientUnits="userSpaceOnUse" x1="17.8892" x2="19.2764" xlink:href="#a" y1="47.792" y2="47.792"/><linearGradient id="au" gradientUnits="userSpaceOnUse" x1="19.2656" x2="20.7007" xlink:href="#a" y1="48.1162" y2="48.1162"/><linearGradient id="av" gradientUnits="userSpaceOnUse" x1="20.8457" x2="22.3467" xlink:href="#a" y1="48.415" y2="48.415"/><linearGradient id="aw" gradientUnits="userSpaceOnUse" x1="22.4727" x2="23.9912" xlink:href="#a" y1="48.582" y2="48.582"/><linearGradient id="ax" gradientUnits="userSpaceOnUse" x1="24.0044" x2="25.6533" xlink:href="#a" y1="48.6543" y2="48.6543"/><linearGradient id="ay" gradientUnits="userSpaceOnUse" x1="25.4595" x2="27.2822" xlink:href="#a" y1="48.543" y2="48.543"/><linearGradient id="az" gradientUnits="userSpaceOnUse" x1="27.1958" x2="29.1924" xlink:href="#a" y1="48.333" y2="48.333"/><linearGradient id="aA" gradientUnits="userSpaceOnUse" x1="28.8784" x2="30.874" xlink:href="#a" y1="48.0312" y2="48.0312"/><linearGradient id="aB" gradientUnits="userSpaceOnUse" x1="30.5791" x2="32.7329" xlink:href="#a" y1="47.6562" y2="47.6562"/><linearGradient id="aC" gradientUnits="userSpaceOnUse" x1="32.0093" x2="34.2705" xlink:href="#a" y1="47.1592" y2="47.1592"/><linearGradient id="aD" gradientUnits="userSpaceOnUse" x1="33.3931" x2="35.6548" xlink:href="#a" y1="46.543" y2="46.543"/><linearGradient id="aE" gradientUnits="userSpaceOnUse" x1="34.5635" x2="36.8779" xlink:href="#a" y1="45.8906" y2="45.8906"/><linearGradient id="aF" gradientUnits="userSpaceOnUse" x1="35.9072" x2="38.2959" xlink:href="#a" y1="45.2148" y2="45.2148"/><linearGradient id="aG" gradientUnits="userSpaceOnUse" x1="37.1089" x2="39.5361" xlink:href="#a" y1="44.4082" y2="44.4082"/><linearGradient id="aH" gradientUnits="userSpaceOnUse" x1="38.4424" x2="40.8691" xlink:href="#a" y1="43.459" y2="43.459"/><linearGradient id="aI" gradientUnits="userSpaceOnUse" x1="39.3872" x2="41.8325" xlink:href="#a" y1="42.6475" y2="42.6475"/><linearGradient id="aJ" gradientUnits="userSpaceOnUse" x1="40.3384" x2="42.7959" xlink:href="#a" y1="41.7578" y2="41.7578"/><linearGradient id="aK" gradientUnits="userSpaceOnUse" x1="41.4204" x2="43.8784" xlink:href="#a" y1="40.6641" y2="40.6641"/><linearGradient id="aL" gradientUnits="userSpaceOnUse" x1="42.2188" x2="44.6768" xlink:href="#a" y1="39.6953" y2="39.6953"/><linearGradient id="aM" gradientUnits="userSpaceOnUse" x1="43.04" x2="45.4976" xlink:href="#a" y1="38.3916" y2="38.3916"/><linearGradient id="aN" gradientUnits="userSpaceOnUse" x1="43.9243" x2="46.355" xlink:href="#a" y1="37.0439" y2="37.0439"/><linearGradient id="aO" gradientUnits="userSpaceOnUse" x1="44.6826" x2="47.0894" xlink:href="#a" y1="35.8164" y2="35.8164"/><linearGradient id="aP" gradientUnits="userSpaceOnUse" x1="45.3027" x2="47.6792" xlink:href="#a" y1="34.2656" y2="34.2656"/><linearGradient id="aQ" gradientUnits="userSpaceOnUse" x1="45.8545" x2="48.1899" xlink:href="#a" y1="32.7754" y2="32.7754"/><linearGradient id="aR" gradientUnits="userSpaceOnUse" x1="46.3296" x2="48.604" xlink:href="#a" y1="31.4121" y2="31.4121"/><linearGradient id="aS" gradientUnits="userSpaceOnUse" x1="46.7632" x2="49.0176" xlink:href="#a" y1="29.7793" y2="29.7793"/><linearGradient id="aT" gradientUnits="userSpaceOnUse" x1="47.1797" x2="49.2925" xlink:href="#a" y1="28.0723" y2="28.0723"/><linearGradient id="aU" gradientUnits="userSpaceOnUse" x1="47.2012" x2="49.3379" xlink:href="#a" y1="26.5879" y2="26.5879"/><linearGradient id="aV"><stop offset=".0554" stop-color="#7e5b44"/><stop offset=".523" stop-color="#c96"/><stop offset="1" stop-color="#7e5b44"/></linearGradient><linearGradient id="aW" gradientUnits="userSpaceOnUse" x1="3.7212" x2="46.0244" xlink:href="#aV" y1="25.0762" y2="25.0762"/><linearGradient id="aX" gradientUnits="userSpaceOnUse" x1="2.5508" x2="47.1943" xlink:href="#aV" y1="25.042" y2="25.042"/><g fill="none" stroke-miterlimit="10"><g stroke-width=".75"><path d="m48.709 22.592s.047.474-.323 1.007c-.268.386-.955.462-.955.462" stroke="url(#b)"/><path d="m48.747 24.07s.022.476-.374.989c-.288.371-.979.411-.979.411" stroke="url(#c)"/><path d="m48.509 20.771s.08.47-.252 1.028c-.241.404-.922.529-.922.529" stroke="url(#d)"/><path d="m48.228 19.543s.108.463-.19 1.042c-.215.419-.887.587-.887.587" stroke="url(#e)"/><path d="m47.903 18.283s.116.462-.173 1.045c-.209.423-.878.602-.878.602" stroke="url(#f)"/><path d="m47.477 16.894s.166.445-.058 1.058c-.162.443-.807.696-.807.696" stroke="url(#g)"/><path d="m47.015 15.647s.166.445-.058 1.058c-.161.443-.807.697-.807.697" stroke="url(#h)"/><path d="m46.321 14.252s.218.422.068 1.057c-.107.459-.719.79-.719.79" stroke="url(#i)"/><path d="m45.553 12.782s.256.399.169 1.046c-.063.468-.64.858-.64.858" stroke="url(#j)"/><path d="m44.817 11.549s.255.398.168 1.045c-.063.468-.639.859-.639.859" stroke="url(#k)"/><path d="m43.986 10.42s.278.382.229 1.034c-.036.471-.588.895-.588.895" stroke="url(#l)"/><path d="m43.087 9.278s.315.351.331 1.004c.013.473-.495.952-.495.952" stroke="url(#m)"/><path d="m42.171 8.297s.342.325.407.975c.047.47-.422.987-.422.987" stroke="url(#n)"/><path d="m41.24 7.315s.343.326.407.975c.047.47-.422.988-.422.988" stroke="url(#o)"/><path d="m40.146 6.335s.358.307.456.953c.072.467-.37 1.009-.37 1.009" stroke="url(#p)"/><path d="m38.878 5.36s.377.282.518.919c.101.461-.305 1.032-.305 1.032" stroke="url(#q)"/><path d="m37.705 4.559s.401.244.602.864c.145.449-.205 1.057-.205 1.057" stroke="url(#r)"/><path d="m36.467 3.818s.402.243.603.864c.146.449-.204 1.057-.204 1.057" stroke="url(#s)"/><path d="m35.236 3.168s.403.244.604.864c.145.449-.205 1.057-.205 1.057" stroke="url(#t)"/><path d="m33.945 2.615s.426.199.688.795c.19.431-.095 1.073-.095 1.073" stroke="url(#u)"/><path d="m32.516 2.062s.435.175.73.755c.213.419-.037 1.077-.037 1.077" stroke="url(#v)"/><path d="m30.985 1.605s.443.152.768.716c.235.408.019 1.077.019 1.077" stroke="url(#w)"/><path d="m29.544 1.296s.451.125.807.669c.257.393.079 1.075.079 1.075" stroke="url(#x)"/><path d="m27.876 1.022s.459.092.853.608c.283.373.156 1.065.156 1.065" stroke="url(#y)"/><path d="m26.227.842s.461.083.864.591c.292.368.175 1.062.175 1.062" stroke="url(#z)"/><path d="m24.518.842s.467.023.93.476c.335.327.306 1.03.306 1.03" stroke="url(#A)"/><path d="m22.903.992s.467-.031.978.365c.369.286.419.989.419.989" stroke="url(#B)"/><path d="m21.032 1.241s.46-.084 1.011.252c.398.243.524.936.524.936" stroke="url(#C)"/><path d="m19.346 1.514s.461-.083 1.011.252c.398.244.524.936.524.936" stroke="url(#D)"/><path d="m17.523 1.952s.447-.14 1.033.126c.423.192.631.864.631.864" stroke="url(#E)"/><path d="m16.011 2.514s.432-.184 1.041.023c.44.149.711.797.711.797" stroke="url(#F)"/><path d="m14.618 3.107s.432-.184 1.041.022c.44.149.711.797.711.797" stroke="url(#G)"/><path d="m13.402 3.799s.42-.209 1.04-.04c.449.123.757.753.757.753" stroke="url(#H)"/><path d="m12.006 4.566s.397-.252 1.031-.148c.458.076.828.67.828.67" stroke="url(#I)"/><path d="m10.775 5.447s.377-.283 1.017-.229c.462.04.875.604.875.604" stroke="url(#J)"/><path d="m9.427 6.373s.376-.282 1.016-.228c.462.039.876.604.876.604" stroke="url(#K)"/><path d="m8.464 7.236s.362-.302 1.003-.282c.464.014.906.557.906.557" stroke="url(#L)"/><path d="m7.503 8.2s.342-.326.983-.349c.463-.017.94.494.94.494" stroke="url(#M)"/><path d="m6.426 9.394s.309-.358.945-.444c.46-.062.983.398.983.398" stroke="url(#N)"/><path d="m5.612 10.348s.31-.358.945-.444c.46-.062.983.399.983.399" stroke="url(#O)"/><path d="m4.771 11.638s.309-.357.945-.444c.46-.062.983.399.983.399" stroke="url(#P)"/><path d="m3.914 13.043s.271-.389.895-.543c.451-.11 1.019.292 1.019.292" stroke="url(#Q)"/><path d="m3.171 14.298s.249-.404.863-.592c.444-.137 1.033.234 1.033.234" stroke="url(#R)"/><path d="m2.565 15.876s.228-.416.832-.637c.437-.16 1.043.179 1.043.179" stroke="url(#S)"/><path d="m2.039 17.4s.204-.429.794-.684c.427-.185 1.051.118 1.051.118" stroke="url(#T)"/><path d="m1.613 18.81s.173-.443.744-.741c.413-.216 1.057.04 1.057.04" stroke="url(#U)"/><path d="m1.174 20.451s.165-.447.73-.756c.408-.224 1.058.02 1.058.02" stroke="url(#V)"/><path d="m.884 22.254s.108-.464.629-.844c.377-.275 1.052-.118 1.052-.118" stroke="url(#W)"/><path d="m.813 23.721s.117-.461.646-.831c.382-.267 1.054-.095 1.054-.095" stroke="url(#X)"/><path d="m.879 27.411s.011-.477.443-.958c.313-.349 1.005-.337 1.005-.337" stroke="url(#Y)"/><path d="m.773 25.341s.098-.466.611-.858c.371-.284 1.049-.141 1.049-.141" stroke="url(#Z)"/><path d="m1.109 29.2s-.002-.477.417-.971c.303-.358.995-.366.995-.366" stroke="url(#aa)"/><path d="m1.444 30.597s-.056-.474.305-1.014c.261-.391.948-.479.948-.479" stroke="url(#ab)"/><path d="m1.977 32.165s-.124-.46.155-1.048c.202-.424.868-.616.868-.616" stroke="url(#ac)"/><path d="m2.425 33.547s-.173-.442.041-1.059c.155-.445.796-.71.796-.71" stroke="url(#ad)"/><path d="m2.907 34.786s-.173-.443.041-1.06c.154-.445.795-.709.795-.709" stroke="url(#ae)"/><path d="m3.622 36.169s-.224-.419-.084-1.057c.1-.46.706-.801.706-.801" stroke="url(#af)"/><path d="m4.416 37.626s-.263-.395-.187-1.043c.056-.468.625-.868.625-.868" stroke="url(#ag)"/><path d="m5.171 38.849s-.263-.395-.186-1.043c.056-.47.625-.87.625-.87" stroke="url(#ah)"/><path d="m6.021 39.962s-.286-.377-.246-1.029c.028-.472.574-.905.574-.905" stroke="url(#ai)"/><path d="m6.938 41.089s-.321-.346-.348-.999c-.019-.472.48-.96.48-.96" stroke="url(#aj)"/><path d="m7.869 42.055s-.347-.319-.422-.969c-.055-.468.406-.994.406-.994" stroke="url(#ak)"/><path d="m8.815 43.021s-.348-.319-.423-.968c-.055-.47.406-.994.406-.994" stroke="url(#al)"/><path d="m9.925 43.981s-.363-.301-.472-.944c-.078-.466.355-1.015.355-1.015" stroke="url(#am)"/><path d="m11.208 44.937s-.382-.276-.532-.911c-.108-.46.288-1.036.288-1.036" stroke="url(#an)"/><path d="m12.395 45.719s-.407-.238-.617-.854c-.151-.446.188-1.061.188-1.061" stroke="url(#ao)"/><path d="m13.643 46.438s-.406-.236-.616-.854c-.152-.446.188-1.061.188-1.061" stroke="url(#ap)"/><path d="m14.884 47.066s-.406-.236-.617-.853c-.151-.447.188-1.061.188-1.061" stroke="url(#aq)"/><path d="m16.184 47.599s-.428-.192-.701-.783c-.197-.429.078-1.075.078-1.075" stroke="url(#ar)"/><path d="m17.624 48.127s-.438-.168-.742-.742c-.22-.416.019-1.077.019-1.077" stroke="url(#as)"/><path d="m19.161 48.559s-.446-.145-.779-.703c-.241-.403-.036-1.077-.036-1.077" stroke="url(#at)"/><path d="m20.607 48.843s-.453-.117-.817-.655c-.264-.389-.097-1.072-.097-1.072" stroke="url(#au)"/><path d="m22.279 49.09s-.461-.084-.862-.594c-.291-.368-.173-1.062-.173-1.062" stroke="url(#av)"/><path d="m23.931 49.242s-.462-.075-.873-.576c-.297-.362-.193-1.059-.193-1.059" stroke="url(#aw)"/><path d="m25.641 49.215s-.469-.016-.938-.46c-.34-.321-.323-1.026-.323-1.026" stroke="url(#ax)"/><path d="m27.251 49.037s-.466.039-.983-.348c-.374-.28-.435-.982-.435-.982" stroke="url(#ay)"/><path d="m29.119 48.757s-.46.092-1.016-.234c-.402-.236-.54-.927-.54-.927" stroke="url(#az)"/><path d="m30.8 48.455s-.459.093-1.015-.234c-.402-.236-.539-.927-.539-.927" stroke="url(#aA)"/><path d="m32.615 47.988s-.445.147-1.035-.109c-.427-.186-.645-.854-.645-.854" stroke="url(#aB)"/><path d="m34.118 47.4s-.429.19-1.041-.005c-.442-.142-.725-.785-.725-.785" stroke="url(#aC)"/><path d="m35.502 46.783s-.429.191-1.041-.005c-.442-.142-.725-.785-.725-.785" stroke="url(#aD)"/><path d="m36.705 46.072s-.416.216-1.039.057c-.45-.115-.769-.74-.769-.74" stroke="url(#aE)"/><path d="m38.09 45.281s-.394.259-1.028.166c-.46-.068-.839-.657-.839-.657" stroke="url(#aF)"/><path d="m39.307 44.381s-.373.289-1.014.245c-.462-.031-.886-.589-.886-.589" stroke="url(#aG)"/><path d="m40.64 43.432s-.373.289-1.013.245c-.464-.03-.886-.588-.886-.588" stroke="url(#aH)"/><path d="m41.588 42.554s-.357.308-.998.298c-.465-.006-.916-.541-.916-.541" stroke="url(#aI)"/><path d="m42.533 41.574s-.336.33-.978.365c-.463.023-.947-.479-.947-.479" stroke="url(#aJ)"/><path d="m43.591 40.362s-.303.362-.938.46c-.458.07-.988-.383-.988-.383" stroke="url(#aK)"/><path d="m44.389 39.395s-.303.363-.938.46c-.459.07-.989-.382-.989-.382" stroke="url(#aL)"/><path d="m45.209 38.09s-.303.364-.938.461c-.459.069-.988-.382-.988-.382" stroke="url(#aM)"/><path d="m46.044 36.671s-.265.394-.885.558c-.45.118-1.022-.275-1.022-.275" stroke="url(#aN)"/><path d="m46.768 35.404s-.243.407-.854.606c-.441.144-1.036-.217-1.036-.217" stroke="url(#aO)"/><path d="m47.348 33.815s-.222.42-.822.651c-.435.167-1.045-.162-1.045-.162" stroke="url(#aP)"/><path d="m47.849 32.283s-.196.433-.783.698c-.423.191-1.054-.1-1.054-.1" stroke="url(#aQ)"/><path d="m48.253 30.866s-.167.446-.732.754c-.409.224-1.058-.022-1.058-.022" stroke="url(#aR)"/><path d="m48.664 29.219s-.158.449-.718.767c-.404.231-1.058-.001-1.058-.001" stroke="url(#aS)"/><path d="m48.926 27.411s-.101.466-.616.854c-.373.282-1.05.135-1.05.135" stroke="url(#aT)"/><path d="m48.973 25.942s-.109.463-.633.841c-.379.273-1.052.113-1.052.113" stroke="url(#aU)"/></g><ellipse cx="24.873" cy="25.076" rx="20.901" ry="20.667" stroke="url(#aW)" stroke-width=".5"/><ellipse cx="24.873" cy="25.042" rx="21.946" ry="21.762" stroke="url(#aX)" stroke-width=".75"/></g></svg>