<?xml version="1.0" encoding="utf-8"?>
<!-- Generator: Adobe Illustrator 16.0.0, SVG Export Plug-In . SVG Version: 6.00 Build 0)  -->
<!DOCTYPE svg PUBLIC "-//W3C//DTD SVG 1.1//EN" "http://www.w3.org/Graphics/SVG/1.1/DTD/svg11.dtd">
<svg version="1.1" xmlns="http://www.w3.org/2000/svg" xmlns:xlink="http://www.w3.org/1999/xlink" x="0px" y="0px" width="500px"
	 height="226px" viewBox="0 0 500 226" enable-background="new 0 0 500 226" xml:space="preserve">
<g id="Layer_1" display="none">
	<rect display="inline" stroke="#000000" stroke-miterlimit="10" width="500" height="226"/>
</g>
<g id="Text">
	<text transform="matrix(1.2052 0 0 1 135.1821 149.4438)" fill="#FFFFFF" font-family="'LucidaGrande'" font-size="28.7652">BARBER SHOP</text>
	<text transform="matrix(1.1314 0 0 1 143.4126 192.061)"><tspan x="0" y="0" fill="#C49A6C" font-family="'LucidaGrande'" font-size="21.382">TAILORED CUTS &amp;</tspan><tspan x="7.945" y="25.658" fill="#C49A6C" font-family="'LucidaGrande'" font-size="21.382">CLASSIC SHAVES</tspan></text>
	<g id="Layer_3">
		<text transform="matrix(0.5166 0 0 1 3.3335 95.1948)" fill="#FFFFFF" font-family="'Modern-Regular'" font-size="115.4102">THE B</text>
		<text transform="matrix(0.5166 0 0 1 260.3062 95.1948)" fill="#FFFFFF" font-family="'Modern-Regular'" font-size="115.4102">RBEROS</text>
		
			<linearGradient id="SVGID_1_" gradientUnits="userSpaceOnUse" x1="-369.3091" y1="389.4233" x2="-310.6631" y2="389.4233" gradientTransform="matrix(1 0 0 -1 564 444.3076)">
			<stop  offset="0.0545" style="stop-color:#7E5B44"/>
			<stop  offset="0.523" style="stop-color:#CC9966"/>
			<stop  offset="0.9415" style="stop-color:#7E5B44"/>
		</linearGradient>
		<path fill="url(#SVGID_1_)" d="M252.812,94.822c-2.246-4.722-30.005-68.791-30.005-68.791s-2.033-4.519-3.69-5.839
			c0.535-1.827,1.053-3.72,1.188-5.255c0.162-1.824,0.096-4.948-4.558-6.625c-4.653-1.675-6.893,1.893-8.022,3.047
			c-1.235-0.916-2.62-5.584-2.62-5.584s-1.071-2.031-2.355-1.574c-1.284,0.458-1.123,1.522-0.962,2.589
			c0.161,1.066,4.654,8.884,4.654,8.884s-10.216,36.451-10.698,49.042c-0.45,11.794-1.765,26.804-0.552,32.765
			c1.183,5.816,6.33,8.159,9.484,8.153c4.336-0.01,10.833-3.827,10.27-10.205c-0.592-6.692-2.515-16.294-1.926-31.374
			c0.226-5.792,1.938-22.418,2.728-26.451c1.605,2.894,5.509,9.139,5.509,9.139s-4.065,3.909-2.459,7.719
			c1.604,3.806,19.527,44.997,19.527,44.997s4.914,8.866,11.92,4.196C253.938,101.194,253.636,96.552,252.812,94.822z
			 M204.783,97.512c-1.92,0-3.477-1.477-3.477-3.3c0-1.822,1.556-3.301,3.477-3.301c1.921,0,3.477,1.479,3.477,3.301
			C208.26,96.036,206.704,97.512,204.783,97.512z M212.485,20.701c-1.003,0-1.818-0.773-1.818-1.727s0.815-1.726,1.818-1.726
			c1.004,0,1.818,0.772,1.818,1.726S213.489,20.701,212.485,20.701z M216.497,32.226c-0.375-0.864,1.604-7.921,1.604-7.921h0.214
			l9.199,20.867l-3.157,0.255C224.359,45.426,216.871,33.089,216.497,32.226z M248.266,100.661c-3.525,2.596-5.96-0.767-6.62-2.12
			c-5.499-11.3-18.623-42.608-19.662-45.351c-1.041-2.741,2.268-4.466,2.268-4.466c4.546-1.22,5.295,1.421,5.295,1.421
			S248,91.521,249.067,94.211C250.139,96.902,250.887,98.732,248.266,100.661z"/>
	</g>
</g>
</svg>
