<svg enable-background="new 0 0 50 50" height="50" viewBox="0 0 50 50" width="50" xmlns="http://www.w3.org/2000/svg" xmlns:xlink="http://www.w3.org/1999/xlink"><linearGradient id="a" gradientUnits="userSpaceOnUse" x1=".0386" x2="49.9609" y1="25.061" y2="25.061"><stop offset=".0545" stop-color="#7e5a43"/><stop offset=".523" stop-color="#c96"/><stop offset=".9415" stop-color="#7e5a43"/></linearGradient><path d="m2.039 4.14v41.648c0 1.595 2.126 2.249 2.44 2.249h23.425l-.047-17.281h-5.75v-7.018l5.845-.096s0 0 0-5.576c.141-11.584 13.859-8.219 13.859-8.219v6.104c-6.083-.167-6.927.818-6.882 2.787.021 1.238.046 4.952.046 4.952l6.6.047-.942 6.828-5.703.095v17.35l10.817-.045c1.063.072 2.153-1.187 2.151-2.298l.063-40.705c0-2.177-1.471-2.877-2.263-2.877h-41.654c-.35.052-1.619.508-2.005 2.055z" fill="none" stroke="url(#a)" stroke-miterlimit="10" stroke-width="4"/></svg>