<?xml version="1.0" encoding="utf-8"?>
<!-- Generator: Adobe Illustrator 16.0.0, SVG Export Plug-In . SVG Version: 6.00 Build 0)  -->
<!DOCTYPE svg PUBLIC "-//W3C//DTD SVG 1.1//EN" "http://www.w3.org/Graphics/SVG/1.1/DTD/svg11.dtd">
<svg version="1.1" id="Layer_1" xmlns="http://www.w3.org/2000/svg" xmlns:xlink="http://www.w3.org/1999/xlink" x="0px" y="0px"
	 width="50px" height="50px" viewBox="0 0 50 50" enable-background="new 0 0 50 50" xml:space="preserve">
<linearGradient id="SVGID_1_" gradientUnits="userSpaceOnUse" x1="0.0386" y1="25.061" x2="49.9609" y2="25.061">
	<stop  offset="0.0545" style="stop-color:#7E5A43"/>
	<stop  offset="0.523" style="stop-color:#CC9966"/>
	<stop  offset="0.9415" style="stop-color:#7E5A43"/>
</linearGradient>
<path fill="none" stroke="url(#SVGID_1_)" stroke-width="4" stroke-miterlimit="10" d="M2.039,4.14v41.648
	c0,1.595,2.126,2.249,2.44,2.249h23.425l-0.047-17.281h-5.75v-7.018l5.845-0.096c0,0,0,0,0-5.576
	c0.141-11.584,13.859-8.219,13.859-8.219v6.104c-6.083-0.167-6.927,0.818-6.882,2.787c0.021,1.238,0.046,4.952,0.046,4.952
	l6.6,0.047l-0.942,6.828l-5.703,0.095v17.35l10.817-0.045c1.063,0.072,2.153-1.187,2.151-2.298l0.063-40.705
	c0-2.177-1.471-2.877-2.263-2.877H4.044C3.694,2.137,2.425,2.593,2.039,4.14z"/>
</svg>
