<svg enable-background="new 0 0 20 40" height="40" viewBox="0 0 20 40" width="20" xmlns="http://www.w3.org/2000/svg"><path d="m.171 0h19.658v40h-19.658z"/><g fill="none" stroke="#fff" stroke-miterlimit="10"><path d="m4.593 5.395s-3.193 13.831-3.343 18.608c-.142 4.476-.552 10.172-.173 12.434.37 2.206 1.979 3.096 2.965 3.093 1.354-.003 3.386-1.452 3.209-3.872-.185-2.54-.786-6.183-.602-11.904.071-2.198.606-8.506.853-10.037.502 1.098 1.722 3.467 1.722 3.467s-1.271 1.484-.769 2.929c.501 1.444 6.104 17.074 6.104 17.074s1.535 3.363 3.726 1.592c1.154-.935 1.06-2.695.803-3.352-.702-1.791-9.379-26.102-9.379-26.102s-.635-1.715-1.153-2.216c.167-.693.329-1.412.371-1.995.051-.692.03-1.878-1.425-2.514-1.455-.634-2.155.72-2.507 1.157-.387-.347-.82-2.118-.82-2.118s-.334-.771-.736-.597c-.401.173-.351.577-.3.982.05.404 1.454 3.371 1.454 3.371z"/><ellipse cx="6.482" cy="6.647" rx=".568" ry=".655" stroke-width=".5"/><ellipse cx="4.075" cy="35.196" rx="1.086" ry="1.252" stroke-width=".5"/><path d="m8.305 8.67h-.067s-.619 2.677-.501 3.004c.117.328 2.457 5.009 2.457 5.009l.986-.097z" stroke-width=".5"/><path d="m17.917 35.195c-.334-1.02-6.102-16.72-6.102-16.72s-.233-1.002-1.655-.54c0 0-1.035.654-.71 1.694.326 1.041 4.428 12.92 6.147 17.208.205.514.967 1.789 2.069.804.819-.731.586-1.425.251-2.446z" stroke-width=".5"/></g></svg>