<?xml version="1.0" encoding="utf-8"?>
<!-- Generator: Adobe Illustrator 16.0.0, SVG Export Plug-In . SVG Version: 6.00 Build 0)  -->
<!DOCTYPE svg PUBLIC "-//W3C//DTD SVG 1.1//EN" "http://www.w3.org/Graphics/SVG/1.1/DTD/svg11.dtd">
<svg version="1.1" xmlns="http://www.w3.org/2000/svg" xmlns:xlink="http://www.w3.org/1999/xlink" x="0px" y="0px" width="20px"
	 height="40px" viewBox="0 0 20 40" enable-background="new 0 0 20 40" xml:space="preserve">
<g id="Layer_1">
	<rect x="0.171" width="19.658" height="40"/>
</g>
<g id="Layer_2">
	<path fill="none" stroke="#FFFFFF" stroke-miterlimit="10" d="M4.593,5.395c0,0-3.193,13.831-3.343,18.608
		c-0.142,4.476-0.552,10.172-0.173,12.434c0.37,2.206,1.979,3.096,2.965,3.093c1.354-0.003,3.386-1.452,3.209-3.872
		c-0.185-2.54-0.786-6.183-0.602-11.904c0.071-2.198,0.606-8.506,0.853-10.037c0.502,1.098,1.722,3.467,1.722,3.467
		s-1.271,1.484-0.769,2.929c0.501,1.444,6.104,17.074,6.104,17.074s1.535,3.363,3.726,1.592c1.154-0.935,1.06-2.695,0.803-3.352
		C18.386,33.636,9.709,9.325,9.709,9.325S9.074,7.61,8.556,7.109c0.167-0.693,0.329-1.412,0.371-1.995
		c0.051-0.692,0.03-1.878-1.425-2.514C6.047,1.966,5.347,3.32,4.995,3.757C4.608,3.41,4.175,1.639,4.175,1.639
		S3.841,0.868,3.439,1.042c-0.401,0.173-0.351,0.577-0.3,0.982C3.189,2.428,4.593,5.395,4.593,5.395z"/>
	<ellipse fill="none" stroke="#FFFFFF" stroke-width="0.5" stroke-miterlimit="10" cx="6.482" cy="6.647" rx="0.568" ry="0.655"/>
	<ellipse fill="none" stroke="#FFFFFF" stroke-width="0.5" stroke-miterlimit="10" cx="4.075" cy="35.196" rx="1.086" ry="1.252"/>
	<path fill="none" stroke="#FFFFFF" stroke-width="0.5" stroke-miterlimit="10" d="M8.305,8.67H8.238c0,0-0.619,2.677-0.501,3.004
		c0.117,0.328,2.457,5.009,2.457,5.009l0.986-0.097L8.305,8.67z"/>
	<path fill="none" stroke="#FFFFFF" stroke-width="0.5" stroke-miterlimit="10" d="M17.917,35.195
		c-0.334-1.02-6.102-16.72-6.102-16.72s-0.233-1.002-1.655-0.54c0,0-1.035,0.654-0.71,1.694c0.326,1.041,4.428,12.92,6.147,17.208
		c0.205,0.514,0.967,1.789,2.069,0.804C18.485,36.91,18.252,36.216,17.917,35.195z"/>
</g>
</svg>
