<?xml version="1.0" encoding="utf-8"?>
<!-- Generator: Adobe Illustrator 16.0.0, SVG Export Plug-In . SVG Version: 6.00 Build 0)  -->
<!DOCTYPE svg PUBLIC "-//W3C//DTD SVG 1.1//EN" "http://www.w3.org/Graphics/SVG/1.1/DTD/svg11.dtd">
<svg version="1.1" xmlns="http://www.w3.org/2000/svg" xmlns:xlink="http://www.w3.org/1999/xlink" x="0px" y="0px" width="800px"
	 height="800px" viewBox="0 0 800 800" enable-background="new 0 0 800 800" xml:space="preserve">
<g id="Layer_1">
	<linearGradient id="SVGID_1_" gradientUnits="userSpaceOnUse" x1="748.4082" y1="371.2051" x2="771.7314" y2="371.2051">
		<stop  offset="0" style="stop-color:#7E5A43"/>
		<stop  offset="0.9852" style="stop-color:#CC9966"/>
	</linearGradient>
	<path fill="none" stroke="url(#SVGID_1_)" stroke-width="6" stroke-miterlimit="10" d="M768.7,358.591
		c0,0,0.745,7.275-5.039,15.458c-4.183,5.919-14.927,7.093-14.927,7.093"/>
	<linearGradient id="SVGID_2_" gradientUnits="userSpaceOnUse" x1="747.9971" y1="393.4302" x2="772.3027" y2="393.4302">
		<stop  offset="0" style="stop-color:#7E5A43"/>
		<stop  offset="0.9852" style="stop-color:#CC9966"/>
	</linearGradient>
	<path fill="none" stroke="url(#SVGID_2_)" stroke-width="6" stroke-miterlimit="10" d="M769.299,381.275
		c0,0,0.357,7.305-5.853,15.169c-4.49,5.689-15.282,6.292-15.282,6.292"/>
	<linearGradient id="SVGID_3_" gradientUnits="userSpaceOnUse" x1="746.7041" y1="343.8228" x2="768.7139" y2="343.8228">
		<stop  offset="0" style="stop-color:#7E5A43"/>
		<stop  offset="0.9852" style="stop-color:#CC9966"/>
	</linearGradient>
	<path fill="none" stroke="url(#SVGID_3_)" stroke-width="6" stroke-miterlimit="10" d="M765.582,330.658
		c0,0,1.249,7.206-3.949,15.772c-3.76,6.197-14.396,8.117-14.396,8.117"/>
	<linearGradient id="SVGID_4_" gradientUnits="userSpaceOnUse" x1="743.6445" y1="325.4224" x2="764.4756" y2="325.4224">
		<stop  offset="0" style="stop-color:#7E5A43"/>
		<stop  offset="0.9852" style="stop-color:#CC9966"/>
	</linearGradient>
	<path fill="none" stroke="url(#SVGID_4_)" stroke-width="6" stroke-miterlimit="10" d="M761.173,311.818
		c0,0,1.698,7.113-2.952,15.988c-3.365,6.42-13.859,9.003-13.859,9.003"/>
	<linearGradient id="SVGID_5_" gradientUnits="userSpaceOnUse" x1="738.9473" y1="306.1997" x2="759.4756" y2="306.1997">
		<stop  offset="0" style="stop-color:#7E5A43"/>
		<stop  offset="0.9852" style="stop-color:#CC9966"/>
	</linearGradient>
	<path fill="none" stroke="url(#SVGID_5_)" stroke-width="6" stroke-miterlimit="10" d="M756.115,292.49
		c0,0,1.813,7.084-2.691,16.035c-3.261,6.474-13.712,9.228-13.712,9.228"/>
	<linearGradient id="SVGID_6_" gradientUnits="userSpaceOnUse" x1="734.8701" y1="285.4995" x2="753.3809" y2="285.4995">
		<stop  offset="0" style="stop-color:#7E5A43"/>
		<stop  offset="0.9852" style="stop-color:#CC9966"/>
	</linearGradient>
	<path fill="none" stroke="url(#SVGID_6_)" stroke-width="6" stroke-miterlimit="10" d="M749.458,271.17
		c0,0,2.586,6.84-0.901,16.234c-2.523,6.795-12.606,10.688-12.606,10.688"/>
	<linearGradient id="SVGID_7_" gradientUnits="userSpaceOnUse" x1="727.6543" y1="266.373" x2="746.166" y2="266.373">
		<stop  offset="0" style="stop-color:#7E5A43"/>
		<stop  offset="0.9852" style="stop-color:#CC9966"/>
	</linearGradient>
	<path fill="none" stroke="url(#SVGID_7_)" stroke-width="6" stroke-miterlimit="10" d="M742.243,252.043
		c0,0,2.586,6.84-0.902,16.234c-2.523,6.795-12.606,10.688-12.606,10.688"/>
	<linearGradient id="SVGID_8_" gradientUnits="userSpaceOnUse" x1="719.8359" y1="245.4395" x2="736.293" y2="245.4395">
		<stop  offset="0" style="stop-color:#7E5A43"/>
		<stop  offset="0.9852" style="stop-color:#CC9966"/>
	</linearGradient>
	<path fill="none" stroke="url(#SVGID_8_)" stroke-width="6" stroke-miterlimit="10" d="M731.415,230.635
		c0,0,3.391,6.479,1.06,16.224c-1.688,7.049-11.229,12.126-11.229,12.126"/>
	<linearGradient id="SVGID_9_" gradientUnits="userSpaceOnUse" x1="710.3916" y1="223.1211" x2="725.3223" y2="223.1211">
		<stop  offset="0" style="stop-color:#7E5A43"/>
		<stop  offset="0.9852" style="stop-color:#CC9966"/>
	</linearGradient>
	<path fill="none" stroke="url(#SVGID_9_)" stroke-width="6" stroke-miterlimit="10" d="M719.396,208.089
		c0,0,4.009,6.116,2.643,16.042c-0.987,7.181-9.984,13.169-9.984,13.169"/>
	<linearGradient id="SVGID_10_" gradientUnits="userSpaceOnUse" x1="698.8916" y1="204.1836" x2="713.8232" y2="204.1836">
		<stop  offset="0" style="stop-color:#7E5A43"/>
		<stop  offset="0.9852" style="stop-color:#CC9966"/>
	</linearGradient>
	<path fill="none" stroke="url(#SVGID_10_)" stroke-width="6" stroke-miterlimit="10" d="M707.896,189.151
		c0,0,4.009,6.116,2.645,16.042c-0.988,7.181-9.986,13.169-9.986,13.169"/>
	<linearGradient id="SVGID_11_" gradientUnits="userSpaceOnUse" x1="687.5068" y1="186.9346" x2="701.5986" y2="186.9346">
		<stop  offset="0" style="stop-color:#7E5A43"/>
		<stop  offset="0.9852" style="stop-color:#CC9966"/>
	</linearGradient>
	<path fill="none" stroke="url(#SVGID_11_)" stroke-width="6" stroke-miterlimit="10" d="M694.921,171.835
		c0,0,4.363,5.869,3.585,15.859c-0.564,7.227-9.192,13.735-9.192,13.735"/>
	<linearGradient id="SVGID_12_" gradientUnits="userSpaceOnUse" x1="676.2764" y1="169.4082" x2="689.0605" y2="169.4082">
		<stop  offset="0" style="stop-color:#7E5A43"/>
		<stop  offset="0.9852" style="stop-color:#CC9966"/>
	</linearGradient>
	<path fill="none" stroke="url(#SVGID_12_)" stroke-width="6" stroke-miterlimit="10" d="M680.868,154.316
		c0,0,4.941,5.392,5.189,15.409c0.178,7.247-7.739,14.603-7.739,14.603"/>
	<linearGradient id="SVGID_13_" gradientUnits="userSpaceOnUse" x1="664.1338" y1="154.2383" x2="675.9824" y2="154.2383">
		<stop  offset="0" style="stop-color:#7E5A43"/>
		<stop  offset="0.9852" style="stop-color:#CC9966"/>
	</linearGradient>
	<path fill="none" stroke="url(#SVGID_13_)" stroke-width="6" stroke-miterlimit="10" d="M666.572,139.257
		c0,0,5.34,4.995,6.358,14.964c0.736,7.211-6.592,15.155-6.592,15.155"/>
	<linearGradient id="SVGID_14_" gradientUnits="userSpaceOnUse" x1="649.6025" y1="139.1782" x2="661.4502" y2="139.1782">
		<stop  offset="0" style="stop-color:#7E5A43"/>
		<stop  offset="0.9852" style="stop-color:#CC9966"/>
	</linearGradient>
	<path fill="none" stroke="url(#SVGID_14_)" stroke-width="6" stroke-miterlimit="10" d="M652.039,124.197
		c0,0,5.342,4.996,6.359,14.964c0.736,7.211-6.591,15.155-6.591,15.155"/>
	<linearGradient id="SVGID_15_" gradientUnits="userSpaceOnUse" x1="633.0049" y1="124.0269" x2="645.1865" y2="124.0269">
		<stop  offset="0" style="stop-color:#7E5A43"/>
		<stop  offset="0.9852" style="stop-color:#CC9966"/>
	</linearGradient>
	<path fill="none" stroke="url(#SVGID_15_)" stroke-width="6" stroke-miterlimit="10" d="M634.938,109.17
		c0,0,5.593,4.711,7.128,14.613c1.11,7.163-5.794,15.478-5.794,15.478"/>
	<linearGradient id="SVGID_16_" gradientUnits="userSpaceOnUse" x1="613.3574" y1="108.8418" x2="626.4668" y2="108.8418">
		<stop  offset="0" style="stop-color:#7E5A43"/>
		<stop  offset="0.9852" style="stop-color:#CC9966"/>
	</linearGradient>
	<path fill="none" stroke="url(#SVGID_16_)" stroke-width="6" stroke-miterlimit="10" d="M615.134,94.203
		c0,0,5.894,4.331,8.08,14.109c1.581,7.074-4.758,15.827-4.758,15.827"/>
	<linearGradient id="SVGID_17_" gradientUnits="userSpaceOnUse" x1="595.2646" y1="96.1045" x2="609.7607" y2="96.1045">
		<stop  offset="0" style="stop-color:#7E5A43"/>
		<stop  offset="0.9852" style="stop-color:#CC9966"/>
	</linearGradient>
	<path fill="none" stroke="url(#SVGID_17_)" stroke-width="6" stroke-miterlimit="10" d="M596.798,81.9
		c0,0,6.286,3.737,9.414,13.257c2.262,6.887-3.197,16.214-3.197,16.214"/>
	<linearGradient id="SVGID_18_" gradientUnits="userSpaceOnUse" x1="575.9404" y1="84.749" x2="590.4355" y2="84.749">
		<stop  offset="0" style="stop-color:#7E5A43"/>
		<stop  offset="0.9852" style="stop-color:#CC9966"/>
	</linearGradient>
	<path fill="none" stroke="url(#SVGID_18_)" stroke-width="6" stroke-miterlimit="10" d="M577.474,70.544
		c0,0,6.285,3.738,9.413,13.257c2.262,6.887-3.196,16.215-3.196,16.215"/>
	<linearGradient id="SVGID_19_" gradientUnits="userSpaceOnUse" x1="556.7227" y1="74.7744" x2="571.2178" y2="74.7744">
		<stop  offset="0" style="stop-color:#7E5A43"/>
		<stop  offset="0.9852" style="stop-color:#CC9966"/>
	</linearGradient>
	<path fill="none" stroke="url(#SVGID_19_)" stroke-width="6" stroke-miterlimit="10" d="M558.256,60.57
		c0,0,6.284,3.738,9.413,13.257c2.262,6.887-3.197,16.215-3.197,16.215"/>
	<linearGradient id="SVGID_20_" gradientUnits="userSpaceOnUse" x1="536.8311" y1="65.6714" x2="552.8564" y2="65.6714">
		<stop  offset="0" style="stop-color:#7E5A43"/>
		<stop  offset="0.9852" style="stop-color:#CC9966"/>
	</linearGradient>
	<path fill="none" stroke="url(#SVGID_20_)" stroke-width="6" stroke-miterlimit="10" d="M538.086,52.086
		c0,0,6.642,3.059,10.748,12.199c2.972,6.612-1.48,16.46-1.48,16.46"/>
	<linearGradient id="SVGID_21_" gradientUnits="userSpaceOnUse" x1="514.6338" y1="56.7974" x2="531.4912" y2="56.7974">
		<stop  offset="0" style="stop-color:#7E5A43"/>
		<stop  offset="0.9852" style="stop-color:#CC9966"/>
	</linearGradient>
	<path fill="none" stroke="url(#SVGID_21_)" stroke-width="6" stroke-miterlimit="10" d="M515.736,43.6
		c0,0,6.801,2.687,11.408,11.585c3.332,6.438-0.569,16.517-0.569,16.517"/>
	<linearGradient id="SVGID_22_" gradientUnits="userSpaceOnUse" x1="490.8848" y1="49.3906" x2="508.5381" y2="49.3906">
		<stop  offset="0" style="stop-color:#7E5A43"/>
		<stop  offset="0.9852" style="stop-color:#CC9966"/>
	</linearGradient>
	<path fill="none" stroke="url(#SVGID_22_)" stroke-width="6" stroke-miterlimit="10" d="M491.841,36.593
		c0,0,6.932,2.331,11.991,10.979c3.661,6.256,0.289,16.524,0.289,16.524"/>
	<linearGradient id="SVGID_23_" gradientUnits="userSpaceOnUse" x1="468.5273" y1="44.1606" x2="487.1016" y2="44.1606">
		<stop  offset="0" style="stop-color:#7E5A43"/>
		<stop  offset="0.9852" style="stop-color:#CC9966"/>
	</linearGradient>
	<path fill="none" stroke="url(#SVGID_23_)" stroke-width="6" stroke-miterlimit="10" d="M469.317,31.849
		c0,0,7.055,1.926,12.607,10.267c4.018,6.035,1.243,16.48,1.243,16.48"/>
	<linearGradient id="SVGID_24_" gradientUnits="userSpaceOnUse" x1="442.6885" y1="39.2861" x2="462.4697" y2="39.2861">
		<stop  offset="0" style="stop-color:#7E5A43"/>
		<stop  offset="0.9852" style="stop-color:#CC9966"/>
	</linearGradient>
	<path fill="none" stroke="url(#SVGID_24_)" stroke-width="6" stroke-miterlimit="10" d="M443.267,27.642
		c0,0,7.177,1.41,13.317,9.328c4.442,5.728,2.432,16.347,2.432,16.347"/>
	<linearGradient id="SVGID_25_" gradientUnits="userSpaceOnUse" x1="416.9756" y1="36.333" x2="437.0898" y2="36.333">
		<stop  offset="0" style="stop-color:#7E5A43"/>
		<stop  offset="0.9852" style="stop-color:#CC9966"/>
	</linearGradient>
	<path fill="none" stroke="url(#SVGID_25_)" stroke-width="6" stroke-miterlimit="10" d="M417.498,24.875
		c0,0,7.203,1.273,13.494,9.071c4.551,5.642,2.744,16.298,2.744,16.298"/>
	<linearGradient id="SVGID_26_" gradientUnits="userSpaceOnUse" x1="390.6548" y1="34.9927" x2="413.127" y2="34.9927">
		<stop  offset="0" style="stop-color:#7E5A43"/>
		<stop  offset="0.9852" style="stop-color:#CC9966"/>
	</linearGradient>
	<path fill="none" stroke="url(#SVGID_26_)" stroke-width="6" stroke-miterlimit="10" d="M390.799,24.875
		c0,0,7.304,0.351,14.533,7.29c5.229,5.02,4.785,15.819,4.785,15.819"/>
	<linearGradient id="SVGID_27_" gradientUnits="userSpaceOnUse" x1="365.3931" y1="36.1689" x2="390.4043" y2="36.1689">
		<stop  offset="0" style="stop-color:#7E5A43"/>
		<stop  offset="0.9852" style="stop-color:#CC9966"/>
	</linearGradient>
	<path fill="none" stroke="url(#SVGID_27_)" stroke-width="6" stroke-miterlimit="10" d="M365.591,27.183
		c0,0,7.297-0.482,15.268,5.591c5.765,4.393,6.553,15.172,6.553,15.172"/>
	<linearGradient id="SVGID_28_" gradientUnits="userSpaceOnUse" x1="335.8291" y1="38.8115" x2="363.2896" y2="38.8115">
		<stop  offset="0" style="stop-color:#7E5A43"/>
		<stop  offset="0.9852" style="stop-color:#CC9966"/>
	</linearGradient>
	<path fill="none" stroke="url(#SVGID_28_)" stroke-width="6" stroke-miterlimit="10" d="M336.357,30.998
		c0,0,7.199-1.286,15.792,3.868c6.216,3.729,8.19,14.354,8.19,14.354"/>
	<linearGradient id="SVGID_29_" gradientUnits="userSpaceOnUse" x1="309.4858" y1="43.002" x2="336.9463" y2="43.002">
		<stop  offset="0" style="stop-color:#7E5A43"/>
		<stop  offset="0.9852" style="stop-color:#CC9966"/>
	</linearGradient>
	<path fill="none" stroke="url(#SVGID_29_)" stroke-width="6" stroke-miterlimit="10" d="M310.014,35.188
		c0,0,7.199-1.286,15.792,3.868c6.216,3.728,8.19,14.355,8.19,14.355"/>
	<linearGradient id="SVGID_30_" gradientUnits="userSpaceOnUse" x1="280.6641" y1="48.1694" x2="310.4053" y2="48.1694">
		<stop  offset="0" style="stop-color:#7E5A43"/>
		<stop  offset="0.9852" style="stop-color:#CC9966"/>
	</linearGradient>
	<path fill="none" stroke="url(#SVGID_30_)" stroke-width="6" stroke-miterlimit="10" d="M281.543,41.898
		c0,0,6.991-2.143,16.142,1.94c6.62,2.954,9.858,13.265,9.858,13.265"/>
	<linearGradient id="SVGID_31_" gradientUnits="userSpaceOnUse" x1="256.771" y1="55.332" x2="288.0542" y2="55.332">
		<stop  offset="0" style="stop-color:#7E5A43"/>
		<stop  offset="0.9852" style="stop-color:#CC9966"/>
	</linearGradient>
	<path fill="none" stroke="url(#SVGID_31_)" stroke-width="6" stroke-miterlimit="10" d="M257.927,50.531
		c0,0,6.749-2.818,16.255,0.348c6.877,2.291,11.112,12.234,11.112,12.234"/>
	<linearGradient id="SVGID_32_" gradientUnits="userSpaceOnUse" x1="235.0024" y1="64.4346" x2="266.2847" y2="64.4346">
		<stop  offset="0" style="stop-color:#7E5A43"/>
		<stop  offset="0.9852" style="stop-color:#CC9966"/>
	</linearGradient>
	<path fill="none" stroke="url(#SVGID_32_)" stroke-width="6" stroke-miterlimit="10" d="M236.158,59.633
		c0,0,6.747-2.817,16.255,0.348c6.877,2.291,11.111,12.234,11.111,12.234"/>
	<linearGradient id="SVGID_33_" gradientUnits="userSpaceOnUse" x1="215.856" y1="74.0801" x2="247.9194" y2="74.0801">
		<stop  offset="0" style="stop-color:#7E5A43"/>
		<stop  offset="0.9852" style="stop-color:#CC9966"/>
	</linearGradient>
	<path fill="none" stroke="url(#SVGID_33_)" stroke-width="6" stroke-miterlimit="10" d="M217.173,70.252
		c0,0,6.57-3.211,16.247-0.611c7,1.881,11.813,11.558,11.813,11.558"/>
	<linearGradient id="SVGID_34_" gradientUnits="userSpaceOnUse" x1="193.7734" y1="84.0068" x2="226.9287" y2="84.0068">
		<stop  offset="0" style="stop-color:#7E5A43"/>
		<stop  offset="0.9852" style="stop-color:#CC9966"/>
	</linearGradient>
	<path fill="none" stroke="url(#SVGID_34_)" stroke-width="6" stroke-miterlimit="10" d="M195.36,82.023c0,0,6.207-3.867,16.1-2.27
		c7.155,1.155,12.934,10.289,12.934,10.289"/>
	<linearGradient id="SVGID_35_" gradientUnits="userSpaceOnUse" x1="174.3574" y1="96.0029" x2="208.1035" y2="96.0029">
		<stop  offset="0" style="stop-color:#7E5A43"/>
		<stop  offset="0.9852" style="stop-color:#CC9966"/>
	</linearGradient>
	<path fill="none" stroke="url(#SVGID_35_)" stroke-width="6" stroke-miterlimit="10" d="M176.135,95.53
		c0,0,5.891-4.333,15.877-3.502c7.224,0.601,13.688,9.263,13.688,9.263"/>
	<linearGradient id="SVGID_36_" gradientUnits="userSpaceOnUse" x1="153.2993" y1="110.2178" x2="187.0449" y2="110.2178">
		<stop  offset="0" style="stop-color:#7E5A43"/>
		<stop  offset="0.9852" style="stop-color:#CC9966"/>
	</linearGradient>
	<path fill="none" stroke="url(#SVGID_36_)" stroke-width="6" stroke-miterlimit="10" d="M155.077,109.745
		c0,0,5.891-4.333,15.877-3.502c7.223,0.601,13.687,9.262,13.687,9.262"/>
	<linearGradient id="SVGID_37_" gradientUnits="userSpaceOnUse" x1="138.1343" y1="122.377" x2="172.1665" y2="122.377">
		<stop  offset="0" style="stop-color:#7E5A43"/>
		<stop  offset="0.9852" style="stop-color:#CC9966"/>
	</linearGradient>
	<path fill="none" stroke="url(#SVGID_37_)" stroke-width="6" stroke-miterlimit="10" d="M140.035,122.98
		c0,0,5.658-4.632,15.674-4.323c7.245,0.224,14.15,8.538,14.15,8.538"/>
	<linearGradient id="SVGID_38_" gradientUnits="userSpaceOnUse" x1="122.9658" y1="135.7407" x2="157.229" y2="135.7407">
		<stop  offset="0" style="stop-color:#7E5A43"/>
		<stop  offset="0.9852" style="stop-color:#CC9966"/>
	</linearGradient>
	<path fill="none" stroke="url(#SVGID_38_)" stroke-width="6" stroke-miterlimit="10" d="M125.016,137.771
		c0,0,5.34-4.997,15.354-5.351c7.244-0.256,14.684,7.583,14.684,7.583"/>
	<linearGradient id="SVGID_39_" gradientUnits="userSpaceOnUse" x1="105.9434" y1="152.1216" x2="140.2734" y2="152.1216">
		<stop  offset="0" style="stop-color:#7E5A43"/>
		<stop  offset="0.9852" style="stop-color:#CC9966"/>
	</linearGradient>
	<path fill="none" stroke="url(#SVGID_39_)" stroke-width="6" stroke-miterlimit="10" d="M108.196,156.084
		c0,0,4.828-5.491,14.761-6.817c7.184-0.958,15.352,6.12,15.352,6.12"/>
	<linearGradient id="SVGID_40_" gradientUnits="userSpaceOnUse" x1="93.2378" y1="166.7627" x2="127.5679" y2="166.7627">
		<stop  offset="0" style="stop-color:#7E5A43"/>
		<stop  offset="0.9852" style="stop-color:#CC9966"/>
	</linearGradient>
	<path fill="none" stroke="url(#SVGID_40_)" stroke-width="6" stroke-miterlimit="10" d="M95.491,170.725
		c0,0,4.828-5.492,14.76-6.817c7.185-0.958,15.352,6.12,15.352,6.12"/>
	<linearGradient id="SVGID_41_" gradientUnits="userSpaceOnUse" x1="80.0981" y1="186.5615" x2="114.4277" y2="186.5615">
		<stop  offset="0" style="stop-color:#7E5A43"/>
		<stop  offset="0.9852" style="stop-color:#CC9966"/>
	</linearGradient>
	<path fill="none" stroke="url(#SVGID_41_)" stroke-width="6" stroke-miterlimit="10" d="M82.351,190.524
		c0,0,4.828-5.492,14.761-6.817c7.184-0.958,15.351,6.121,15.351,6.121"/>
	<linearGradient id="SVGID_42_" gradientUnits="userSpaceOnUse" x1="66.5054" y1="207.1362" x2="100.5444" y2="207.1362">
		<stop  offset="0" style="stop-color:#7E5A43"/>
		<stop  offset="0.9852" style="stop-color:#CC9966"/>
	</linearGradient>
	<path fill="none" stroke="url(#SVGID_42_)" stroke-width="6" stroke-miterlimit="10" d="M68.954,212.081
		c0,0,4.227-5.967,13.966-8.325c7.044-1.707,15.908,4.479,15.908,4.479"/>
	<linearGradient id="SVGID_43_" gradientUnits="userSpaceOnUse" x1="54.8057" y1="225.8564" x2="88.54" y2="225.8564">
		<stop  offset="0" style="stop-color:#7E5A43"/>
		<stop  offset="0.9852" style="stop-color:#CC9966"/>
	</linearGradient>
	<path fill="none" stroke="url(#SVGID_43_)" stroke-width="6" stroke-miterlimit="10" d="M57.346,231.333
		c0,0,3.89-6.193,13.484-9.086c6.94-2.093,16.132,3.592,16.132,3.592"/>
	<linearGradient id="SVGID_44_" gradientUnits="userSpaceOnUse" x1="45.2646" y1="249.5674" x2="78.6191" y2="249.5674">
		<stop  offset="0" style="stop-color:#7E5A43"/>
		<stop  offset="0.9852" style="stop-color:#CC9966"/>
	</linearGradient>
	<path fill="none" stroke="url(#SVGID_44_)" stroke-width="6" stroke-miterlimit="10" d="M47.884,255.55
		c0,0,3.564-6.385,12.995-9.772c6.823-2.449,16.296,2.752,16.296,2.752"/>
	<linearGradient id="SVGID_45_" gradientUnits="userSpaceOnUse" x1="36.9658" y1="272.3779" x2="69.791" y2="272.3779">
		<stop  offset="0" style="stop-color:#7E5A43"/>
		<stop  offset="0.9852" style="stop-color:#CC9966"/>
	</linearGradient>
	<path fill="none" stroke="url(#SVGID_45_)" stroke-width="6" stroke-miterlimit="10" d="M39.666,278.937
		c0,0,3.188-6.581,12.408-10.506c6.669-2.84,16.428,1.805,16.428,1.805"/>
	<linearGradient id="SVGID_46_" gradientUnits="userSpaceOnUse" x1="30.2212" y1="293.2715" x2="62.2295" y2="293.2715">
		<stop  offset="0" style="stop-color:#7E5A43"/>
		<stop  offset="0.9852" style="stop-color:#CC9966"/>
	</linearGradient>
	<path fill="none" stroke="url(#SVGID_46_)" stroke-width="6" stroke-miterlimit="10" d="M33.008,300.571
		c0,0,2.705-6.795,11.615-11.377c6.446-3.315,16.516,0.612,16.516,0.612"/>
	<linearGradient id="SVGID_47_" gradientUnits="userSpaceOnUse" x1="23.356" y1="318.2388" x2="55.1196" y2="318.2388">
		<stop  offset="0" style="stop-color:#7E5A43"/>
		<stop  offset="0.9852" style="stop-color:#CC9966"/>
	</linearGradient>
	<path fill="none" stroke="url(#SVGID_47_)" stroke-width="6" stroke-miterlimit="10" d="M26.164,325.737
		c0,0,2.574-6.845,11.395-11.597c6.382-3.438,16.524,0.296,16.524,0.296"/>
	<linearGradient id="SVGID_48_" gradientUnits="userSpaceOnUse" x1="18.7017" y1="344.5361" x2="48.5557" y2="344.5361">
		<stop  offset="0" style="stop-color:#7E5A43"/>
		<stop  offset="0.9852" style="stop-color:#CC9966"/>
	</linearGradient>
	<path fill="none" stroke="url(#SVGID_48_)" stroke-width="6" stroke-miterlimit="10" d="M21.621,353.409
		c0,0,1.686-7.116,9.835-12.947c5.895-4.219,16.429-1.799,16.429-1.799"/>
	<linearGradient id="SVGID_49_" gradientUnits="userSpaceOnUse" x1="17.6079" y1="367.2783" x2="47.8057" y2="367.2783">
		<stop  offset="0" style="stop-color:#7E5A43"/>
		<stop  offset="0.9852" style="stop-color:#CC9966"/>
	</linearGradient>
	<path fill="none" stroke="url(#SVGID_49_)" stroke-width="6" stroke-miterlimit="10" d="M20.512,375.921
		c0,0,1.832-7.08,10.1-12.742c5.98-4.097,16.462-1.46,16.462-1.46"/>
	<linearGradient id="SVGID_50_" gradientUnits="userSpaceOnUse" x1="18.5396" y1="421.123" x2="44.2139" y2="421.123">
		<stop  offset="0" style="stop-color:#7E5A43"/>
		<stop  offset="0.9852" style="stop-color:#CC9966"/>
	</linearGradient>
	<path fill="none" stroke="url(#SVGID_50_)" stroke-width="6" stroke-miterlimit="10" d="M21.539,432.528
		c0,0,0.17-7.311,6.93-14.707c4.89-5.351,15.696-5.173,15.696-5.173"/>
	<linearGradient id="SVGID_51_" gradientUnits="userSpaceOnUse" x1="16.9551" y1="391.647" x2="46.4194" y2="391.647">
		<stop  offset="0" style="stop-color:#7E5A43"/>
		<stop  offset="0.9852" style="stop-color:#CC9966"/>
	</linearGradient>
	<path fill="none" stroke="url(#SVGID_51_)" stroke-width="6" stroke-miterlimit="10" d="M19.889,400.774
		c0,0,1.526-7.152,9.541-13.165c5.798-4.351,16.384-2.169,16.384-2.169"/>
	<linearGradient id="SVGID_52_" gradientUnits="userSpaceOnUse" x1="22.1348" y1="448.2344" x2="47.2241" y2="448.2344">
		<stop  offset="0" style="stop-color:#7E5A43"/>
		<stop  offset="0.9852" style="stop-color:#CC9966"/>
	</linearGradient>
	<path fill="none" stroke="url(#SVGID_52_)" stroke-width="6" stroke-miterlimit="10" d="M25.135,459.984
		c0,0-0.037-7.312,6.511-14.897c4.736-5.488,15.543-5.617,15.543-5.617"/>
	<linearGradient id="SVGID_53_" gradientUnits="userSpaceOnUse" x1="27.3174" y1="468.6523" x2="50.3086" y2="468.6523">
		<stop  offset="0" style="stop-color:#7E5A43"/>
		<stop  offset="0.9852" style="stop-color:#CC9966"/>
	</linearGradient>
	<path fill="none" stroke="url(#SVGID_53_)" stroke-width="6" stroke-miterlimit="10" d="M30.366,481.412
		c0,0-0.873-7.262,4.765-15.545c4.079-5.992,14.799-7.355,14.799-7.355"/>
	<linearGradient id="SVGID_54_" gradientUnits="userSpaceOnUse" x1="35.2671" y1="491.666" x2="55.4897" y2="491.666">
		<stop  offset="0" style="stop-color:#7E5A43"/>
		<stop  offset="0.9852" style="stop-color:#CC9966"/>
	</linearGradient>
	<path fill="none" stroke="url(#SVGID_54_)" stroke-width="6" stroke-miterlimit="10" d="M38.693,505.478
		c0,0-1.93-7.054,2.428-16.077c3.153-6.526,13.558-9.45,13.558-9.45"/>
	<linearGradient id="SVGID_55_" gradientUnits="userSpaceOnUse" x1="41.667" y1="512.2793" x2="59.8892" y2="512.2793">
		<stop  offset="0" style="stop-color:#7E5A43"/>
		<stop  offset="0.9852" style="stop-color:#CC9966"/>
	</linearGradient>
	<path fill="none" stroke="url(#SVGID_55_)" stroke-width="6" stroke-miterlimit="10" d="M45.698,526.686
		c0,0-2.698-6.798,0.636-16.247c2.411-6.835,12.43-10.892,12.43-10.892"/>
	<linearGradient id="SVGID_56_" gradientUnits="userSpaceOnUse" x1="49.1943" y1="531.2852" x2="67.4165" y2="531.2852">
		<stop  offset="0" style="stop-color:#7E5A43"/>
		<stop  offset="0.9852" style="stop-color:#CC9966"/>
	</linearGradient>
	<path fill="none" stroke="url(#SVGID_56_)" stroke-width="6" stroke-miterlimit="10" d="M53.225,545.691
		c0,0-2.698-6.797,0.636-16.247c2.412-6.835,12.43-10.893,12.43-10.893"/>
	<linearGradient id="SVGID_57_" gradientUnits="userSpaceOnUse" x1="59.3662" y1="552.0674" x2="75.5591" y2="552.0674">
		<stop  offset="0" style="stop-color:#7E5A43"/>
		<stop  offset="0.9852" style="stop-color:#CC9966"/>
	</linearGradient>
	<path fill="none" stroke="url(#SVGID_57_)" stroke-width="6" stroke-miterlimit="10" d="M64.401,566.92
		c0,0-3.496-6.424-1.323-16.206c1.572-7.076,11.029-12.308,11.029-12.308"/>
	<linearGradient id="SVGID_58_" gradientUnits="userSpaceOnUse" x1="70.6626" y1="574.209" x2="85.3545" y2="574.209">
		<stop  offset="0" style="stop-color:#7E5A43"/>
		<stop  offset="0.9852" style="stop-color:#CC9966"/>
	</linearGradient>
	<path fill="none" stroke="url(#SVGID_58_)" stroke-width="6" stroke-miterlimit="10" d="M76.79,589.266
		c0,0-4.109-6.049-2.906-15.996c0.87-7.197,9.769-13.332,9.769-13.332"/>
	<linearGradient id="SVGID_59_" gradientUnits="userSpaceOnUse" x1="82.4707" y1="592.9561" x2="97.1631" y2="592.9561">
		<stop  offset="0" style="stop-color:#7E5A43"/>
		<stop  offset="0.9852" style="stop-color:#CC9966"/>
	</linearGradient>
	<path fill="none" stroke="url(#SVGID_59_)" stroke-width="6" stroke-miterlimit="10" d="M88.597,608.012
		c0,0-4.109-6.048-2.906-15.996c0.871-7.197,9.769-13.331,9.769-13.331"/>
	<linearGradient id="SVGID_60_" gradientUnits="userSpaceOnUse" x1="94.9526" y1="610.0049" x2="108.8213" y2="610.0049">
		<stop  offset="0" style="stop-color:#7E5A43"/>
		<stop  offset="0.9852" style="stop-color:#CC9966"/>
	</linearGradient>
	<path fill="none" stroke="url(#SVGID_60_)" stroke-width="6" stroke-miterlimit="10" d="M101.854,625.114
		c0,0-4.459-5.797-3.844-15.799c0.445-7.234,8.965-13.884,8.965-13.884"/>
	<linearGradient id="SVGID_61_" gradientUnits="userSpaceOnUse" x1="107.7427" y1="627.3242" x2="120.3271" y2="627.3242">
		<stop  offset="0" style="stop-color:#7E5A43"/>
		<stop  offset="0.9852" style="stop-color:#CC9966"/>
	</linearGradient>
	<path fill="none" stroke="url(#SVGID_61_)" stroke-width="6" stroke-miterlimit="10" d="M116.191,642.4
		c0,0-5.028-5.312-5.44-15.322c-0.298-7.243,7.499-14.728,7.499-14.728"/>
	<linearGradient id="SVGID_62_" gradientUnits="userSpaceOnUse" x1="121.0591" y1="642.2773" x2="132.7466" y2="642.2773">
		<stop  offset="0" style="stop-color:#7E5A43"/>
		<stop  offset="0.9852" style="stop-color:#CC9966"/>
	</linearGradient>
	<path fill="none" stroke="url(#SVGID_62_)" stroke-width="6" stroke-miterlimit="10" d="M130.733,657.223
		c0,0-5.422-4.907-6.604-14.857c-0.854-7.197,6.343-15.261,6.343-15.261"/>
	<linearGradient id="SVGID_63_" gradientUnits="userSpaceOnUse" x1="135.8369" y1="657.0967" x2="147.5234" y2="657.0967">
		<stop  offset="0" style="stop-color:#7E5A43"/>
		<stop  offset="0.9852" style="stop-color:#CC9966"/>
	</linearGradient>
	<path fill="none" stroke="url(#SVGID_63_)" stroke-width="6" stroke-miterlimit="10" d="M145.511,672.042
		c0,0-5.422-4.906-6.604-14.857c-0.854-7.198,6.342-15.26,6.342-15.26"/>
	<linearGradient id="SVGID_64_" gradientUnits="userSpaceOnUse" x1="152.3408" y1="671.9785" x2="164.751" y2="671.9785">
		<stop  offset="0" style="stop-color:#7E5A43"/>
		<stop  offset="0.9852" style="stop-color:#CC9966"/>
	</linearGradient>
	<path fill="none" stroke="url(#SVGID_64_)" stroke-width="6" stroke-miterlimit="10" d="M162.857,686.786
		c0,0-5.67-4.616-7.367-14.494c-1.228-7.143,5.539-15.569,5.539-15.569"/>
	<linearGradient id="SVGID_65_" gradientUnits="userSpaceOnUse" x1="171.2979" y1="686.8535" x2="184.6392" y2="686.8535">
		<stop  offset="0" style="stop-color:#7E5A43"/>
		<stop  offset="0.9852" style="stop-color:#CC9966"/>
	</linearGradient>
	<path fill="none" stroke="url(#SVGID_65_)" stroke-width="6" stroke-miterlimit="10" d="M182.902,701.43
		c0,0-5.963-4.233-8.31-13.976c-1.698-7.047,4.497-15.902,4.497-15.902"/>
	<linearGradient id="SVGID_66_" gradientUnits="userSpaceOnUse" x1="188.1968" y1="699.3125" x2="202.9277" y2="699.3125">
		<stop  offset="0" style="stop-color:#7E5A43"/>
		<stop  offset="0.9852" style="stop-color:#CC9966"/>
	</linearGradient>
	<path fill="none" stroke="url(#SVGID_66_)" stroke-width="6" stroke-miterlimit="10" d="M201.437,713.43
		c0,0-6.346-3.634-9.628-13.101c-2.375-6.851,2.931-16.266,2.931-16.266"/>
	<linearGradient id="SVGID_67_" gradientUnits="userSpaceOnUse" x1="207.7041" y1="710.3496" x2="222.4351" y2="710.3496">
		<stop  offset="0" style="stop-color:#7E5A43"/>
		<stop  offset="0.9852" style="stop-color:#CC9966"/>
	</linearGradient>
	<path fill="none" stroke="url(#SVGID_67_)" stroke-width="6" stroke-miterlimit="10" d="M220.944,724.467
		c0,0-6.346-3.634-9.629-13.101c-2.374-6.849,2.931-16.266,2.931-16.266"/>
	<linearGradient id="SVGID_68_" gradientUnits="userSpaceOnUse" x1="227.084" y1="720.0078" x2="241.8154" y2="720.0078">
		<stop  offset="0" style="stop-color:#7E5A43"/>
		<stop  offset="0.9852" style="stop-color:#CC9966"/>
	</linearGradient>
	<path fill="none" stroke="url(#SVGID_68_)" stroke-width="6" stroke-miterlimit="10" d="M240.324,734.126
		c0,0-6.345-3.636-9.628-13.102c-2.374-6.85,2.931-16.266,2.931-16.266"/>
	<linearGradient id="SVGID_69_" gradientUnits="userSpaceOnUse" x1="245.5703" y1="728.8037" x2="261.8398" y2="728.8037">
		<stop  offset="0" style="stop-color:#7E5A43"/>
		<stop  offset="0.9852" style="stop-color:#CC9966"/>
	</linearGradient>
	<path fill="none" stroke="url(#SVGID_69_)" stroke-width="6" stroke-miterlimit="10" d="M260.629,742.279
		c0,0-6.69-2.952-10.946-12.022c-3.079-6.562,1.211-16.482,1.211-16.482"/>
	<linearGradient id="SVGID_70_" gradientUnits="userSpaceOnUse" x1="267.0654" y1="737.3223" x2="284.1719" y2="737.3223">
		<stop  offset="0" style="stop-color:#7E5A43"/>
		<stop  offset="0.9852" style="stop-color:#CC9966"/>
	</linearGradient>
	<path fill="none" stroke="url(#SVGID_70_)" stroke-width="6" stroke-miterlimit="10" d="M283.115,750.396
		c0,0-6.844-2.575-11.596-11.396c-3.437-6.381,0.297-16.524,0.297-16.524"/>
	<linearGradient id="SVGID_71_" gradientUnits="userSpaceOnUse" x1="290.1211" y1="744.3457" x2="308.0317" y2="744.3457">
		<stop  offset="0" style="stop-color:#7E5A43"/>
		<stop  offset="0.9852" style="stop-color:#CC9966"/>
	</linearGradient>
	<path fill="none" stroke="url(#SVGID_71_)" stroke-width="6" stroke-miterlimit="10" d="M307.123,757.011
		c0,0-6.969-2.216-12.171-10.781c-3.763-6.194-0.558-16.518-0.558-16.518"/>
	<linearGradient id="SVGID_72_" gradientUnits="userSpaceOnUse" x1="311.6216" y1="749.2188" x2="330.4619" y2="749.2188">
		<stop  offset="0" style="stop-color:#7E5A43"/>
		<stop  offset="0.9852" style="stop-color:#CC9966"/>
	</linearGradient>
	<path fill="none" stroke="url(#SVGID_72_)" stroke-width="6" stroke-miterlimit="10" d="M329.719,761.386
		c0,0-7.084-1.81-12.773-10.059c-4.115-5.969-1.513-16.459-1.513-16.459"/>
	<linearGradient id="SVGID_73_" gradientUnits="userSpaceOnUse" x1="336.3013" y1="753.6797" x2="356.3662" y2="753.6797">
		<stop  offset="0" style="stop-color:#7E5A43"/>
		<stop  offset="0.9852" style="stop-color:#CC9966"/>
	</linearGradient>
	<path fill="none" stroke="url(#SVGID_73_)" stroke-width="6" stroke-miterlimit="10" d="M355.836,765.165
		c0,0-7.198-1.291-13.468-9.106c-4.536-5.655-2.7-16.307-2.7-16.307"/>
	<linearGradient id="SVGID_74_" gradientUnits="userSpaceOnUse" x1="361.7173" y1="756.2148" x2="382.1201" y2="756.2148">
		<stop  offset="0" style="stop-color:#7E5A43"/>
		<stop  offset="0.9852" style="stop-color:#CC9966"/>
	</linearGradient>
	<path fill="none" stroke="url(#SVGID_74_)" stroke-width="6" stroke-miterlimit="10" d="M381.646,767.511
		c0,0-7.222-1.155-13.64-8.85c-4.643-5.568-3.01-16.25-3.01-16.25"/>
	<linearGradient id="SVGID_75_" gradientUnits="userSpaceOnUse" x1="385.646" y1="757.1416" x2="408.4385" y2="757.1416">
		<stop  offset="0" style="stop-color:#7E5A43"/>
		<stop  offset="0.9852" style="stop-color:#CC9966"/>
	</linearGradient>
	<path fill="none" stroke="url(#SVGID_75_)" stroke-width="6" stroke-miterlimit="10" d="M408.343,767.074
		c0,0-7.31-0.232-14.65-7.052c-5.311-4.935-5.044-15.737-5.044-15.737"/>
	<linearGradient id="SVGID_76_" gradientUnits="userSpaceOnUse" x1="408.3623" y1="755.5254" x2="433.7568" y2="755.5254">
		<stop  offset="0" style="stop-color:#7E5A43"/>
		<stop  offset="0.9852" style="stop-color:#CC9966"/>
	</linearGradient>
	<path fill="none" stroke="url(#SVGID_76_)" stroke-width="6" stroke-miterlimit="10" d="M433.51,764.353
		c0,0-7.288,0.602-15.358-5.34c-5.837-4.298-6.801-15.063-6.801-15.063"/>
	<linearGradient id="SVGID_77_" gradientUnits="userSpaceOnUse" x1="435.457" y1="752.4375" x2="463.2539" y2="752.4375">
		<stop  offset="0" style="stop-color:#7E5A43"/>
		<stop  offset="0.9852" style="stop-color:#CC9966"/>
	</linearGradient>
	<path fill="none" stroke="url(#SVGID_77_)" stroke-width="6" stroke-miterlimit="10" d="M462.678,760.059
		c0,0-7.178,1.405-15.854-3.608c-6.276-3.627-8.426-14.218-8.426-14.218"/>
	<linearGradient id="SVGID_78_" gradientUnits="userSpaceOnUse" x1="461.7305" y1="747.8174" x2="489.5234" y2="747.8174">
		<stop  offset="0" style="stop-color:#7E5A43"/>
		<stop  offset="0.9852" style="stop-color:#CC9966"/>
	</linearGradient>
	<path fill="none" stroke="url(#SVGID_78_)" stroke-width="6" stroke-miterlimit="10" d="M488.947,755.438
		c0,0-7.177,1.403-15.853-3.609c-6.276-3.626-8.424-14.218-8.424-14.218"/>
	<linearGradient id="SVGID_79_" gradientUnits="userSpaceOnUse" x1="488.2129" y1="742.2227" x2="518.2324" y2="742.2227">
		<stop  offset="0" style="stop-color:#7E5A43"/>
		<stop  offset="0.9852" style="stop-color:#CC9966"/>
	</linearGradient>
	<path fill="none" stroke="url(#SVGID_79_)" stroke-width="6" stroke-miterlimit="10" d="M517.307,748.262
		c0,0-6.957,2.257-16.173-1.674c-6.667-2.847-10.074-13.104-10.074-13.104"/>
	<linearGradient id="SVGID_80_" gradientUnits="userSpaceOnUse" x1="510.4668" y1="734.7051" x2="541.9775" y2="734.7051">
		<stop  offset="0" style="stop-color:#7E5A43"/>
		<stop  offset="0.9852" style="stop-color:#CC9966"/>
	</linearGradient>
	<path fill="none" stroke="url(#SVGID_80_)" stroke-width="6" stroke-miterlimit="10" d="M540.776,739.244
		c0,0-6.701,2.927-16.259-0.082c-6.914-2.177-11.311-12.051-11.311-12.051"/>
	<linearGradient id="SVGID_81_" gradientUnits="userSpaceOnUse" x1="532.084" y1="725.249" x2="563.5957" y2="725.249">
		<stop  offset="0" style="stop-color:#7E5A43"/>
		<stop  offset="0.9852" style="stop-color:#CC9966"/>
	</linearGradient>
	<path fill="none" stroke="url(#SVGID_81_)" stroke-width="6" stroke-miterlimit="10" d="M562.395,729.786
		c0,0-6.701,2.928-16.26-0.082c-6.914-2.177-11.311-12.049-11.311-12.049"/>
	<linearGradient id="SVGID_82_" gradientUnits="userSpaceOnUse" x1="550.3018" y1="715.3115" x2="582.5635" y2="715.3115">
		<stop  offset="0" style="stop-color:#7E5A43"/>
		<stop  offset="0.9852" style="stop-color:#CC9966"/>
	</linearGradient>
	<path fill="none" stroke="url(#SVGID_82_)" stroke-width="6" stroke-miterlimit="10" d="M581.202,718.858
		c0,0-6.517,3.317-16.236,0.876c-7.029-1.766-12-11.362-12-11.362"/>
	<linearGradient id="SVGID_83_" gradientUnits="userSpaceOnUse" x1="571.1494" y1="705.0605" x2="604.4463" y2="705.0605">
		<stop  offset="0" style="stop-color:#7E5A43"/>
		<stop  offset="0.9852" style="stop-color:#CC9966"/>
	</linearGradient>
	<path fill="none" stroke="url(#SVGID_83_)" stroke-width="6" stroke-miterlimit="10" d="M602.819,706.731
		c0,0-6.144,3.967-16.061,2.533c-7.173-1.038-13.101-10.075-13.101-10.075"/>
	<linearGradient id="SVGID_84_" gradientUnits="userSpaceOnUse" x1="589.791" y1="692.7715" x2="623.6367" y2="692.7715">
		<stop  offset="0" style="stop-color:#7E5A43"/>
		<stop  offset="0.9852" style="stop-color:#CC9966"/>
	</linearGradient>
	<path fill="none" stroke="url(#SVGID_84_)" stroke-width="6" stroke-miterlimit="10" d="M621.82,692.912
		c0,0-5.818,4.427-15.816,3.761c-7.232-0.482-13.838-9.037-13.838-9.037"/>
	<linearGradient id="SVGID_85_" gradientUnits="userSpaceOnUse" x1="610.6152" y1="678.2148" x2="644.4609" y2="678.2148">
		<stop  offset="0" style="stop-color:#7E5A43"/>
		<stop  offset="0.9852" style="stop-color:#CC9966"/>
	</linearGradient>
	<path fill="none" stroke="url(#SVGID_85_)" stroke-width="6" stroke-miterlimit="10" d="M642.644,678.353
		c0,0-5.819,4.43-15.818,3.763c-7.231-0.481-13.835-9.037-13.835-9.037"/>
	<linearGradient id="SVGID_86_" gradientUnits="userSpaceOnUse" x1="625.3008" y1="665.8242" x2="659.4043" y2="665.8242">
		<stop  offset="0" style="stop-color:#7E5A43"/>
		<stop  offset="0.9852" style="stop-color:#CC9966"/>
	</linearGradient>
	<path fill="none" stroke="url(#SVGID_86_)" stroke-width="6" stroke-miterlimit="10" d="M657.466,664.873
		c0,0-5.582,4.725-15.602,4.58c-7.247-0.106-14.287-8.306-14.287-8.306"/>
	<linearGradient id="SVGID_87_" gradientUnits="userSpaceOnUse" x1="640.0293" y1="652.2256" x2="674.3262" y2="652.2256">
		<stop  offset="0" style="stop-color:#7E5A43"/>
		<stop  offset="0.9852" style="stop-color:#CC9966"/>
	</linearGradient>
	<path fill="none" stroke="url(#SVGID_87_)" stroke-width="6" stroke-miterlimit="10" d="M672.241,649.839
		c0,0-5.257,5.083-15.265,5.602c-7.238,0.374-14.806-7.342-14.806-7.342"/>
	<linearGradient id="SVGID_88_" gradientUnits="userSpaceOnUse" x1="656.7334" y1="635.3652" x2="691.043" y2="635.3652">
		<stop  offset="0" style="stop-color:#7E5A43"/>
		<stop  offset="0.9852" style="stop-color:#CC9966"/>
	</linearGradient>
	<path fill="none" stroke="url(#SVGID_88_)" stroke-width="6" stroke-miterlimit="10" d="M688.757,631.252
		c0,0-4.736,5.571-14.646,7.058c-7.169,1.077-15.45-5.867-15.45-5.867"/>
	<linearGradient id="SVGID_89_" gradientUnits="userSpaceOnUse" x1="669.1982" y1="620.5195" x2="703.5078" y2="620.5195">
		<stop  offset="0" style="stop-color:#7E5A43"/>
		<stop  offset="0.9852" style="stop-color:#CC9966"/>
	</linearGradient>
	<path fill="none" stroke="url(#SVGID_89_)" stroke-width="6" stroke-miterlimit="10" d="M701.223,616.405
		c0,0-4.737,5.569-14.646,7.058c-7.169,1.076-15.45-5.867-15.45-5.867"/>
	<linearGradient id="SVGID_90_" gradientUnits="userSpaceOnUse" x1="682.0117" y1="600.5078" x2="716.3223" y2="600.5078">
		<stop  offset="0" style="stop-color:#7E5A43"/>
		<stop  offset="0.9852" style="stop-color:#CC9966"/>
	</linearGradient>
	<path fill="none" stroke="url(#SVGID_90_)" stroke-width="6" stroke-miterlimit="10" d="M714.037,596.394
		c0,0-4.738,5.57-14.646,7.058c-7.169,1.077-15.451-5.867-15.451-5.867"/>
	<linearGradient id="SVGID_91_" gradientUnits="userSpaceOnUse" x1="695.5947" y1="579.7207" x2="729.5547" y2="579.7207">
		<stop  offset="0" style="stop-color:#7E5A43"/>
		<stop  offset="0.9852" style="stop-color:#CC9966"/>
	</linearGradient>
	<path fill="none" stroke="url(#SVGID_91_)" stroke-width="6" stroke-miterlimit="10" d="M727.079,574.621
		c0,0-4.129,6.035-13.828,8.552c-7.017,1.821-15.98-4.218-15.98-4.218"/>
	<linearGradient id="SVGID_92_" gradientUnits="userSpaceOnUse" x1="707.3125" y1="560.8164" x2="740.9346" y2="560.8164">
		<stop  offset="0" style="stop-color:#7E5A43"/>
		<stop  offset="0.9852" style="stop-color:#CC9966"/>
	</linearGradient>
	<path fill="none" stroke="url(#SVGID_92_)" stroke-width="6" stroke-miterlimit="10" d="M738.368,555.181
		c0,0-3.788,6.255-13.333,9.306c-6.904,2.206-16.187-3.327-16.187-3.327"/>
	<linearGradient id="SVGID_93_" gradientUnits="userSpaceOnUse" x1="716.8604" y1="536.957" x2="750.0752" y2="536.957">
		<stop  offset="0" style="stop-color:#7E5A43"/>
		<stop  offset="0.9852" style="stop-color:#CC9966"/>
	</linearGradient>
	<path fill="none" stroke="url(#SVGID_93_)" stroke-width="6" stroke-miterlimit="10" d="M747.432,530.812
		c0,0-3.458,6.441-12.832,9.983c-6.781,2.561-16.339-2.485-16.339-2.485"/>
	<linearGradient id="SVGID_94_" gradientUnits="userSpaceOnUse" x1="725.333" y1="514.0176" x2="757.9873" y2="514.0176">
		<stop  offset="0" style="stop-color:#7E5A43"/>
		<stop  offset="0.9852" style="stop-color:#CC9966"/>
	</linearGradient>
	<path fill="none" stroke="url(#SVGID_94_)" stroke-width="6" stroke-miterlimit="10" d="M755.267,507.293
		c0,0-3.08,6.633-12.233,10.709c-6.621,2.948-16.456-1.535-16.456-1.535"/>
	<linearGradient id="SVGID_95_" gradientUnits="userSpaceOnUse" x1="732.5732" y1="493.0234" x2="764.375" y2="493.0234">
		<stop  offset="0" style="stop-color:#7E5A43"/>
		<stop  offset="0.9852" style="stop-color:#CC9966"/>
	</linearGradient>
	<path fill="none" stroke="url(#SVGID_95_)" stroke-width="6" stroke-miterlimit="10" d="M761.57,485.553
		c0,0-2.594,6.84-11.428,11.566c-6.394,3.422-16.524-0.341-16.524-0.341"/>
	<linearGradient id="SVGID_96_" gradientUnits="userSpaceOnUse" x1="739.2793" y1="467.9492" x2="770.8262" y2="467.9492">
		<stop  offset="0" style="stop-color:#7E5A43"/>
		<stop  offset="0.9852" style="stop-color:#CC9966"/>
	</linearGradient>
	<path fill="none" stroke="url(#SVGID_96_)" stroke-width="6" stroke-miterlimit="10" d="M768.001,460.278
		c0,0-2.461,6.887-11.204,11.783c-6.325,3.541-16.527-0.026-16.527-0.026"/>
	<linearGradient id="SVGID_97_" gradientUnits="userSpaceOnUse" x1="745.4463" y1="441.5938" x2="775.0205" y2="441.5938">
		<stop  offset="0" style="stop-color:#7E5A43"/>
		<stop  offset="0.9852" style="stop-color:#CC9966"/>
	</linearGradient>
	<path fill="none" stroke="url(#SVGID_97_)" stroke-width="6" stroke-miterlimit="10" d="M772.091,432.536
		c0,0-1.57,7.144-9.622,13.106c-5.825,4.314-16.398,2.067-16.398,2.067"/>
	<linearGradient id="SVGID_98_" gradientUnits="userSpaceOnUse" x1="745.8213" y1="418.834" x2="775.7461" y2="418.834">
		<stop  offset="0" style="stop-color:#7E5A43"/>
		<stop  offset="0.9852" style="stop-color:#CC9966"/>
	</linearGradient>
	<path fill="none" stroke="url(#SVGID_98_)" stroke-width="6" stroke-miterlimit="10" d="M772.83,410.008
		c0,0-1.716,7.109-9.891,12.906c-5.912,4.194-16.435,1.73-16.435,1.73"/>
</g>
<g id="mustache">
	<linearGradient id="SVGID_99_" gradientUnits="userSpaceOnUse" x1="263.7129" y1="400" x2="536.2881" y2="400">
		<stop  offset="0.0545" style="stop-color:#7E5A43"/>
		<stop  offset="0.523" style="stop-color:#CC9966"/>
		<stop  offset="0.9415" style="stop-color:#7E5A43"/>
	</linearGradient>
	<path fill="url(#SVGID_99_)" d="M399.802,368.395c0,0-15.722-18.34-43.623-2.921c-9.3,5.14-16.445,17.34-29.49,30.809
		c-40.607,41.926-58.415,3.014-52.385-10.929c-0.336,5.946,6.689,12.248,12.538,12.297c8.005,0.067,18.275-2.229,17.612-16.82
		c-0.283-6.218-6.689-13.846-16.959-13.944c-9.893-0.094-19.974,6.689-22.898,20.257c-7.632,47.202,35.917,54.638,61.433,53.802
		c22.989-0.754,60.906-19.695,73.72-37.691c16.822,19.691,54.805,36.188,67.605,36.84c17.901,0.91,79.34,0.872,67.407-56.258
		c-1.927-9.223-13.138-17.043-21.523-17.043c-11.271,0-16.677,6.972-16.959,15.357c-0.324,9.621,6.628,15.521,14.98,15.64
		c6.595,0.094,11.651-2.167,15.074-12.437c7.161,22.895-20.871,48.02-50.782,13.32C450.02,369.054,432.024,345.028,399.802,368.395z
		"/>
</g>
<g id="Knife">
	<linearGradient id="SVGID_100_" gradientUnits="userSpaceOnUse" x1="353.8296" y1="218.3633" x2="447.0967" y2="218.3633">
		<stop  offset="0.0545" style="stop-color:#7E5A43"/>
		<stop  offset="0.523" style="stop-color:#CC9966"/>
		<stop  offset="0.9415" style="stop-color:#7E5A43"/>
	</linearGradient>
	<path fill="url(#SVGID_100_)" d="M372.516,152.67c0,0-16.246,61.072-17.012,82.166c-0.717,19.76-2.807,44.909-0.879,54.896
		c1.881,9.745,10.065,13.671,15.084,13.66c6.894-0.015,17.227-6.413,16.331-17.097c-0.941-11.215-3.999-27.302-3.062-52.565
		c0.359-9.704,3.081-37.56,4.337-44.316c2.552,4.848,8.761,15.311,8.761,15.311s-6.464,6.551-3.912,12.931
		c2.551,6.378,31.057,75.391,31.057,75.391s7.814,14.854,18.957,7.029c5.875-4.124,5.393-11.9,4.084-14.799
		c-3.572-7.911-47.719-115.253-47.719-115.253s-3.232-7.572-5.869-9.783c0.852-3.062,1.674-6.234,1.889-8.806
		c0.258-3.056,0.152-8.291-7.248-11.098c-7.4-2.807-10.962,3.171-12.758,5.104c-1.963-1.534-4.168-9.356-4.168-9.356
		s-1.701-3.402-3.743-2.637c-2.042,0.765-1.786,2.551-1.531,4.338C365.372,139.57,372.516,152.67,372.516,152.67z"/>
	<circle fill="#FFFFFF" cx="382.128" cy="158.2" r="2.892"/>
	<circle fill="#FFFFFF" cx="369.879" cy="284.256" r="5.529"/>
	<path fill="#FFFFFF" d="M391.06,167.131c0,0-3.148,11.823-2.553,13.269s12.504,22.118,12.504,22.118l5.02-0.428l-14.631-34.959
		H391.06z"/>
	<path fill="#FFFFFF" d="M400.841,208.044c0,0-5.264,2.892-3.609,7.484c1.654,4.595,22.527,57.048,31.273,75.982
		c1.047,2.268,4.92,7.897,10.527,3.548c4.168-3.23,2.979-6.295,1.275-10.803c-1.701-4.507-31.045-73.829-31.045-73.829
		S408.071,206.002,400.841,208.044z"/>
</g>
<g id="Pole">
	<path fill="#FFFFFF" d="M430.388,642.574l-68.979-0.216c0,0-1.488-3.966,0.111-5.454l68.898-0.026
		C431.715,638.152,431.051,641.704,430.388,642.574z"/>
	<linearGradient id="SVGID_101_" gradientUnits="userSpaceOnUse" x1="360.3794" y1="575.9131" x2="431.791" y2="575.9131">
		<stop  offset="0.0545" style="stop-color:#7E5A43"/>
		<stop  offset="0.523" style="stop-color:#CC9966"/>
		<stop  offset="0.9415" style="stop-color:#7E5A43"/>
	</linearGradient>
	<path fill="url(#SVGID_101_)" d="M389.667,497.812c0,0-0.356-6.421,6.302-6.421c6.207,0,6.473,5.137,6.649,6.421
		c0.178,1.285,12.423-0.495,22.89,9.632c1.455,1.408,5.602-0.581,5.499,5.139c-0.09,5.057-2.882,4.916-5.322,5.459
		c0,6.1,0.179,116.388,0.179,116.388s5.923,0.796,5.928,5.298c0.008,4.496-4.768,4.637-7.171,4.816
		c-4.436,5.38-15.438,9.071-22.002,9.15c-0.355,3.531-2.042,6.742-6.649,6.742c-5.061,0-5.77-3.128-6.302-6.499
		c-2.471-0.715-10.824,0.397-23.155-9.392c-3.919-0.532-6.299-1.608-6.122-4.818c0.178-3.212,5.265-5.172,7.217-5.172V518.041
		c0,0-7.228-0.764-7.228-5.779c0-4.616,3.027-4.656,6.221-4.977C369.789,505.912,378.488,498.772,389.667,497.812z"/>
	<path fill="none" stroke="#FFFFFF" stroke-miterlimit="10" d="M360.391,639.727"/>
	<path fill="none" stroke="#FFFFFF" stroke-miterlimit="10" d="M390.599,654.334"/>
	<polygon fill="#FFFFFF" points="366.96,527.754 367.242,544.318 425.685,521.672 425.685,518.041 387.403,518.041 	"/>
	<polygon fill="#FFFFFF" points="425.753,564.656 367.798,586.931 367.607,569.592 425.685,547.679 	"/>
	<polygon fill="#FFFFFF" points="425.753,607.594 367.798,629.868 367.607,612.53 425.685,590.617 	"/>
	<linearGradient id="SVGID_102_" gradientUnits="userSpaceOnUse" x1="367.6968" y1="518.4385" x2="425.7734" y2="518.4385">
		<stop  offset="0.0545" style="stop-color:#7E5A43"/>
		<stop  offset="0.523" style="stop-color:#CC9966"/>
		<stop  offset="0.9415" style="stop-color:#7E5A43"/>
	</linearGradient>
	<line fill="none" stroke="url(#SVGID_102_)" stroke-miterlimit="10" x1="367.697" y1="518.438" x2="425.773" y2="518.438"/>
	<linearGradient id="SVGID_103_" gradientUnits="userSpaceOnUse" x1="367.6406" y1="633.9473" x2="425.7168" y2="633.9473">
		<stop  offset="0.0545" style="stop-color:#7E5A43"/>
		<stop  offset="0.523" style="stop-color:#CC9966"/>
		<stop  offset="0.9415" style="stop-color:#7E5A43"/>
	</linearGradient>
	<line fill="none" stroke="url(#SVGID_103_)" stroke-miterlimit="10" x1="367.641" y1="633.947" x2="425.717" y2="633.947"/>
</g>
<g id="Circle">
	<linearGradient id="SVGID_104_" gradientUnits="userSpaceOnUse" x1="58.3477" y1="396.1924" x2="734.3721" y2="396.1924">
		<stop  offset="0.0554" style="stop-color:#7E5A43"/>
		<stop  offset="0.523" style="stop-color:#CC9966"/>
		<stop  offset="1" style="stop-color:#7E5A43"/>
	</linearGradient>
	
		<ellipse fill="none" stroke="url(#SVGID_104_)" stroke-width="23" stroke-miterlimit="10" cx="396.36" cy="396.192" rx="326.512" ry="317.108"/>
	<linearGradient id="SVGID_105_" gradientUnits="userSpaceOnUse" x1="50.522" y1="395.6748" x2="742.1973" y2="395.6748">
		<stop  offset="0.0554" style="stop-color:#7E5A43"/>
		<stop  offset="0.523" style="stop-color:#CC9966"/>
		<stop  offset="1" style="stop-color:#7E5A43"/>
	</linearGradient>
	
		<ellipse fill="none" stroke="url(#SVGID_105_)" stroke-width="6" stroke-miterlimit="10" cx="396.36" cy="395.676" rx="342.838" ry="333.913"/>
	<linearGradient id="SVGID_106_" gradientUnits="userSpaceOnUse" x1="31.981" y1="395.6748" x2="760.7373" y2="395.6748">
		<stop  offset="0.0554" style="stop-color:#7E5A43"/>
		<stop  offset="0.523" style="stop-color:#CC9966"/>
		<stop  offset="1" style="stop-color:#7E5A43"/>
	</linearGradient>
	
		<ellipse display="none" fill="none" stroke="url(#SVGID_106_)" stroke-width="6" stroke-miterlimit="10" cx="396.359" cy="395.674" rx="361.378" ry="357.728"/>
</g>
</svg>
