<?xml version="1.0" encoding="utf-8"?>
<!-- Generator: Adobe Illustrator 16.0.0, SVG Export Plug-In . SVG Version: 6.00 Build 0)  -->
<!DOCTYPE svg PUBLIC "-//W3C//DTD SVG 1.1//EN" "http://www.w3.org/Graphics/SVG/1.1/DTD/svg11.dtd">
<svg version="1.1" id="Layer_1" xmlns="http://www.w3.org/2000/svg" xmlns:xlink="http://www.w3.org/1999/xlink" x="0px" y="0px"
	 width="800px" height="800px" viewBox="0 0 800 800" enable-background="new 0 0 800 800" xml:space="preserve">
<g id="Layer_1_1_">
	
		<linearGradient id="SVGID_1_" gradientUnits="userSpaceOnUse" x1="454.4082" y1="633.7949" x2="477.7314" y2="633.7949" gradientTransform="matrix(1 0 0 -1 294 1005)">
		<stop  offset="0" style="stop-color:#7E5A43"/>
		<stop  offset="0.9852" style="stop-color:#CC9966"/>
	</linearGradient>
	<path fill="none" stroke="url(#SVGID_1_)" stroke-width="6" stroke-miterlimit="10" d="M768.7,358.591
		c0,0,0.745,7.275-5.039,15.458c-4.183,5.919-14.927,7.093-14.927,7.093"/>
	
		<linearGradient id="SVGID_2_" gradientUnits="userSpaceOnUse" x1="453.9961" y1="611.5703" x2="478.3027" y2="611.5703" gradientTransform="matrix(1 0 0 -1 294 1005)">
		<stop  offset="0" style="stop-color:#7E5A43"/>
		<stop  offset="0.9852" style="stop-color:#CC9966"/>
	</linearGradient>
	<path fill="none" stroke="url(#SVGID_2_)" stroke-width="6" stroke-miterlimit="10" d="M769.299,381.275
		c0,0,0.357,7.305-5.853,15.169c-4.49,5.688-15.282,6.292-15.282,6.292"/>
	
		<linearGradient id="SVGID_3_" gradientUnits="userSpaceOnUse" x1="452.7041" y1="661.1777" x2="474.7139" y2="661.1777" gradientTransform="matrix(1 0 0 -1 294 1005)">
		<stop  offset="0" style="stop-color:#7E5A43"/>
		<stop  offset="0.9852" style="stop-color:#CC9966"/>
	</linearGradient>
	<path fill="none" stroke="url(#SVGID_3_)" stroke-width="6" stroke-miterlimit="10" d="M765.582,330.658
		c0,0,1.249,7.206-3.949,15.772c-3.76,6.197-14.396,8.117-14.396,8.117"/>
	
		<linearGradient id="SVGID_4_" gradientUnits="userSpaceOnUse" x1="449.6455" y1="679.5781" x2="470.4756" y2="679.5781" gradientTransform="matrix(1 0 0 -1 294 1005)">
		<stop  offset="0" style="stop-color:#7E5A43"/>
		<stop  offset="0.9852" style="stop-color:#CC9966"/>
	</linearGradient>
	<path fill="none" stroke="url(#SVGID_4_)" stroke-width="6" stroke-miterlimit="10" d="M761.173,311.818
		c0,0,1.698,7.113-2.952,15.988c-3.365,6.42-13.858,9.003-13.858,9.003"/>
	
		<linearGradient id="SVGID_5_" gradientUnits="userSpaceOnUse" x1="444.9473" y1="698.7988" x2="465.4756" y2="698.7988" gradientTransform="matrix(1 0 0 -1 294 1005)">
		<stop  offset="0" style="stop-color:#7E5A43"/>
		<stop  offset="0.9852" style="stop-color:#CC9966"/>
	</linearGradient>
	<path fill="none" stroke="url(#SVGID_5_)" stroke-width="6" stroke-miterlimit="10" d="M756.115,292.49
		c0,0,1.812,7.084-2.691,16.035c-3.261,6.474-13.712,9.228-13.712,9.228"/>
	
		<linearGradient id="SVGID_6_" gradientUnits="userSpaceOnUse" x1="440.8711" y1="719.5" x2="459.3809" y2="719.5" gradientTransform="matrix(1 0 0 -1 294 1005)">
		<stop  offset="0" style="stop-color:#7E5A43"/>
		<stop  offset="0.9852" style="stop-color:#CC9966"/>
	</linearGradient>
	<path fill="none" stroke="url(#SVGID_6_)" stroke-width="6" stroke-miterlimit="10" d="M749.458,271.17
		c0,0,2.586,6.84-0.901,16.234c-2.522,6.795-12.605,10.688-12.605,10.688"/>
	
		<linearGradient id="SVGID_7_" gradientUnits="userSpaceOnUse" x1="433.6553" y1="738.627" x2="452.166" y2="738.627" gradientTransform="matrix(1 0 0 -1 294 1005)">
		<stop  offset="0" style="stop-color:#7E5A43"/>
		<stop  offset="0.9852" style="stop-color:#CC9966"/>
	</linearGradient>
	<path fill="none" stroke="url(#SVGID_7_)" stroke-width="6" stroke-miterlimit="10" d="M742.243,252.043
		c0,0,2.586,6.84-0.902,16.234c-2.522,6.795-12.605,10.688-12.605,10.688"/>
	
		<linearGradient id="SVGID_8_" gradientUnits="userSpaceOnUse" x1="425.8369" y1="759.5615" x2="442.293" y2="759.5615" gradientTransform="matrix(1 0 0 -1 294 1005)">
		<stop  offset="0" style="stop-color:#7E5A43"/>
		<stop  offset="0.9852" style="stop-color:#CC9966"/>
	</linearGradient>
	<path fill="none" stroke="url(#SVGID_8_)" stroke-width="6" stroke-miterlimit="10" d="M731.415,230.635
		c0,0,3.391,6.479,1.06,16.224c-1.688,7.049-11.229,12.126-11.229,12.126"/>
	
		<linearGradient id="SVGID_9_" gradientUnits="userSpaceOnUse" x1="416.3926" y1="781.8789" x2="431.3232" y2="781.8789" gradientTransform="matrix(1 0 0 -1 294 1005)">
		<stop  offset="0" style="stop-color:#7E5A43"/>
		<stop  offset="0.9852" style="stop-color:#CC9966"/>
	</linearGradient>
	<path fill="none" stroke="url(#SVGID_9_)" stroke-width="6" stroke-miterlimit="10" d="M719.396,208.089
		c0,0,4.009,6.116,2.643,16.042c-0.987,7.181-9.984,13.169-9.984,13.169"/>
	
		<linearGradient id="SVGID_10_" gradientUnits="userSpaceOnUse" x1="404.8926" y1="800.8174" x2="419.8242" y2="800.8174" gradientTransform="matrix(1 0 0 -1 294 1005)">
		<stop  offset="0" style="stop-color:#7E5A43"/>
		<stop  offset="0.9852" style="stop-color:#CC9966"/>
	</linearGradient>
	<path fill="none" stroke="url(#SVGID_10_)" stroke-width="6" stroke-miterlimit="10" d="M707.896,189.151
		c0,0,4.009,6.116,2.645,16.042c-0.988,7.181-9.986,13.169-9.986,13.169"/>
	
		<linearGradient id="SVGID_11_" gradientUnits="userSpaceOnUse" x1="393.5078" y1="818.0654" x2="407.5986" y2="818.0654" gradientTransform="matrix(1 0 0 -1 294 1005)">
		<stop  offset="0" style="stop-color:#7E5A43"/>
		<stop  offset="0.9852" style="stop-color:#CC9966"/>
	</linearGradient>
	<path fill="none" stroke="url(#SVGID_11_)" stroke-width="6" stroke-miterlimit="10" d="M694.921,171.835
		c0,0,4.363,5.869,3.585,15.859c-0.563,7.227-9.191,13.735-9.191,13.735"/>
	
		<linearGradient id="SVGID_12_" gradientUnits="userSpaceOnUse" x1="382.2764" y1="835.5918" x2="395.0596" y2="835.5918" gradientTransform="matrix(1 0 0 -1 294 1005)">
		<stop  offset="0" style="stop-color:#7E5A43"/>
		<stop  offset="0.9852" style="stop-color:#CC9966"/>
	</linearGradient>
	<path fill="none" stroke="url(#SVGID_12_)" stroke-width="6" stroke-miterlimit="10" d="M680.868,154.316
		c0,0,4.94,5.392,5.188,15.409c0.179,7.247-7.738,14.603-7.738,14.603"/>
	
		<linearGradient id="SVGID_13_" gradientUnits="userSpaceOnUse" x1="370.1328" y1="850.7617" x2="381.9814" y2="850.7617" gradientTransform="matrix(1 0 0 -1 294 1005)">
		<stop  offset="0" style="stop-color:#7E5A43"/>
		<stop  offset="0.9852" style="stop-color:#CC9966"/>
	</linearGradient>
	<path fill="none" stroke="url(#SVGID_13_)" stroke-width="6" stroke-miterlimit="10" d="M666.572,139.257
		c0,0,5.34,4.995,6.357,14.964c0.736,7.211-6.592,15.155-6.592,15.155"/>
	
		<linearGradient id="SVGID_14_" gradientUnits="userSpaceOnUse" x1="355.6016" y1="865.8223" x2="367.4502" y2="865.8223" gradientTransform="matrix(1 0 0 -1 294 1005)">
		<stop  offset="0" style="stop-color:#7E5A43"/>
		<stop  offset="0.9852" style="stop-color:#CC9966"/>
	</linearGradient>
	<path fill="none" stroke="url(#SVGID_14_)" stroke-width="6" stroke-miterlimit="10" d="M652.039,124.197
		c0,0,5.342,4.996,6.359,14.964c0.735,7.211-6.592,15.155-6.592,15.155"/>
	
		<linearGradient id="SVGID_15_" gradientUnits="userSpaceOnUse" x1="339.0049" y1="880.9746" x2="351.187" y2="880.9746" gradientTransform="matrix(1 0 0 -1 294 1005)">
		<stop  offset="0" style="stop-color:#7E5A43"/>
		<stop  offset="0.9852" style="stop-color:#CC9966"/>
	</linearGradient>
	<path fill="none" stroke="url(#SVGID_15_)" stroke-width="6" stroke-miterlimit="10" d="M634.938,109.17
		c0,0,5.594,4.711,7.129,14.613c1.109,7.163-5.795,15.478-5.795,15.478"/>
	
		<linearGradient id="SVGID_16_" gradientUnits="userSpaceOnUse" x1="319.3574" y1="896.1582" x2="332.4673" y2="896.1582" gradientTransform="matrix(1 0 0 -1 294 1005)">
		<stop  offset="0" style="stop-color:#7E5A43"/>
		<stop  offset="0.9852" style="stop-color:#CC9966"/>
	</linearGradient>
	<path fill="none" stroke="url(#SVGID_16_)" stroke-width="6" stroke-miterlimit="10" d="M615.134,94.203
		c0,0,5.895,4.331,8.08,14.109c1.581,7.074-4.758,15.827-4.758,15.827"/>
	
		<linearGradient id="SVGID_17_" gradientUnits="userSpaceOnUse" x1="301.2651" y1="908.8965" x2="315.7607" y2="908.8965" gradientTransform="matrix(1 0 0 -1 294 1005)">
		<stop  offset="0" style="stop-color:#7E5A43"/>
		<stop  offset="0.9852" style="stop-color:#CC9966"/>
	</linearGradient>
	<path fill="none" stroke="url(#SVGID_17_)" stroke-width="6" stroke-miterlimit="10" d="M596.798,81.9
		c0,0,6.286,3.737,9.414,13.257c2.262,6.887-3.197,16.214-3.197,16.214"/>
	
		<linearGradient id="SVGID_18_" gradientUnits="userSpaceOnUse" x1="281.9399" y1="920.252" x2="296.436" y2="920.252" gradientTransform="matrix(1 0 0 -1 294 1005)">
		<stop  offset="0" style="stop-color:#7E5A43"/>
		<stop  offset="0.9852" style="stop-color:#CC9966"/>
	</linearGradient>
	<path fill="none" stroke="url(#SVGID_18_)" stroke-width="6" stroke-miterlimit="10" d="M577.474,70.544
		c0,0,6.285,3.738,9.413,13.257c2.263,6.887-3.195,16.215-3.195,16.215"/>
	
		<linearGradient id="SVGID_19_" gradientUnits="userSpaceOnUse" x1="262.7222" y1="930.2246" x2="277.2178" y2="930.2246" gradientTransform="matrix(1 0 0 -1 294 1005)">
		<stop  offset="0" style="stop-color:#7E5A43"/>
		<stop  offset="0.9852" style="stop-color:#CC9966"/>
	</linearGradient>
	<path fill="none" stroke="url(#SVGID_19_)" stroke-width="6" stroke-miterlimit="10" d="M558.256,60.57
		c0,0,6.284,3.738,9.413,13.257c2.262,6.887-3.197,16.215-3.197,16.215"/>
	
		<linearGradient id="SVGID_20_" gradientUnits="userSpaceOnUse" x1="242.8311" y1="939.3291" x2="258.8564" y2="939.3291" gradientTransform="matrix(1 0 0 -1 294 1005)">
		<stop  offset="0" style="stop-color:#7E5A43"/>
		<stop  offset="0.9852" style="stop-color:#CC9966"/>
	</linearGradient>
	<path fill="none" stroke="url(#SVGID_20_)" stroke-width="6" stroke-miterlimit="10" d="M538.086,52.086
		c0,0,6.643,3.059,10.748,12.199c2.972,6.612-1.48,16.46-1.48,16.46"/>
	
		<linearGradient id="SVGID_21_" gradientUnits="userSpaceOnUse" x1="220.6338" y1="948.2031" x2="237.4902" y2="948.2031" gradientTransform="matrix(1 0 0 -1 294 1005)">
		<stop  offset="0" style="stop-color:#7E5A43"/>
		<stop  offset="0.9852" style="stop-color:#CC9966"/>
	</linearGradient>
	<path fill="none" stroke="url(#SVGID_21_)" stroke-width="6" stroke-miterlimit="10" d="M515.736,43.6
		c0,0,6.801,2.687,11.408,11.585c3.331,6.438-0.569,16.517-0.569,16.517"/>
	
		<linearGradient id="SVGID_22_" gradientUnits="userSpaceOnUse" x1="196.8848" y1="955.6094" x2="214.5376" y2="955.6094" gradientTransform="matrix(1 0 0 -1 294 1005)">
		<stop  offset="0" style="stop-color:#7E5A43"/>
		<stop  offset="0.9852" style="stop-color:#CC9966"/>
	</linearGradient>
	<path fill="none" stroke="url(#SVGID_22_)" stroke-width="6" stroke-miterlimit="10" d="M491.841,36.593
		c0,0,6.933,2.331,11.991,10.979c3.661,6.256,0.289,16.524,0.289,16.524"/>
	
		<linearGradient id="SVGID_23_" gradientUnits="userSpaceOnUse" x1="174.5273" y1="960.8398" x2="193.1011" y2="960.8398" gradientTransform="matrix(1 0 0 -1 294 1005)">
		<stop  offset="0" style="stop-color:#7E5A43"/>
		<stop  offset="0.9852" style="stop-color:#CC9966"/>
	</linearGradient>
	<path fill="none" stroke="url(#SVGID_23_)" stroke-width="6" stroke-miterlimit="10" d="M469.317,31.849
		c0,0,7.055,1.926,12.606,10.267c4.019,6.035,1.243,16.48,1.243,16.48"/>
	
		<linearGradient id="SVGID_24_" gradientUnits="userSpaceOnUse" x1="148.6885" y1="965.7129" x2="168.4692" y2="965.7129" gradientTransform="matrix(1 0 0 -1 294 1005)">
		<stop  offset="0" style="stop-color:#7E5A43"/>
		<stop  offset="0.9852" style="stop-color:#CC9966"/>
	</linearGradient>
	<path fill="none" stroke="url(#SVGID_24_)" stroke-width="6" stroke-miterlimit="10" d="M443.267,27.642
		c0,0,7.178,1.41,13.317,9.328c4.442,5.729,2.432,16.347,2.432,16.347"/>
	
		<linearGradient id="SVGID_25_" gradientUnits="userSpaceOnUse" x1="122.9756" y1="968.667" x2="143.0903" y2="968.667" gradientTransform="matrix(1 0 0 -1 294 1005)">
		<stop  offset="0" style="stop-color:#7E5A43"/>
		<stop  offset="0.9852" style="stop-color:#CC9966"/>
	</linearGradient>
	<path fill="none" stroke="url(#SVGID_25_)" stroke-width="6" stroke-miterlimit="10" d="M417.498,24.875
		c0,0,7.203,1.273,13.494,9.071c4.551,5.642,2.744,16.298,2.744,16.298"/>
	
		<linearGradient id="SVGID_26_" gradientUnits="userSpaceOnUse" x1="96.6548" y1="970.0068" x2="119.1265" y2="970.0068" gradientTransform="matrix(1 0 0 -1 294 1005)">
		<stop  offset="0" style="stop-color:#7E5A43"/>
		<stop  offset="0.9852" style="stop-color:#CC9966"/>
	</linearGradient>
	<path fill="none" stroke="url(#SVGID_26_)" stroke-width="6" stroke-miterlimit="10" d="M390.799,24.875
		c0,0,7.305,0.351,14.533,7.29c5.229,5.02,4.785,15.819,4.785,15.819"/>
	
		<linearGradient id="SVGID_27_" gradientUnits="userSpaceOnUse" x1="71.3931" y1="968.8301" x2="96.4043" y2="968.8301" gradientTransform="matrix(1 0 0 -1 294 1005)">
		<stop  offset="0" style="stop-color:#7E5A43"/>
		<stop  offset="0.9852" style="stop-color:#CC9966"/>
	</linearGradient>
	<path fill="none" stroke="url(#SVGID_27_)" stroke-width="6" stroke-miterlimit="10" d="M365.591,27.183
		c0,0,7.297-0.482,15.269,5.591c5.765,4.393,6.553,15.172,6.553,15.172"/>
	
		<linearGradient id="SVGID_28_" gradientUnits="userSpaceOnUse" x1="41.8296" y1="966.1885" x2="69.2886" y2="966.1885" gradientTransform="matrix(1 0 0 -1 294 1005)">
		<stop  offset="0" style="stop-color:#7E5A43"/>
		<stop  offset="0.9852" style="stop-color:#CC9966"/>
	</linearGradient>
	<path fill="none" stroke="url(#SVGID_28_)" stroke-width="6" stroke-miterlimit="10" d="M336.357,30.998
		c0,0,7.198-1.286,15.792,3.868c6.216,3.729,8.189,14.354,8.189,14.354"/>
	
		<linearGradient id="SVGID_29_" gradientUnits="userSpaceOnUse" x1="15.4863" y1="961.998" x2="42.9458" y2="961.998" gradientTransform="matrix(1 0 0 -1 294 1005)">
		<stop  offset="0" style="stop-color:#7E5A43"/>
		<stop  offset="0.9852" style="stop-color:#CC9966"/>
	</linearGradient>
	<path fill="none" stroke="url(#SVGID_29_)" stroke-width="6" stroke-miterlimit="10" d="M310.014,35.188
		c0,0,7.199-1.286,15.792,3.868c6.216,3.728,8.19,14.355,8.19,14.355"/>
	
		<linearGradient id="SVGID_30_" gradientUnits="userSpaceOnUse" x1="-13.3364" y1="956.8311" x2="16.4053" y2="956.8311" gradientTransform="matrix(1 0 0 -1 294 1005)">
		<stop  offset="0" style="stop-color:#7E5A43"/>
		<stop  offset="0.9852" style="stop-color:#CC9966"/>
	</linearGradient>
	<path fill="none" stroke="url(#SVGID_30_)" stroke-width="6" stroke-miterlimit="10" d="M281.543,41.898
		c0,0,6.991-2.143,16.142,1.94c6.62,2.954,9.858,13.265,9.858,13.265"/>
	
		<linearGradient id="SVGID_31_" gradientUnits="userSpaceOnUse" x1="-37.2295" y1="949.668" x2="-5.9458" y2="949.668" gradientTransform="matrix(1 0 0 -1 294 1005)">
		<stop  offset="0" style="stop-color:#7E5A43"/>
		<stop  offset="0.9852" style="stop-color:#CC9966"/>
	</linearGradient>
	<path fill="none" stroke="url(#SVGID_31_)" stroke-width="6" stroke-miterlimit="10" d="M257.927,50.531
		c0,0,6.749-2.818,16.255,0.348c6.877,2.291,11.112,12.234,11.112,12.234"/>
	
		<linearGradient id="SVGID_32_" gradientUnits="userSpaceOnUse" x1="-58.9976" y1="940.5654" x2="-27.7158" y2="940.5654" gradientTransform="matrix(1 0 0 -1 294 1005)">
		<stop  offset="0" style="stop-color:#7E5A43"/>
		<stop  offset="0.9852" style="stop-color:#CC9966"/>
	</linearGradient>
	<path fill="none" stroke="url(#SVGID_32_)" stroke-width="6" stroke-miterlimit="10" d="M236.158,59.633
		c0,0,6.747-2.817,16.255,0.348c6.877,2.291,11.111,12.234,11.111,12.234"/>
	
		<linearGradient id="SVGID_33_" gradientUnits="userSpaceOnUse" x1="-78.1445" y1="930.9199" x2="-46.0811" y2="930.9199" gradientTransform="matrix(1 0 0 -1 294 1005)">
		<stop  offset="0" style="stop-color:#7E5A43"/>
		<stop  offset="0.9852" style="stop-color:#CC9966"/>
	</linearGradient>
	<path fill="none" stroke="url(#SVGID_33_)" stroke-width="6" stroke-miterlimit="10" d="M217.173,70.252
		c0,0,6.57-3.211,16.247-0.611c7,1.881,11.813,11.558,11.813,11.558"/>
	
		<linearGradient id="SVGID_34_" gradientUnits="userSpaceOnUse" x1="-100.2266" y1="920.9941" x2="-67.0708" y2="920.9941" gradientTransform="matrix(1 0 0 -1 294 1005)">
		<stop  offset="0" style="stop-color:#7E5A43"/>
		<stop  offset="0.9852" style="stop-color:#CC9966"/>
	</linearGradient>
	<path fill="none" stroke="url(#SVGID_34_)" stroke-width="6" stroke-miterlimit="10" d="M195.36,82.023c0,0,6.207-3.867,16.1-2.27
		c7.155,1.155,12.934,10.289,12.934,10.289"/>
	
		<linearGradient id="SVGID_35_" gradientUnits="userSpaceOnUse" x1="-119.6426" y1="908.9961" x2="-85.8955" y2="908.9961" gradientTransform="matrix(1 0 0 -1 294 1005)">
		<stop  offset="0" style="stop-color:#7E5A43"/>
		<stop  offset="0.9852" style="stop-color:#CC9966"/>
	</linearGradient>
	<path fill="none" stroke="url(#SVGID_35_)" stroke-width="6" stroke-miterlimit="10" d="M176.135,95.53
		c0,0,5.891-4.333,15.877-3.502c7.224,0.601,13.688,9.263,13.688,9.263"/>
	
		<linearGradient id="SVGID_36_" gradientUnits="userSpaceOnUse" x1="-140.7007" y1="894.7812" x2="-106.9546" y2="894.7812" gradientTransform="matrix(1 0 0 -1 294 1005)">
		<stop  offset="0" style="stop-color:#7E5A43"/>
		<stop  offset="0.9852" style="stop-color:#CC9966"/>
	</linearGradient>
	<path fill="none" stroke="url(#SVGID_36_)" stroke-width="6" stroke-miterlimit="10" d="M155.077,109.745
		c0,0,5.891-4.333,15.877-3.502c7.223,0.601,13.687,9.262,13.687,9.262"/>
	
		<linearGradient id="SVGID_37_" gradientUnits="userSpaceOnUse" x1="-155.8657" y1="882.623" x2="-121.833" y2="882.623" gradientTransform="matrix(1 0 0 -1 294 1005)">
		<stop  offset="0" style="stop-color:#7E5A43"/>
		<stop  offset="0.9852" style="stop-color:#CC9966"/>
	</linearGradient>
	<path fill="none" stroke="url(#SVGID_37_)" stroke-width="6" stroke-miterlimit="10" d="M140.035,122.98
		c0,0,5.658-4.632,15.674-4.323c7.245,0.224,14.15,8.538,14.15,8.538"/>
	
		<linearGradient id="SVGID_38_" gradientUnits="userSpaceOnUse" x1="-171.0342" y1="869.2588" x2="-136.77" y2="869.2588" gradientTransform="matrix(1 0 0 -1 294 1005)">
		<stop  offset="0" style="stop-color:#7E5A43"/>
		<stop  offset="0.9852" style="stop-color:#CC9966"/>
	</linearGradient>
	<path fill="none" stroke="url(#SVGID_38_)" stroke-width="6" stroke-miterlimit="10" d="M125.016,137.771
		c0,0,5.34-4.997,15.354-5.351c7.244-0.256,14.684,7.583,14.684,7.583"/>
	
		<linearGradient id="SVGID_39_" gradientUnits="userSpaceOnUse" x1="-188.0571" y1="852.8789" x2="-153.7261" y2="852.8789" gradientTransform="matrix(1 0 0 -1 294 1005)">
		<stop  offset="0" style="stop-color:#7E5A43"/>
		<stop  offset="0.9852" style="stop-color:#CC9966"/>
	</linearGradient>
	<path fill="none" stroke="url(#SVGID_39_)" stroke-width="6" stroke-miterlimit="10" d="M108.196,156.084
		c0,0,4.828-5.491,14.761-6.817c7.184-0.958,15.352,6.12,15.352,6.12"/>
	
		<linearGradient id="SVGID_40_" gradientUnits="userSpaceOnUse" x1="-200.7622" y1="838.2383" x2="-166.4321" y2="838.2383" gradientTransform="matrix(1 0 0 -1 294 1005)">
		<stop  offset="0" style="stop-color:#7E5A43"/>
		<stop  offset="0.9852" style="stop-color:#CC9966"/>
	</linearGradient>
	<path fill="none" stroke="url(#SVGID_40_)" stroke-width="6" stroke-miterlimit="10" d="M95.491,170.725
		c0,0,4.828-5.492,14.76-6.817c7.185-0.958,15.352,6.12,15.352,6.12"/>
	
		<linearGradient id="SVGID_41_" gradientUnits="userSpaceOnUse" x1="-213.9019" y1="818.4395" x2="-179.5723" y2="818.4395" gradientTransform="matrix(1 0 0 -1 294 1005)">
		<stop  offset="0" style="stop-color:#7E5A43"/>
		<stop  offset="0.9852" style="stop-color:#CC9966"/>
	</linearGradient>
	<path fill="none" stroke="url(#SVGID_41_)" stroke-width="6" stroke-miterlimit="10" d="M82.351,190.524
		c0,0,4.828-5.492,14.761-6.817c7.184-0.958,15.351,6.121,15.351,6.121"/>
	
		<linearGradient id="SVGID_42_" gradientUnits="userSpaceOnUse" x1="-227.4937" y1="797.8633" x2="-193.4551" y2="797.8633" gradientTransform="matrix(1 0 0 -1 294 1005)">
		<stop  offset="0" style="stop-color:#7E5A43"/>
		<stop  offset="0.9852" style="stop-color:#CC9966"/>
	</linearGradient>
	<path fill="none" stroke="url(#SVGID_42_)" stroke-width="6" stroke-miterlimit="10" d="M68.954,212.081
		c0,0,4.227-5.967,13.966-8.325c7.044-1.707,15.908,4.479,15.908,4.479"/>
	
		<linearGradient id="SVGID_43_" gradientUnits="userSpaceOnUse" x1="-239.1943" y1="779.1436" x2="-205.46" y2="779.1436" gradientTransform="matrix(1 0 0 -1 294 1005)">
		<stop  offset="0" style="stop-color:#7E5A43"/>
		<stop  offset="0.9852" style="stop-color:#CC9966"/>
	</linearGradient>
	<path fill="none" stroke="url(#SVGID_43_)" stroke-width="6" stroke-miterlimit="10" d="M57.346,231.333
		c0,0,3.89-6.193,13.484-9.086c6.94-2.093,16.132,3.592,16.132,3.592"/>
	
		<linearGradient id="SVGID_44_" gradientUnits="userSpaceOnUse" x1="-248.7358" y1="755.4336" x2="-215.3813" y2="755.4336" gradientTransform="matrix(1 0 0 -1 294 1005)">
		<stop  offset="0" style="stop-color:#7E5A43"/>
		<stop  offset="0.9852" style="stop-color:#CC9966"/>
	</linearGradient>
	<path fill="none" stroke="url(#SVGID_44_)" stroke-width="6" stroke-miterlimit="10" d="M47.884,255.55
		c0,0,3.564-6.385,12.995-9.772c6.823-2.449,16.296,2.752,16.296,2.752"/>
	
		<linearGradient id="SVGID_45_" gradientUnits="userSpaceOnUse" x1="-257.0342" y1="732.6211" x2="-224.2085" y2="732.6211" gradientTransform="matrix(1 0 0 -1 294 1005)">
		<stop  offset="0" style="stop-color:#7E5A43"/>
		<stop  offset="0.9852" style="stop-color:#CC9966"/>
	</linearGradient>
	<path fill="none" stroke="url(#SVGID_45_)" stroke-width="6" stroke-miterlimit="10" d="M39.666,278.937
		c0,0,3.188-6.581,12.408-10.506c6.669-2.84,16.428,1.805,16.428,1.805"/>
	
		<linearGradient id="SVGID_46_" gradientUnits="userSpaceOnUse" x1="-263.7793" y1="711.7275" x2="-231.7705" y2="711.7275" gradientTransform="matrix(1 0 0 -1 294 1005)">
		<stop  offset="0" style="stop-color:#7E5A43"/>
		<stop  offset="0.9852" style="stop-color:#CC9966"/>
	</linearGradient>
	<path fill="none" stroke="url(#SVGID_46_)" stroke-width="6" stroke-miterlimit="10" d="M33.008,300.571
		c0,0,2.705-6.795,11.615-11.377c6.446-3.315,16.516,0.612,16.516,0.612"/>
	
		<linearGradient id="SVGID_47_" gradientUnits="userSpaceOnUse" x1="-270.644" y1="686.7617" x2="-238.8809" y2="686.7617" gradientTransform="matrix(1 0 0 -1 294 1005)">
		<stop  offset="0" style="stop-color:#7E5A43"/>
		<stop  offset="0.9852" style="stop-color:#CC9966"/>
	</linearGradient>
	<path fill="none" stroke="url(#SVGID_47_)" stroke-width="6" stroke-miterlimit="10" d="M26.164,325.737
		c0,0,2.574-6.845,11.395-11.597c6.382-3.438,16.524,0.296,16.524,0.296"/>
	
		<linearGradient id="SVGID_48_" gradientUnits="userSpaceOnUse" x1="-275.2979" y1="660.4629" x2="-245.4434" y2="660.4629" gradientTransform="matrix(1 0 0 -1 294 1005)">
		<stop  offset="0" style="stop-color:#7E5A43"/>
		<stop  offset="0.9852" style="stop-color:#CC9966"/>
	</linearGradient>
	<path fill="none" stroke="url(#SVGID_48_)" stroke-width="6" stroke-miterlimit="10" d="M21.621,353.409
		c0,0,1.686-7.116,9.835-12.947c5.895-4.219,16.429-1.799,16.429-1.799"/>
	
		<linearGradient id="SVGID_49_" gradientUnits="userSpaceOnUse" x1="-276.3921" y1="637.7227" x2="-246.1938" y2="637.7227" gradientTransform="matrix(1 0 0 -1 294 1005)">
		<stop  offset="0" style="stop-color:#7E5A43"/>
		<stop  offset="0.9852" style="stop-color:#CC9966"/>
	</linearGradient>
	<path fill="none" stroke="url(#SVGID_49_)" stroke-width="6" stroke-miterlimit="10" d="M20.512,375.921
		c0,0,1.832-7.08,10.1-12.742c5.98-4.097,16.462-1.46,16.462-1.46"/>
	
		<linearGradient id="SVGID_50_" gradientUnits="userSpaceOnUse" x1="-275.46" y1="583.877" x2="-249.7852" y2="583.877" gradientTransform="matrix(1 0 0 -1 294 1005)">
		<stop  offset="0" style="stop-color:#7E5A43"/>
		<stop  offset="0.9852" style="stop-color:#CC9966"/>
	</linearGradient>
	<path fill="none" stroke="url(#SVGID_50_)" stroke-width="6" stroke-miterlimit="10" d="M21.539,432.528
		c0,0,0.17-7.312,6.93-14.707c4.89-5.352,15.696-5.173,15.696-5.173"/>
	
		<linearGradient id="SVGID_51_" gradientUnits="userSpaceOnUse" x1="-277.0449" y1="613.3535" x2="-247.5806" y2="613.3535" gradientTransform="matrix(1 0 0 -1 294 1005)">
		<stop  offset="0" style="stop-color:#7E5A43"/>
		<stop  offset="0.9852" style="stop-color:#CC9966"/>
	</linearGradient>
	<path fill="none" stroke="url(#SVGID_51_)" stroke-width="6" stroke-miterlimit="10" d="M19.889,400.774
		c0,0,1.526-7.152,9.541-13.166c5.798-4.351,16.384-2.169,16.384-2.169"/>
	
		<linearGradient id="SVGID_52_" gradientUnits="userSpaceOnUse" x1="-271.8652" y1="556.7656" x2="-246.7754" y2="556.7656" gradientTransform="matrix(1 0 0 -1 294 1005)">
		<stop  offset="0" style="stop-color:#7E5A43"/>
		<stop  offset="0.9852" style="stop-color:#CC9966"/>
	</linearGradient>
	<path fill="none" stroke="url(#SVGID_52_)" stroke-width="6" stroke-miterlimit="10" d="M25.135,459.984
		c0,0-0.037-7.312,6.511-14.897c4.736-5.488,15.543-5.617,15.543-5.617"/>
	
		<linearGradient id="SVGID_53_" gradientUnits="userSpaceOnUse" x1="-266.6826" y1="536.3467" x2="-243.6914" y2="536.3467" gradientTransform="matrix(1 0 0 -1 294 1005)">
		<stop  offset="0" style="stop-color:#7E5A43"/>
		<stop  offset="0.9852" style="stop-color:#CC9966"/>
	</linearGradient>
	<path fill="none" stroke="url(#SVGID_53_)" stroke-width="6" stroke-miterlimit="10" d="M30.366,481.412
		c0,0-0.873-7.262,4.765-15.545c4.079-5.992,14.799-7.355,14.799-7.355"/>
	
		<linearGradient id="SVGID_54_" gradientUnits="userSpaceOnUse" x1="-258.7329" y1="513.334" x2="-238.5093" y2="513.334" gradientTransform="matrix(1 0 0 -1 294 1005)">
		<stop  offset="0" style="stop-color:#7E5A43"/>
		<stop  offset="0.9852" style="stop-color:#CC9966"/>
	</linearGradient>
	<path fill="none" stroke="url(#SVGID_54_)" stroke-width="6" stroke-miterlimit="10" d="M38.693,505.478
		c0,0-1.93-7.054,2.428-16.076c3.153-6.526,13.558-9.45,13.558-9.45"/>
	
		<linearGradient id="SVGID_55_" gradientUnits="userSpaceOnUse" x1="-252.333" y1="492.7207" x2="-234.1099" y2="492.7207" gradientTransform="matrix(1 0 0 -1 294 1005)">
		<stop  offset="0" style="stop-color:#7E5A43"/>
		<stop  offset="0.9852" style="stop-color:#CC9966"/>
	</linearGradient>
	<path fill="none" stroke="url(#SVGID_55_)" stroke-width="6" stroke-miterlimit="10" d="M45.698,526.686
		c0,0-2.698-6.798,0.636-16.246c2.411-6.836,12.43-10.893,12.43-10.893"/>
	
		<linearGradient id="SVGID_56_" gradientUnits="userSpaceOnUse" x1="-244.8057" y1="473.7158" x2="-226.5825" y2="473.7158" gradientTransform="matrix(1 0 0 -1 294 1005)">
		<stop  offset="0" style="stop-color:#7E5A43"/>
		<stop  offset="0.9852" style="stop-color:#CC9966"/>
	</linearGradient>
	<path fill="none" stroke="url(#SVGID_56_)" stroke-width="6" stroke-miterlimit="10" d="M53.225,545.691
		c0,0-2.698-6.798,0.636-16.247c2.412-6.835,12.43-10.894,12.43-10.894"/>
	
		<linearGradient id="SVGID_57_" gradientUnits="userSpaceOnUse" x1="-234.6338" y1="452.9316" x2="-218.4409" y2="452.9316" gradientTransform="matrix(1 0 0 -1 294 1005)">
		<stop  offset="0" style="stop-color:#7E5A43"/>
		<stop  offset="0.9852" style="stop-color:#CC9966"/>
	</linearGradient>
	<path fill="none" stroke="url(#SVGID_57_)" stroke-width="6" stroke-miterlimit="10" d="M64.401,566.92
		c0,0-3.496-6.424-1.323-16.206c1.572-7.076,11.029-12.308,11.029-12.308"/>
	
		<linearGradient id="SVGID_58_" gradientUnits="userSpaceOnUse" x1="-223.3369" y1="430.79" x2="-208.6445" y2="430.79" gradientTransform="matrix(1 0 0 -1 294 1005)">
		<stop  offset="0" style="stop-color:#7E5A43"/>
		<stop  offset="0.9852" style="stop-color:#CC9966"/>
	</linearGradient>
	<path fill="none" stroke="url(#SVGID_58_)" stroke-width="6" stroke-miterlimit="10" d="M76.79,589.266
		c0,0-4.109-6.049-2.906-15.996c0.87-7.196,9.769-13.331,9.769-13.331"/>
	
		<linearGradient id="SVGID_59_" gradientUnits="userSpaceOnUse" x1="-211.5298" y1="412.043" x2="-196.8374" y2="412.043" gradientTransform="matrix(1 0 0 -1 294 1005)">
		<stop  offset="0" style="stop-color:#7E5A43"/>
		<stop  offset="0.9852" style="stop-color:#CC9966"/>
	</linearGradient>
	<path fill="none" stroke="url(#SVGID_59_)" stroke-width="6" stroke-miterlimit="10" d="M88.597,608.012
		c0,0-4.109-6.048-2.906-15.996c0.871-7.196,9.769-13.33,9.769-13.33"/>
	
		<linearGradient id="SVGID_60_" gradientUnits="userSpaceOnUse" x1="-199.0483" y1="394.9956" x2="-185.1792" y2="394.9956" gradientTransform="matrix(1 0 0 -1 294 1005)">
		<stop  offset="0" style="stop-color:#7E5A43"/>
		<stop  offset="0.9852" style="stop-color:#CC9966"/>
	</linearGradient>
	<path fill="none" stroke="url(#SVGID_60_)" stroke-width="6" stroke-miterlimit="10" d="M101.854,625.114
		c0,0-4.459-5.797-3.844-15.799c0.445-7.234,8.965-13.885,8.965-13.885"/>
	
		<linearGradient id="SVGID_61_" gradientUnits="userSpaceOnUse" x1="-186.2573" y1="377.6758" x2="-173.6724" y2="377.6758" gradientTransform="matrix(1 0 0 -1 294 1005)">
		<stop  offset="0" style="stop-color:#7E5A43"/>
		<stop  offset="0.9852" style="stop-color:#CC9966"/>
	</linearGradient>
	<path fill="none" stroke="url(#SVGID_61_)" stroke-width="6" stroke-miterlimit="10" d="M116.191,642.4
		c0,0-5.028-5.312-5.44-15.322c-0.298-7.243,7.499-14.729,7.499-14.729"/>
	
		<linearGradient id="SVGID_62_" gradientUnits="userSpaceOnUse" x1="-172.9414" y1="362.7227" x2="-161.2544" y2="362.7227" gradientTransform="matrix(1 0 0 -1 294 1005)">
		<stop  offset="0" style="stop-color:#7E5A43"/>
		<stop  offset="0.9852" style="stop-color:#CC9966"/>
	</linearGradient>
	<path fill="none" stroke="url(#SVGID_62_)" stroke-width="6" stroke-miterlimit="10" d="M130.733,657.223
		c0,0-5.422-4.906-6.604-14.856c-0.854-7.197,6.343-15.261,6.343-15.261"/>
	
		<linearGradient id="SVGID_63_" gradientUnits="userSpaceOnUse" x1="-158.1631" y1="347.9033" x2="-146.4766" y2="347.9033" gradientTransform="matrix(1 0 0 -1 294 1005)">
		<stop  offset="0" style="stop-color:#7E5A43"/>
		<stop  offset="0.9852" style="stop-color:#CC9966"/>
	</linearGradient>
	<path fill="none" stroke="url(#SVGID_63_)" stroke-width="6" stroke-miterlimit="10" d="M145.511,672.042
		c0,0-5.422-4.906-6.604-14.857c-0.854-7.197,6.342-15.26,6.342-15.26"/>
	
		<linearGradient id="SVGID_64_" gradientUnits="userSpaceOnUse" x1="-141.6587" y1="333.0215" x2="-129.249" y2="333.0215" gradientTransform="matrix(1 0 0 -1 294 1005)">
		<stop  offset="0" style="stop-color:#7E5A43"/>
		<stop  offset="0.9852" style="stop-color:#CC9966"/>
	</linearGradient>
	<path fill="none" stroke="url(#SVGID_64_)" stroke-width="6" stroke-miterlimit="10" d="M162.857,686.786
		c0,0-5.67-4.616-7.367-14.494c-1.228-7.143,5.539-15.569,5.539-15.569"/>
	
		<linearGradient id="SVGID_65_" gradientUnits="userSpaceOnUse" x1="-122.7026" y1="318.146" x2="-109.3618" y2="318.146" gradientTransform="matrix(1 0 0 -1 294 1005)">
		<stop  offset="0" style="stop-color:#7E5A43"/>
		<stop  offset="0.9852" style="stop-color:#CC9966"/>
	</linearGradient>
	<path fill="none" stroke="url(#SVGID_65_)" stroke-width="6" stroke-miterlimit="10" d="M182.902,701.43
		c0,0-5.963-4.232-8.31-13.976c-1.698-7.047,4.497-15.902,4.497-15.902"/>
	
		<linearGradient id="SVGID_66_" gradientUnits="userSpaceOnUse" x1="-105.8027" y1="305.6885" x2="-91.0723" y2="305.6885" gradientTransform="matrix(1 0 0 -1 294 1005)">
		<stop  offset="0" style="stop-color:#7E5A43"/>
		<stop  offset="0.9852" style="stop-color:#CC9966"/>
	</linearGradient>
	<path fill="none" stroke="url(#SVGID_66_)" stroke-width="6" stroke-miterlimit="10" d="M201.437,713.43
		c0,0-6.346-3.634-9.628-13.101c-2.375-6.852,2.931-16.267,2.931-16.267"/>
	
		<linearGradient id="SVGID_67_" gradientUnits="userSpaceOnUse" x1="-86.2964" y1="294.6514" x2="-71.5654" y2="294.6514" gradientTransform="matrix(1 0 0 -1 294 1005)">
		<stop  offset="0" style="stop-color:#7E5A43"/>
		<stop  offset="0.9852" style="stop-color:#CC9966"/>
	</linearGradient>
	<path fill="none" stroke="url(#SVGID_67_)" stroke-width="6" stroke-miterlimit="10" d="M220.944,724.467
		c0,0-6.346-3.634-9.629-13.101c-2.374-6.85,2.931-16.267,2.931-16.267"/>
	
		<linearGradient id="SVGID_68_" gradientUnits="userSpaceOnUse" x1="-66.9155" y1="284.9932" x2="-52.1841" y2="284.9932" gradientTransform="matrix(1 0 0 -1 294 1005)">
		<stop  offset="0" style="stop-color:#7E5A43"/>
		<stop  offset="0.9852" style="stop-color:#CC9966"/>
	</linearGradient>
	<path fill="none" stroke="url(#SVGID_68_)" stroke-width="6" stroke-miterlimit="10" d="M240.324,734.126
		c0,0-6.345-3.636-9.628-13.102c-2.374-6.851,2.931-16.267,2.931-16.267"/>
	
		<linearGradient id="SVGID_69_" gradientUnits="userSpaceOnUse" x1="-48.4292" y1="276.1958" x2="-32.1602" y2="276.1958" gradientTransform="matrix(1 0 0 -1 294 1005)">
		<stop  offset="0" style="stop-color:#7E5A43"/>
		<stop  offset="0.9852" style="stop-color:#CC9966"/>
	</linearGradient>
	<path fill="none" stroke="url(#SVGID_69_)" stroke-width="6" stroke-miterlimit="10" d="M260.629,742.279
		c0,0-6.69-2.952-10.946-12.022c-3.079-6.562,1.211-16.481,1.211-16.481"/>
	
		<linearGradient id="SVGID_70_" gradientUnits="userSpaceOnUse" x1="-26.9351" y1="267.6782" x2="-9.8281" y2="267.6782" gradientTransform="matrix(1 0 0 -1 294 1005)">
		<stop  offset="0" style="stop-color:#7E5A43"/>
		<stop  offset="0.9852" style="stop-color:#CC9966"/>
	</linearGradient>
	<path fill="none" stroke="url(#SVGID_70_)" stroke-width="6" stroke-miterlimit="10" d="M283.115,750.396
		c0,0-6.844-2.575-11.596-11.396c-3.437-6.381,0.297-16.524,0.297-16.524"/>
	
		<linearGradient id="SVGID_71_" gradientUnits="userSpaceOnUse" x1="-3.8784" y1="260.6543" x2="14.0322" y2="260.6543" gradientTransform="matrix(1 0 0 -1 294 1005)">
		<stop  offset="0" style="stop-color:#7E5A43"/>
		<stop  offset="0.9852" style="stop-color:#CC9966"/>
	</linearGradient>
	<path fill="none" stroke="url(#SVGID_71_)" stroke-width="6" stroke-miterlimit="10" d="M307.123,757.011
		c0,0-6.969-2.216-12.171-10.78c-3.763-6.194-0.558-16.519-0.558-16.519"/>
	
		<linearGradient id="SVGID_72_" gradientUnits="userSpaceOnUse" x1="17.6211" y1="255.7808" x2="36.4614" y2="255.7808" gradientTransform="matrix(1 0 0 -1 294 1005)">
		<stop  offset="0" style="stop-color:#7E5A43"/>
		<stop  offset="0.9852" style="stop-color:#CC9966"/>
	</linearGradient>
	<path fill="none" stroke="url(#SVGID_72_)" stroke-width="6" stroke-miterlimit="10" d="M329.719,761.386
		c0,0-7.084-1.81-12.772-10.059c-4.115-5.969-1.514-16.459-1.514-16.459"/>
	
		<linearGradient id="SVGID_73_" gradientUnits="userSpaceOnUse" x1="42.3008" y1="251.3198" x2="62.3657" y2="251.3198" gradientTransform="matrix(1 0 0 -1 294 1005)">
		<stop  offset="0" style="stop-color:#7E5A43"/>
		<stop  offset="0.9852" style="stop-color:#CC9966"/>
	</linearGradient>
	<path fill="none" stroke="url(#SVGID_73_)" stroke-width="6" stroke-miterlimit="10" d="M355.836,765.165
		c0,0-7.198-1.291-13.468-9.106c-4.536-5.654-2.7-16.307-2.7-16.307"/>
	
		<linearGradient id="SVGID_74_" gradientUnits="userSpaceOnUse" x1="67.7178" y1="248.7842" x2="88.1201" y2="248.7842" gradientTransform="matrix(1 0 0 -1 294 1005)">
		<stop  offset="0" style="stop-color:#7E5A43"/>
		<stop  offset="0.9852" style="stop-color:#CC9966"/>
	</linearGradient>
	<path fill="none" stroke="url(#SVGID_74_)" stroke-width="6" stroke-miterlimit="10" d="M381.646,767.511
		c0,0-7.223-1.155-13.641-8.85c-4.643-5.568-3.01-16.25-3.01-16.25"/>
	
		<linearGradient id="SVGID_75_" gradientUnits="userSpaceOnUse" x1="91.6475" y1="247.8584" x2="114.438" y2="247.8584" gradientTransform="matrix(1 0 0 -1 294 1005)">
		<stop  offset="0" style="stop-color:#7E5A43"/>
		<stop  offset="0.9852" style="stop-color:#CC9966"/>
	</linearGradient>
	<path fill="none" stroke="url(#SVGID_75_)" stroke-width="6" stroke-miterlimit="10" d="M408.343,767.074
		c0,0-7.31-0.232-14.649-7.053c-5.312-4.935-5.044-15.736-5.044-15.736"/>
	
		<linearGradient id="SVGID_76_" gradientUnits="userSpaceOnUse" x1="114.3628" y1="249.4736" x2="139.7563" y2="249.4736" gradientTransform="matrix(1 0 0 -1 294 1005)">
		<stop  offset="0" style="stop-color:#7E5A43"/>
		<stop  offset="0.9852" style="stop-color:#CC9966"/>
	</linearGradient>
	<path fill="none" stroke="url(#SVGID_76_)" stroke-width="6" stroke-miterlimit="10" d="M433.51,764.354
		c0,0-7.288,0.602-15.357-5.341c-5.837-4.298-6.802-15.062-6.802-15.062"/>
	
		<linearGradient id="SVGID_77_" gradientUnits="userSpaceOnUse" x1="141.4585" y1="252.5615" x2="169.2539" y2="252.5615" gradientTransform="matrix(1 0 0 -1 294 1005)">
		<stop  offset="0" style="stop-color:#7E5A43"/>
		<stop  offset="0.9852" style="stop-color:#CC9966"/>
	</linearGradient>
	<path fill="none" stroke="url(#SVGID_77_)" stroke-width="6" stroke-miterlimit="10" d="M462.678,760.059
		c0,0-7.178,1.405-15.854-3.607c-6.276-3.627-8.426-14.218-8.426-14.218"/>
	
		<linearGradient id="SVGID_78_" gradientUnits="userSpaceOnUse" x1="167.73" y1="257.1831" x2="195.5229" y2="257.1831" gradientTransform="matrix(1 0 0 -1 294 1005)">
		<stop  offset="0" style="stop-color:#7E5A43"/>
		<stop  offset="0.9852" style="stop-color:#CC9966"/>
	</linearGradient>
	<path fill="none" stroke="url(#SVGID_78_)" stroke-width="6" stroke-miterlimit="10" d="M488.947,755.438
		c0,0-7.178,1.403-15.854-3.608c-6.275-3.626-8.424-14.218-8.424-14.218"/>
	
		<linearGradient id="SVGID_79_" gradientUnits="userSpaceOnUse" x1="194.2124" y1="262.7773" x2="224.2329" y2="262.7773" gradientTransform="matrix(1 0 0 -1 294 1005)">
		<stop  offset="0" style="stop-color:#7E5A43"/>
		<stop  offset="0.9852" style="stop-color:#CC9966"/>
	</linearGradient>
	<path fill="none" stroke="url(#SVGID_79_)" stroke-width="6" stroke-miterlimit="10" d="M517.307,748.262
		c0,0-6.957,2.258-16.173-1.674c-6.667-2.847-10.074-13.104-10.074-13.104"/>
	
		<linearGradient id="SVGID_80_" gradientUnits="userSpaceOnUse" x1="216.4653" y1="270.2939" x2="247.9771" y2="270.2939" gradientTransform="matrix(1 0 0 -1 294 1005)">
		<stop  offset="0" style="stop-color:#7E5A43"/>
		<stop  offset="0.9852" style="stop-color:#CC9966"/>
	</linearGradient>
	<path fill="none" stroke="url(#SVGID_80_)" stroke-width="6" stroke-miterlimit="10" d="M540.776,739.244
		c0,0-6.701,2.927-16.26-0.082c-6.913-2.177-11.311-12.051-11.311-12.051"/>
	
		<linearGradient id="SVGID_81_" gradientUnits="userSpaceOnUse" x1="238.0835" y1="279.751" x2="269.5957" y2="279.751" gradientTransform="matrix(1 0 0 -1 294 1005)">
		<stop  offset="0" style="stop-color:#7E5A43"/>
		<stop  offset="0.9852" style="stop-color:#CC9966"/>
	</linearGradient>
	<path fill="none" stroke="url(#SVGID_81_)" stroke-width="6" stroke-miterlimit="10" d="M562.395,729.786
		c0,0-6.7,2.928-16.26-0.082c-6.914-2.177-11.311-12.049-11.311-12.049"/>
	
		<linearGradient id="SVGID_82_" gradientUnits="userSpaceOnUse" x1="256.3022" y1="289.6885" x2="288.5625" y2="289.6885" gradientTransform="matrix(1 0 0 -1 294 1005)">
		<stop  offset="0" style="stop-color:#7E5A43"/>
		<stop  offset="0.9852" style="stop-color:#CC9966"/>
	</linearGradient>
	<path fill="none" stroke="url(#SVGID_82_)" stroke-width="6" stroke-miterlimit="10" d="M581.202,718.858
		c0,0-6.518,3.316-16.236,0.876c-7.028-1.767-12-11.362-12-11.362"/>
	
		<linearGradient id="SVGID_83_" gradientUnits="userSpaceOnUse" x1="277.1489" y1="299.9399" x2="310.4463" y2="299.9399" gradientTransform="matrix(1 0 0 -1 294 1005)">
		<stop  offset="0" style="stop-color:#7E5A43"/>
		<stop  offset="0.9852" style="stop-color:#CC9966"/>
	</linearGradient>
	<path fill="none" stroke="url(#SVGID_83_)" stroke-width="6" stroke-miterlimit="10" d="M602.819,706.731
		c0,0-6.145,3.967-16.062,2.532c-7.173-1.038-13.101-10.074-13.101-10.074"/>
	
		<linearGradient id="SVGID_84_" gradientUnits="userSpaceOnUse" x1="295.7915" y1="312.2285" x2="329.6367" y2="312.2285" gradientTransform="matrix(1 0 0 -1 294 1005)">
		<stop  offset="0" style="stop-color:#7E5A43"/>
		<stop  offset="0.9852" style="stop-color:#CC9966"/>
	</linearGradient>
	<path fill="none" stroke="url(#SVGID_84_)" stroke-width="6" stroke-miterlimit="10" d="M621.82,692.912
		c0,0-5.818,4.427-15.816,3.761c-7.231-0.481-13.838-9.037-13.838-9.037"/>
	
		<linearGradient id="SVGID_85_" gradientUnits="userSpaceOnUse" x1="316.6162" y1="326.7847" x2="350.4609" y2="326.7847" gradientTransform="matrix(1 0 0 -1 294 1005)">
		<stop  offset="0" style="stop-color:#7E5A43"/>
		<stop  offset="0.9852" style="stop-color:#CC9966"/>
	</linearGradient>
	<path fill="none" stroke="url(#SVGID_85_)" stroke-width="6" stroke-miterlimit="10" d="M642.644,678.354
		c0,0-5.818,4.43-15.817,3.763c-7.231-0.481-13.835-9.037-13.835-9.037"/>
	
		<linearGradient id="SVGID_86_" gradientUnits="userSpaceOnUse" x1="331.3008" y1="339.1758" x2="365.4038" y2="339.1758" gradientTransform="matrix(1 0 0 -1 294 1005)">
		<stop  offset="0" style="stop-color:#7E5A43"/>
		<stop  offset="0.9852" style="stop-color:#CC9966"/>
	</linearGradient>
	<path fill="none" stroke="url(#SVGID_86_)" stroke-width="6" stroke-miterlimit="10" d="M657.466,664.873
		c0,0-5.582,4.725-15.602,4.58c-7.247-0.106-14.287-8.307-14.287-8.307"/>
	
		<linearGradient id="SVGID_87_" gradientUnits="userSpaceOnUse" x1="346.0283" y1="352.7734" x2="380.3267" y2="352.7734" gradientTransform="matrix(1 0 0 -1 294 1005)">
		<stop  offset="0" style="stop-color:#7E5A43"/>
		<stop  offset="0.9852" style="stop-color:#CC9966"/>
	</linearGradient>
	<path fill="none" stroke="url(#SVGID_87_)" stroke-width="6" stroke-miterlimit="10" d="M672.241,649.839
		c0,0-5.257,5.083-15.266,5.603c-7.237,0.374-14.806-7.343-14.806-7.343"/>
	
		<linearGradient id="SVGID_88_" gradientUnits="userSpaceOnUse" x1="362.7339" y1="369.6338" x2="397.0425" y2="369.6338" gradientTransform="matrix(1 0 0 -1 294 1005)">
		<stop  offset="0" style="stop-color:#7E5A43"/>
		<stop  offset="0.9852" style="stop-color:#CC9966"/>
	</linearGradient>
	<path fill="none" stroke="url(#SVGID_88_)" stroke-width="6" stroke-miterlimit="10" d="M688.757,631.252
		c0,0-4.735,5.571-14.646,7.058c-7.169,1.077-15.45-5.866-15.45-5.866"/>
	
		<linearGradient id="SVGID_89_" gradientUnits="userSpaceOnUse" x1="375.1997" y1="384.4814" x2="409.5078" y2="384.4814" gradientTransform="matrix(1 0 0 -1 294 1005)">
		<stop  offset="0" style="stop-color:#7E5A43"/>
		<stop  offset="0.9852" style="stop-color:#CC9966"/>
	</linearGradient>
	<path fill="none" stroke="url(#SVGID_89_)" stroke-width="6" stroke-miterlimit="10" d="M701.223,616.405
		c0,0-4.736,5.568-14.646,7.058c-7.169,1.076-15.45-5.867-15.45-5.867"/>
	
		<linearGradient id="SVGID_90_" gradientUnits="userSpaceOnUse" x1="388.0127" y1="404.4922" x2="422.3223" y2="404.4922" gradientTransform="matrix(1 0 0 -1 294 1005)">
		<stop  offset="0" style="stop-color:#7E5A43"/>
		<stop  offset="0.9852" style="stop-color:#CC9966"/>
	</linearGradient>
	<path fill="none" stroke="url(#SVGID_90_)" stroke-width="6" stroke-miterlimit="10" d="M714.037,596.394
		c0,0-4.738,5.57-14.646,7.059c-7.169,1.077-15.45-5.867-15.45-5.867"/>
	
		<linearGradient id="SVGID_91_" gradientUnits="userSpaceOnUse" x1="401.5947" y1="425.2793" x2="435.5547" y2="425.2793" gradientTransform="matrix(1 0 0 -1 294 1005)">
		<stop  offset="0" style="stop-color:#7E5A43"/>
		<stop  offset="0.9852" style="stop-color:#CC9966"/>
	</linearGradient>
	<path fill="none" stroke="url(#SVGID_91_)" stroke-width="6" stroke-miterlimit="10" d="M727.079,574.621
		c0,0-4.129,6.035-13.828,8.552c-7.017,1.821-15.979-4.218-15.979-4.218"/>
	
		<linearGradient id="SVGID_92_" gradientUnits="userSpaceOnUse" x1="413.3115" y1="444.1836" x2="446.9346" y2="444.1836" gradientTransform="matrix(1 0 0 -1 294 1005)">
		<stop  offset="0" style="stop-color:#7E5A43"/>
		<stop  offset="0.9852" style="stop-color:#CC9966"/>
	</linearGradient>
	<path fill="none" stroke="url(#SVGID_92_)" stroke-width="6" stroke-miterlimit="10" d="M738.368,555.181
		c0,0-3.788,6.255-13.333,9.307c-6.904,2.206-16.188-3.327-16.188-3.327"/>
	
		<linearGradient id="SVGID_93_" gradientUnits="userSpaceOnUse" x1="422.8604" y1="468.043" x2="456.0752" y2="468.043" gradientTransform="matrix(1 0 0 -1 294 1005)">
		<stop  offset="0" style="stop-color:#7E5A43"/>
		<stop  offset="0.9852" style="stop-color:#CC9966"/>
	</linearGradient>
	<path fill="none" stroke="url(#SVGID_93_)" stroke-width="6" stroke-miterlimit="10" d="M747.432,530.812
		c0,0-3.458,6.44-12.832,9.982c-6.78,2.561-16.339-2.485-16.339-2.485"/>
	
		<linearGradient id="SVGID_94_" gradientUnits="userSpaceOnUse" x1="431.334" y1="490.9824" x2="463.9883" y2="490.9824" gradientTransform="matrix(1 0 0 -1 294 1005)">
		<stop  offset="0" style="stop-color:#7E5A43"/>
		<stop  offset="0.9852" style="stop-color:#CC9966"/>
	</linearGradient>
	<path fill="none" stroke="url(#SVGID_94_)" stroke-width="6" stroke-miterlimit="10" d="M755.268,507.293
		c0,0-3.08,6.633-12.233,10.709c-6.621,2.948-16.456-1.535-16.456-1.535"/>
	
		<linearGradient id="SVGID_95_" gradientUnits="userSpaceOnUse" x1="438.5732" y1="511.9766" x2="470.375" y2="511.9766" gradientTransform="matrix(1 0 0 -1 294 1005)">
		<stop  offset="0" style="stop-color:#7E5A43"/>
		<stop  offset="0.9852" style="stop-color:#CC9966"/>
	</linearGradient>
	<path fill="none" stroke="url(#SVGID_95_)" stroke-width="6" stroke-miterlimit="10" d="M761.57,485.553
		c0,0-2.594,6.84-11.428,11.566c-6.395,3.422-16.524-0.341-16.524-0.341"/>
	
		<linearGradient id="SVGID_96_" gradientUnits="userSpaceOnUse" x1="445.2793" y1="537.0518" x2="476.8262" y2="537.0518" gradientTransform="matrix(1 0 0 -1 294 1005)">
		<stop  offset="0" style="stop-color:#7E5A43"/>
		<stop  offset="0.9852" style="stop-color:#CC9966"/>
	</linearGradient>
	<path fill="none" stroke="url(#SVGID_96_)" stroke-width="6" stroke-miterlimit="10" d="M768.001,460.278
		c0,0-2.461,6.887-11.204,11.782c-6.325,3.541-16.527-0.025-16.527-0.025"/>
	
		<linearGradient id="SVGID_97_" gradientUnits="userSpaceOnUse" x1="451.4473" y1="563.4062" x2="481.0205" y2="563.4062" gradientTransform="matrix(1 0 0 -1 294 1005)">
		<stop  offset="0" style="stop-color:#7E5A43"/>
		<stop  offset="0.9852" style="stop-color:#CC9966"/>
	</linearGradient>
	<path fill="none" stroke="url(#SVGID_97_)" stroke-width="6" stroke-miterlimit="10" d="M772.091,432.536
		c0,0-1.569,7.144-9.622,13.105c-5.824,4.314-16.397,2.067-16.397,2.067"/>
	
		<linearGradient id="SVGID_98_" gradientUnits="userSpaceOnUse" x1="451.8203" y1="586.166" x2="481.7461" y2="586.166" gradientTransform="matrix(1 0 0 -1 294 1005)">
		<stop  offset="0" style="stop-color:#7E5A43"/>
		<stop  offset="0.9852" style="stop-color:#CC9966"/>
	</linearGradient>
	<path fill="none" stroke="url(#SVGID_98_)" stroke-width="6" stroke-miterlimit="10" d="M772.83,410.008
		c0,0-1.716,7.109-9.891,12.906c-5.912,4.194-16.436,1.73-16.436,1.73"/>
</g>
<g id="Circle">
	
		<linearGradient id="SVGID_99_" gradientUnits="userSpaceOnUse" x1="-235.6519" y1="608.8086" x2="440.3721" y2="608.8086" gradientTransform="matrix(1 0 0 -1 294 1005)">
		<stop  offset="0.0554" style="stop-color:#7E5A43"/>
		<stop  offset="0.523" style="stop-color:#CC9966"/>
		<stop  offset="1" style="stop-color:#7E5A43"/>
	</linearGradient>
	
		<ellipse fill="none" stroke="url(#SVGID_99_)" stroke-width="23" stroke-miterlimit="10" cx="396.36" cy="396.192" rx="326.512" ry="317.108"/>
	
		<linearGradient id="SVGID_100_" gradientUnits="userSpaceOnUse" x1="-243.478" y1="609.3242" x2="448.1982" y2="609.3242" gradientTransform="matrix(1 0 0 -1 294 1005)">
		<stop  offset="0.0554" style="stop-color:#7E5A43"/>
		<stop  offset="0.523" style="stop-color:#CC9966"/>
		<stop  offset="1" style="stop-color:#7E5A43"/>
	</linearGradient>
	
		<ellipse fill="none" stroke="url(#SVGID_100_)" stroke-width="6" stroke-miterlimit="10" cx="396.36" cy="395.676" rx="342.838" ry="333.913"/>
	
		<linearGradient id="SVGID_101_" gradientUnits="userSpaceOnUse" x1="-262.019" y1="609.3262" x2="466.7373" y2="609.3262" gradientTransform="matrix(1 0 0 -1 294 1005)">
		<stop  offset="0.0554" style="stop-color:#7E5A43"/>
		<stop  offset="0.523" style="stop-color:#CC9966"/>
		<stop  offset="1" style="stop-color:#7E5A43"/>
	</linearGradient>
	
		<ellipse display="none" fill="none" stroke="url(#SVGID_101_)" stroke-width="6" stroke-miterlimit="10" cx="396.359" cy="395.674" rx="361.378" ry="357.728"/>
</g>
</svg>
