<?xml version="1.0" encoding="utf-8"?>
<!-- Generator: Adobe Illustrator 16.0.0, SVG Export Plug-In . SVG Version: 6.00 Build 0)  -->
<!DOCTYPE svg PUBLIC "-//W3C//DTD SVG 1.1//EN" "http://www.w3.org/Graphics/SVG/1.1/DTD/svg11.dtd">
<svg version="1.1" id="Layer_1" xmlns="http://www.w3.org/2000/svg" xmlns:xlink="http://www.w3.org/1999/xlink" x="0px" y="0px"
	 width="80px" height="25px" viewBox="0 0 80 25" enable-background="new 0 0 80 25" xml:space="preserve">
<linearGradient id="SVGID_1_" gradientUnits="userSpaceOnUse" x1="0.3936" y1="12.3848" x2="79.6094" y2="12.3848">
	<stop  offset="0.0545" style="stop-color:#7E5A43"/>
	<stop  offset="0.523" style="stop-color:#CC9966"/>
	<stop  offset="0.9415" style="stop-color:#7E5A43"/>
</linearGradient>
<path fill="url(#SVGID_1_)" d="M39.945,2.817c0,0-4.569-5.552-12.678-0.884c-2.703,1.556-4.779,5.249-8.571,9.326
	C6.895,23.95,1.72,12.171,3.472,7.951c-0.098,1.8,1.944,3.707,3.644,3.722c2.326,0.021,5.311-0.675,5.118-5.091
	C12.152,4.7,10.29,2.391,7.305,2.361C4.43,2.333,1.5,4.386,0.651,8.493c-2.218,14.288,10.438,16.539,17.853,16.286
	c6.682-0.229,17.701-5.962,21.425-11.41c4.888,5.961,15.926,10.954,19.647,11.152c5.203,0.275,23.059,0.264,19.59-17.03
	c-0.56-2.792-3.818-5.159-6.255-5.159c-3.275,0-4.846,2.11-4.929,4.648c-0.095,2.913,1.927,4.698,4.354,4.734
	c1.917,0.029,3.386-0.656,4.38-3.764c2.081,6.93-6.064,14.536-14.758,4.032C54.538,3.017,49.307-4.255,39.945,2.817z"/>
</svg>
