<svg enable-background="new 0 0 50 16" height="16" viewBox="0 0 50 16" width="50" xmlns="http://www.w3.org/2000/svg"><path d="m24.968 2.388s-2.788-3.252-7.738-.518c-1.65.912-2.918 3.074-5.23 5.462-7.204 7.433-10.363.535-9.293-1.937-.06 1.054 1.187 2.171 2.225 2.18 1.42.012 3.242-.395 3.123-2.981-.05-1.104-1.186-2.456-3.008-2.473-1.755-.017-3.544 1.186-4.062 3.591-1.354 8.369 6.371 9.688 10.896 9.539 4.078-.134 10.804-3.492 13.077-6.683 2.984 3.491 9.721 6.416 11.991 6.532 3.176.161 14.075.155 11.956-9.975-.341-1.635-2.328-3.022-3.815-3.022-1.999 0-2.959 1.236-3.009 2.723-.059 1.706 1.176 2.751 2.656 2.773 1.17.017 2.067-.385 2.675-2.205 1.271 4.059-3.702 8.514-9.008 2.362-4.53-5.251-7.72-9.511-13.436-5.368z" fill="none" stroke="#fff" stroke-miterlimit="10"/></svg>