<?xml version="1.0" encoding="utf-8"?>
<!-- Generator: Adobe Illustrator 16.0.0, SVG Export Plug-In . SVG Version: 6.00 Build 0)  -->
<!DOCTYPE svg PUBLIC "-//W3C//DTD SVG 1.1//EN" "http://www.w3.org/Graphics/SVG/1.1/DTD/svg11.dtd">
<svg version="1.1" xmlns="http://www.w3.org/2000/svg" xmlns:xlink="http://www.w3.org/1999/xlink" x="0px" y="0px" width="50px"
	 height="16px" viewBox="0 0 50 16" enable-background="new 0 0 50 16" xml:space="preserve">
<g id="Layer_2" display="none">
	<rect display="inline" width="50" height="16"/>
</g>
<g id="Layer_1">
	<path fill="none" stroke="#FFFFFF" stroke-miterlimit="10" d="M24.968,2.388c0,0-2.788-3.252-7.738-0.518
		C15.58,2.782,14.312,4.944,12,7.332C4.796,14.765,1.637,7.867,2.707,5.395c-0.06,1.054,1.187,2.171,2.225,2.18
		c1.42,0.012,3.242-0.395,3.123-2.981C8.005,3.49,6.869,2.138,5.047,2.121C3.292,2.104,1.503,3.307,0.985,5.712
		c-1.354,8.369,6.371,9.688,10.896,9.539c4.078-0.134,10.804-3.492,13.077-6.683c2.984,3.491,9.721,6.416,11.991,6.532
		c3.176,0.161,14.075,0.155,11.956-9.975c-0.341-1.635-2.328-3.022-3.815-3.022c-1.999,0-2.959,1.236-3.009,2.723
		c-0.059,1.706,1.176,2.751,2.656,2.773c1.17,0.017,2.067-0.385,2.675-2.205c1.271,4.059-3.702,8.514-9.008,2.362
		C33.874,2.505,30.684-1.755,24.968,2.388z"/>
</g>
</svg>
