<svg enable-background="new 0 0 80 25" height="25" viewBox="0 0 80 25" width="80" xmlns="http://www.w3.org/2000/svg" xmlns:xlink="http://www.w3.org/1999/xlink"><linearGradient id="a" gradientUnits="userSpaceOnUse" x1=".3936" x2="79.6094" y1="12.3848" y2="12.3848"><stop offset=".0545" stop-color="#7e5a43"/><stop offset=".523" stop-color="#c96"/><stop offset=".9415" stop-color="#7e5a43"/></linearGradient><path d="m39.945 2.817s-4.569-5.552-12.678-.884c-2.703 1.556-4.779 5.249-8.571 9.326-11.801 12.691-16.976.912-15.224-3.308-.098 1.8 1.944 3.707 3.644 3.722 2.326.021 5.311-.675 5.118-5.091-.082-1.882-1.944-4.191-4.929-4.221-2.875-.028-5.805 2.025-6.654 6.132-2.218 14.288 10.438 16.539 17.853 16.286 6.682-.229 17.701-5.962 21.425-11.41 4.888 5.961 15.926 10.954 19.647 11.152 5.203.275 23.059.264 19.59-17.03-.56-2.792-3.818-5.159-6.255-5.159-3.275 0-4.846 2.11-4.929 4.648-.095 2.913 1.927 4.698 4.354 4.734 1.917.029 3.386-.656 4.38-3.764 2.081 6.93-6.064 14.536-14.758 4.032-7.42-8.965-12.651-16.237-22.013-9.165z" fill="url(#a)"/></svg>