<svg enable-background="new 0 0 250 137" height="137" viewBox="0 0 250 137" width="250" xml:space="preserve" xmlns="http://www.w3.org/2000/svg" xmlns:xlink="http://www.w3.org/1999/xlink"><linearGradient id="a" gradientUnits="userSpaceOnUse" x1="39.1045" x2="73.5762" y1="99.6318" y2="99.6318"><stop offset=".0545" stop-color="#7e5b44"/><stop offset=".523" stop-color="#c96"/><stop offset=".9415" stop-color="#7e5b44"/></linearGradient><text fill="#fff" font-family="'Modern-Regular'" font-size="73.9522" transform="matrix(.5932 0 0 1 71.2012 53.918)">THE </text><path d="m73.267 126.253c-1.32-3.148-17.635-45.855-17.635-45.855s-1.197-3.013-2.17-3.892c.313-1.219.619-2.48.699-3.502.095-1.217.056-3.301-2.678-4.417-2.736-1.117-4.053 1.261-4.717 2.032-.726-.611-1.54-3.724-1.54-3.724s-.629-1.354-1.383-1.048c-.756.304-.662 1.014-.567 1.726.094.709 2.736 5.922 2.736 5.922s-6.005 24.297-6.287 32.69c-.267 7.861-1.039 17.868-.327 21.841.697 3.881 3.723 5.438 5.576 5.437 2.549-.008 6.367-2.554 6.038-6.802-.35-4.466-1.481-10.863-1.133-20.915.132-3.861 1.138-14.944 1.602-17.633.943 1.929 3.238 6.091 3.238 6.091s-2.388 2.608-1.445 5.145c.942 2.54 11.479 29.999 11.479 29.999s2.887 5.907 7.007 2.795c2.171-1.641 1.991-4.737 1.507-5.89zm-28.23 1.794c-1.127 0-2.044-.985-2.044-2.201 0-1.217.917-2.2 2.044-2.2 1.13 0 2.045.983 2.045 2.2 0 1.216-.915 2.201-2.045 2.201zm4.527-51.203c-.591 0-1.069-.514-1.069-1.149 0-.637.478-1.151 1.069-1.151.589 0 1.07.515 1.07 1.151 0 .635-.48 1.149-1.07 1.149zm2.358 7.683c-.22-.575.944-5.28.944-5.28h.127l5.406 13.909-1.855.168zm18.673 45.62c-2.072 1.728-3.504-.511-3.89-1.416-3.234-7.534-10.948-28.401-11.558-30.23-.613-1.827 1.332-2.975 1.332-2.975 2.673-.814 3.112.945 3.112.945s10.848 27.581 11.475 29.374c.634 1.797 1.069 3.016-.471 4.302z" fill="url(#a)"/><g fill="#fff" font-family="'Modern-Regular'" font-size="73.95"><text transform="matrix(.6688 0 0 1 1.333 122.4863)">B</text><text transform="matrix(.581 0 0 1 77.1787 122.4863)">RBEROS</text></g></svg>