<svg enable-background="new 0 0 500 142" height="142" viewBox="0 0 500 142" width="500" xml:space="preserve" xmlns="http://www.w3.org/2000/svg" xmlns:xlink="http://www.w3.org/1999/xlink"><linearGradient id="a" gradientUnits="userSpaceOnUse" x1="200.5791" x2="249.1587" y1="70.4468" y2="70.4468"><stop offset=".0545" stop-color="#7e5b44"/><stop offset=".523" stop-color="#c96"/><stop offset=".9415" stop-color="#7e5b44"/></linearGradient><text fill="#fff" font-family="'Modern-Regular'" font-size="142.3874" transform="matrix(.4314 0 0 1 5.0176 122.7148)">THE B    </text><path d="m248.723 120.24c-1.86-5.888-24.852-85.767-24.852-85.767s-1.686-5.634-3.059-7.28c.443-2.279.873-4.642.985-6.553.135-2.274.079-6.172-3.775-8.259-3.857-2.091-5.71 2.358-6.646 3.799-1.023-1.142-2.17-6.965-2.17-6.965s-.886-2.531-1.949-1.96c-1.065.568-.932 1.897-.799 3.229.132 1.326 3.855 11.077 3.855 11.077s-8.464 45.444-8.86 61.141c-.375 14.706-1.463 33.422-.459 40.851.979 7.259 5.244 10.173 7.856 10.169 3.592-.013 8.973-4.774 8.508-12.721-.493-8.35-2.087-20.32-1.595-39.12.186-7.22 1.604-27.95 2.257-32.978 1.33 3.607 4.564 11.394 4.564 11.394s-3.366 4.875-2.038 9.622c1.33 4.749 16.177 56.107 16.177 56.107s4.07 11.05 9.875 5.227c3.06-3.068 2.808-8.857 2.125-11.013zm-39.785 3.355c-1.588 0-2.88-1.841-2.88-4.115 0-2.275 1.292-4.117 2.88-4.117 1.592 0 2.883 1.842 2.883 4.117 0 2.274-1.291 4.115-2.883 4.115zm6.381-95.769c-.832 0-1.506-.963-1.506-2.15 0-1.19.674-2.154 1.506-2.154.831 0 1.507.964 1.507 2.154 0 1.187-.676 2.15-1.507 2.15zm3.324 14.37c-.31-1.075 1.33-9.874 1.33-9.874h.179l7.62 26.014-2.615.316zm26.314 85.326c-2.918 3.231-4.937-.956-5.482-2.647-4.557-14.091-15.427-53.12-16.287-56.54-.864-3.417 1.876-5.568 1.876-5.568 3.768-1.522 4.388 1.771 4.388 1.771s15.288 51.586 16.171 54.941c.89 3.356 1.504 5.638-.666 8.043z" fill="url(#a)"/><text fill="#fff" font-family="'Modern-Regular'" font-size="142.39" transform="matrix(.4337 0 0 1 251.334 122.7148)">RBEROS</text></svg>