<?xml version="1.0" encoding="utf-8"?>
<!-- Generator: Adobe Illustrator 16.0.0, SVG Export Plug-In . SVG Version: 6.00 Build 0)  -->
<!DOCTYPE svg PUBLIC "-//W3C//DTD SVG 1.1//EN" "http://www.w3.org/Graphics/SVG/1.1/DTD/svg11.dtd">
<svg version="1.1" xmlns="http://www.w3.org/2000/svg" xmlns:xlink="http://www.w3.org/1999/xlink" x="0px" y="0px" width="500px"
	 height="142px" viewBox="0 0 500 142" enable-background="new 0 0 500 142" xml:space="preserve">
<g id="Layer_2" display="none">
	<rect display="inline" fill="#020202" width="500" height="142"/>
	<g display="inline">
		<g>
			<path fill="#020202" d="M471.191,27.088c3.225,0,3.225-5,0-5S467.967,27.088,471.191,27.088L471.191,27.088z"/>
		</g>
	</g>
</g>
<g id="Layer_1">
	<text transform="matrix(0.4314 0 0 1 5.0176 122.7148)" fill="#FFFFFF" font-family="'Modern-Regular'" font-size="142.3874">THE B    </text>
	<linearGradient id="SVGID_1_" gradientUnits="userSpaceOnUse" x1="200.5791" y1="70.4468" x2="249.1587" y2="70.4468">
		<stop  offset="0.0545" style="stop-color:#7E5B44"/>
		<stop  offset="0.523" style="stop-color:#CC9966"/>
		<stop  offset="0.9415" style="stop-color:#7E5B44"/>
	</linearGradient>
	<path fill="url(#SVGID_1_)" d="M248.723,120.24c-1.86-5.888-24.852-85.767-24.852-85.767s-1.686-5.634-3.059-7.28
		c0.443-2.279,0.873-4.642,0.985-6.553c0.135-2.274,0.079-6.172-3.775-8.259c-3.857-2.091-5.71,2.358-6.646,3.799
		c-1.023-1.142-2.17-6.965-2.17-6.965s-0.886-2.531-1.949-1.96c-1.065,0.568-0.932,1.897-0.799,3.229
		c0.132,1.326,3.855,11.077,3.855,11.077s-8.464,45.444-8.86,61.141c-0.375,14.706-1.463,33.422-0.459,40.851
		c0.979,7.259,5.244,10.173,7.856,10.169c3.592-0.013,8.973-4.774,8.508-12.721c-0.493-8.35-2.087-20.32-1.595-39.12
		c0.186-7.22,1.604-27.95,2.257-32.978c1.33,3.607,4.564,11.394,4.564,11.394s-3.366,4.875-2.038,9.622
		c1.33,4.749,16.177,56.107,16.177,56.107s4.07,11.05,9.875,5.227C249.658,128.185,249.406,122.396,248.723,120.24z
		 M208.938,123.595c-1.588,0-2.88-1.841-2.88-4.115c0-2.275,1.292-4.117,2.88-4.117c1.592,0,2.883,1.842,2.883,4.117
		C211.821,121.754,210.53,123.595,208.938,123.595z M215.319,27.826c-0.832,0-1.506-0.963-1.506-2.15
		c0-1.19,0.674-2.154,1.506-2.154c0.831,0,1.507,0.964,1.507,2.154C216.826,26.863,216.15,27.826,215.319,27.826z M218.643,42.196
		c-0.31-1.075,1.33-9.874,1.33-9.874h0.179l7.62,26.014l-2.615,0.316L218.643,42.196z M244.957,127.522
		c-2.918,3.231-4.937-0.956-5.482-2.647c-4.557-14.091-15.427-53.12-16.287-56.54c-0.864-3.417,1.876-5.568,1.876-5.568
		c3.768-1.522,4.388,1.771,4.388,1.771s15.288,51.586,16.171,54.941C246.513,122.835,247.127,125.117,244.957,127.522z"/>
	<text transform="matrix(0.4337 0 0 1 251.334 122.7148)" fill="#FFFFFF" font-family="'Modern-Regular'" font-size="142.39">RBEROS</text>
</g>
</svg>
