<?xml version="1.0" encoding="utf-8"?>
<!-- Generator: Adobe Illustrator 16.0.0, SVG Export Plug-In . SVG Version: 6.00 Build 0)  -->
<!DOCTYPE svg PUBLIC "-//W3C//DTD SVG 1.1//EN" "http://www.w3.org/Graphics/SVG/1.1/DTD/svg11.dtd">
<svg version="1.1" xmlns="http://www.w3.org/2000/svg" xmlns:xlink="http://www.w3.org/1999/xlink" x="0px" y="0px" width="250px"
	 height="137px" viewBox="0 0 250 137" enable-background="new 0 0 250 137" xml:space="preserve">
<g id="Layer_2" display="none">
	<rect display="inline" width="250" height="137"/>
</g>
<g id="Layer_1">
	<text transform="matrix(0.5932 0 0 1 71.2012 53.918)" fill="#FFFFFF" font-family="'Modern-Regular'" font-size="73.9522">THE </text>
	<linearGradient id="SVGID_1_" gradientUnits="userSpaceOnUse" x1="39.1045" y1="99.6318" x2="73.5762" y2="99.6318">
		<stop  offset="0.0545" style="stop-color:#7E5B44"/>
		<stop  offset="0.523" style="stop-color:#CC9966"/>
		<stop  offset="0.9415" style="stop-color:#7E5B44"/>
	</linearGradient>
	<path fill="url(#SVGID_1_)" d="M73.267,126.253c-1.32-3.148-17.635-45.855-17.635-45.855s-1.197-3.013-2.17-3.892
		c0.313-1.219,0.619-2.48,0.699-3.502c0.095-1.217,0.056-3.301-2.678-4.417c-2.736-1.117-4.053,1.261-4.717,2.032
		c-0.726-0.611-1.54-3.724-1.54-3.724s-0.629-1.354-1.383-1.048c-0.756,0.304-0.662,1.014-0.567,1.726
		c0.094,0.709,2.736,5.922,2.736,5.922s-6.005,24.297-6.287,32.69c-0.267,7.861-1.039,17.868-0.327,21.841
		c0.697,3.881,3.723,5.438,5.576,5.437c2.549-0.008,6.367-2.554,6.038-6.802c-0.35-4.466-1.481-10.863-1.133-20.915
		c0.132-3.861,1.138-14.944,1.602-17.633c0.943,1.929,3.238,6.091,3.238,6.091s-2.388,2.608-1.445,5.145
		c0.942,2.54,11.479,29.999,11.479,29.999s2.887,5.907,7.007,2.795C73.931,130.502,73.751,127.406,73.267,126.253z M45.037,128.047
		c-1.127,0-2.044-0.985-2.044-2.201c0-1.217,0.917-2.2,2.044-2.2c1.13,0,2.045,0.983,2.045,2.2
		C47.082,127.062,46.167,128.047,45.037,128.047z M49.564,76.844c-0.591,0-1.069-0.514-1.069-1.149c0-0.637,0.478-1.151,1.069-1.151
		c0.589,0,1.07,0.515,1.07,1.151C50.634,76.33,50.154,76.844,49.564,76.844z M51.922,84.527c-0.22-0.575,0.944-5.28,0.944-5.28
		h0.127l5.406,13.909l-1.855,0.168L51.922,84.527z M70.595,130.147c-2.072,1.728-3.504-0.511-3.89-1.416
		c-3.234-7.534-10.948-28.401-11.558-30.23c-0.613-1.827,1.332-2.975,1.332-2.975c2.673-0.814,3.112,0.945,3.112,0.945
		s10.848,27.581,11.475,29.374C71.7,127.642,72.135,128.861,70.595,130.147z"/>
	<text transform="matrix(0.6688 0 0 1 1.333 122.4863)" fill="#FFFFFF" font-family="'Modern-Regular'" font-size="73.95">B</text>
	<text transform="matrix(0.581 0 0 1 77.1787 122.4863)" fill="#FFFFFF" font-family="'Modern-Regular'" font-size="73.95">RBEROS</text>
</g>
</svg>
