<svg enable-background="new 0 0 50 50" height="50" viewBox="0 0 50 50" width="50" xmlns="http://www.w3.org/2000/svg" xmlns:xlink="http://www.w3.org/1999/xlink"><linearGradient id="a"><stop offset=".0545" stop-color="#7e5a43"/><stop offset=".523" stop-color="#c96"/><stop offset=".9415" stop-color="#7e5a43"/></linearGradient><linearGradient id="b" gradientUnits="userSpaceOnUse" x1=".2158" x2="49.7832" xlink:href="#a" y1="24.873" y2="24.873"/><linearGradient id="c" gradientUnits="userSpaceOnUse" x1="8.2188" x2="14.8857" xlink:href="#a" y1="28.0898" y2="28.0898"/><linearGradient id="d" gradientUnits="userSpaceOnUse" x1="16.3613" x2="19.7461" xlink:href="#a" y1="25.834" y2="25.834"/><linearGradient id="e" gradientUnits="userSpaceOnUse" x1="14.709" x2="20.8564" xlink:href="#a" y1="27.1699" y2="27.1699"/><linearGradient id="f" gradientUnits="userSpaceOnUse" x1="21.4746" x2="24.0498" xlink:href="#a" y1="26.1309" y2="26.1309"/><linearGradient id="g" gradientUnits="userSpaceOnUse" x1="24.7988" x2="31.1885" xlink:href="#a" y1="28.1523" y2="28.1523"/><linearGradient id="h" gradientUnits="userSpaceOnUse" x1="26.6455" x2="29.8867" xlink:href="#a" y1="27.0605" y2="27.0605"/><linearGradient id="i" gradientUnits="userSpaceOnUse" x1="31.5537" x2="36.4053" xlink:href="#a" y1="24.9805" y2="24.9805"/><linearGradient id="j" gradientUnits="userSpaceOnUse" x1="33.5547" x2="37.5264" xlink:href="#a" y1="28.3389" y2="28.3389"/><linearGradient id="k" gradientUnits="userSpaceOnUse" x1="36.1553" x2="42.4805" xlink:href="#a" y1="26.5977" y2="26.5977"/><linearGradient id="l" gradientUnits="userSpaceOnUse" x1="37.3701" x2="42.4395" xlink:href="#a" y1="22.8926" y2="22.8926"/><linearGradient id="m" gradientUnits="userSpaceOnUse" x1="32.499" x2="37.5273" xlink:href="#a" y1="20.4609" y2="20.4609"/><g fill="none" stroke-miterlimit="10"><ellipse cx="25" cy="24.872" rx="22.784" ry="22.866" stroke="url(#b)" stroke-width="4"/><path d="m10.032 24.326 1.831 3.429 1.044-3.344c.15-.384.472-.581.961-.445.553.153.561.406.482.827l-1.948 6.276s-.539 1.252-1.652 1.185c-1.113-.066-1.247-.405-1.213-1.014.032-.61.606-.372 1.247-.51.641-.133.438-.471.168-1.048-.27-.574-2.158-4.617-2.158-4.617-.07-.281-.219-.843.287-1.066s.771.085.951.327z" stroke="url(#c)"/><path d="m16.771 26.57h2.595s-.018-1.472-1.18-1.472c-1.281.001-1.415 1.472-1.415 1.472z" stroke="url(#d)" stroke-width=".75"/><path d="m20.356 27.636v-1.802s-.269-2.088-2.526-2.038c-2.261.052-2.597 1.979-2.614 2.774s0 1.404 0 1.404.043 2.571 2.566 2.571c2.524 0 2.456-1.15 2.474-1.337.034-.371-.201-1.199-.91-.693-.452.324-.725.608-1.416.608-.775 0-1.298-.271-1.28-1.47z" stroke="url(#e)"/><path d="m21.975 22.206v7.731s.119.608.844.608c.724 0 .708-.356.724-.542.018-.186 0-7.798 0-7.798s-.094-.507-.78-.489c-.687.016-.788.49-.788.49z" stroke="url(#f)"/><path d="m25.299 24.574v7.324s.25.593.755.609c.505.018.742-.439.742-.439s.018-1.691 0-1.946c.572 0 1.062.413 1.755.418.588.006 2.138-.637 2.138-3.226 0-2.79-.657-3.52-2.225-3.52-1.415 0-1.259.38-1.702.662-.113-.302-.168-.656-.657-.662-.806-.01-.806.78-.806.78z" stroke="url(#g)"/><path d="m27.146 26.13v1.88s.218 1.099 1.078 1.114c.859.018 1.079-.71 1.095-.972.018-.262.068-2.022.068-2.022s-.135-1.132-1.121-1.132-1.12 1.132-1.12 1.132z" stroke="url(#h)"/><path d="m33.452 23.509s1.563.69 2.159 1.016c.37.203.455.913-.126 1.124-.89.327-2.656.906-2.656.906s-.758.575-.775-1.403c-.017-1.982.631-2.009 1.398-1.643z" stroke="url(#i)"/><path d="m36.031 26.571c.32-.441.995-.086.995.421v2.894s-.235.744-1.552.254c-1.313-.49-1.887-.746-.978-1.827.912-1.083 1.535-1.742 1.535-1.742z" stroke="url(#j)"/><path d="m38.198 26.632s.011.014 0 0c-.328-.502.092-1.025.857-.777l2.505.777s1.096.413-.252 1.867c-1.35 1.456-1.383 1.082-2.009.153-.622-.93-1.101-2.02-1.101-2.02z" stroke="url(#k)"/><path d="m37.953 23.795c-.121.248-.253.948.724.83.979-.117 3.153-.83 3.153-.83s.438-.473-.438-1.571c-.877-1.101-1.215-1.507-1.923-.508-.707.998-1.236 1.501-1.516 2.079z" stroke="url(#l)"/><path d="m35.796 23.052s1.213 1.32 1.23 0c.018-1.319-.27-5.43-.27-5.43s-.033-.762-2.157 0c-2.124.761-1.788.795-.961 2.081.828 1.285 2.158 3.349 2.158 3.349z" stroke="url(#m)"/></g></svg>