<?xml version="1.0" encoding="utf-8"?>
<!-- Generator: Adobe Illustrator 16.0.0, SVG Export Plug-In . SVG Version: 6.00 Build 0)  -->
<!DOCTYPE svg PUBLIC "-//W3C//DTD SVG 1.1//EN" "http://www.w3.org/Graphics/SVG/1.1/DTD/svg11.dtd">
<svg version="1.1" id="Layer_1" xmlns="http://www.w3.org/2000/svg" xmlns:xlink="http://www.w3.org/1999/xlink" x="0px" y="0px"
	 width="50px" height="50px" viewBox="0 0 50 50" enable-background="new 0 0 50 50" xml:space="preserve">
<linearGradient id="SVGID_1_" gradientUnits="userSpaceOnUse" x1="0.2158" y1="24.873" x2="49.7832" y2="24.873">
	<stop  offset="0.0545" style="stop-color:#7E5A43"/>
	<stop  offset="0.523" style="stop-color:#CC9966"/>
	<stop  offset="0.9415" style="stop-color:#7E5A43"/>
</linearGradient>
<ellipse fill="none" stroke="url(#SVGID_1_)" stroke-width="4" stroke-miterlimit="10" cx="25" cy="24.872" rx="22.784" ry="22.866"/>
<linearGradient id="SVGID_2_" gradientUnits="userSpaceOnUse" x1="8.2188" y1="28.0898" x2="14.8857" y2="28.0898">
	<stop  offset="0.0545" style="stop-color:#7E5A43"/>
	<stop  offset="0.523" style="stop-color:#CC9966"/>
	<stop  offset="0.9415" style="stop-color:#7E5A43"/>
</linearGradient>
<path fill="none" stroke="url(#SVGID_2_)" stroke-miterlimit="10" d="M10.032,24.326l1.831,3.429l1.044-3.344
	c0.15-0.384,0.472-0.581,0.961-0.445c0.553,0.153,0.561,0.406,0.482,0.827l-1.948,6.276c0,0-0.539,1.252-1.652,1.185
	c-1.113-0.066-1.247-0.405-1.213-1.014c0.032-0.61,0.606-0.372,1.247-0.51c0.641-0.133,0.438-0.471,0.168-1.048
	c-0.27-0.574-2.158-4.617-2.158-4.617c-0.07-0.281-0.219-0.843,0.287-1.066S9.852,24.084,10.032,24.326z"/>
<linearGradient id="SVGID_3_" gradientUnits="userSpaceOnUse" x1="16.3613" y1="25.834" x2="19.7461" y2="25.834">
	<stop  offset="0.0545" style="stop-color:#7E5A43"/>
	<stop  offset="0.523" style="stop-color:#CC9966"/>
	<stop  offset="0.9415" style="stop-color:#7E5A43"/>
</linearGradient>
<path fill="none" stroke="url(#SVGID_3_)" stroke-width="0.75" stroke-miterlimit="10" d="M16.771,26.57h2.595
	c0,0-0.018-1.472-1.18-1.472C16.905,25.099,16.771,26.57,16.771,26.57z"/>
<linearGradient id="SVGID_4_" gradientUnits="userSpaceOnUse" x1="14.709" y1="27.1699" x2="20.8564" y2="27.1699">
	<stop  offset="0.0545" style="stop-color:#7E5A43"/>
	<stop  offset="0.523" style="stop-color:#CC9966"/>
	<stop  offset="0.9415" style="stop-color:#7E5A43"/>
</linearGradient>
<path fill="none" stroke="url(#SVGID_4_)" stroke-miterlimit="10" d="M20.356,27.636v-1.802c0,0-0.269-2.088-2.526-2.038
	c-2.261,0.052-2.597,1.979-2.614,2.774c-0.017,0.795,0,1.404,0,1.404s0.043,2.571,2.566,2.571c2.524,0,2.456-1.15,2.474-1.337
	c0.034-0.371-0.201-1.199-0.91-0.693c-0.452,0.324-0.725,0.608-1.416,0.608c-0.775,0-1.298-0.271-1.28-1.47L20.356,27.636z"/>
<linearGradient id="SVGID_5_" gradientUnits="userSpaceOnUse" x1="21.4746" y1="26.1309" x2="24.0498" y2="26.1309">
	<stop  offset="0.0545" style="stop-color:#7E5A43"/>
	<stop  offset="0.523" style="stop-color:#CC9966"/>
	<stop  offset="0.9415" style="stop-color:#7E5A43"/>
</linearGradient>
<path fill="none" stroke="url(#SVGID_5_)" stroke-miterlimit="10" d="M21.975,22.206v7.731c0,0,0.119,0.608,0.844,0.608
	c0.724,0,0.708-0.356,0.724-0.542c0.018-0.186,0-7.798,0-7.798s-0.094-0.507-0.78-0.489C22.076,21.732,21.975,22.206,21.975,22.206z
	"/>
<linearGradient id="SVGID_6_" gradientUnits="userSpaceOnUse" x1="24.7988" y1="28.1523" x2="31.1885" y2="28.1523">
	<stop  offset="0.0545" style="stop-color:#7E5A43"/>
	<stop  offset="0.523" style="stop-color:#CC9966"/>
	<stop  offset="0.9415" style="stop-color:#7E5A43"/>
</linearGradient>
<path fill="none" stroke="url(#SVGID_6_)" stroke-miterlimit="10" d="M25.299,24.574v7.324c0,0,0.25,0.593,0.755,0.609
	c0.505,0.018,0.742-0.439,0.742-0.439s0.018-1.691,0-1.946c0.572,0,1.062,0.413,1.755,0.418c0.588,0.006,2.138-0.637,2.138-3.226
	c0-2.79-0.657-3.52-2.225-3.52c-1.415,0-1.259,0.38-1.702,0.662c-0.113-0.302-0.168-0.656-0.657-0.662
	C25.299,23.784,25.299,24.574,25.299,24.574z"/>
<linearGradient id="SVGID_7_" gradientUnits="userSpaceOnUse" x1="26.6455" y1="27.0605" x2="29.8867" y2="27.0605">
	<stop  offset="0.0545" style="stop-color:#7E5A43"/>
	<stop  offset="0.523" style="stop-color:#CC9966"/>
	<stop  offset="0.9415" style="stop-color:#7E5A43"/>
</linearGradient>
<path fill="none" stroke="url(#SVGID_7_)" stroke-miterlimit="10" d="M27.146,26.13v1.88c0,0,0.218,1.099,1.078,1.114
	c0.859,0.018,1.079-0.71,1.095-0.972c0.018-0.262,0.068-2.022,0.068-2.022s-0.135-1.132-1.121-1.132S27.146,26.13,27.146,26.13z"/>
<linearGradient id="SVGID_8_" gradientUnits="userSpaceOnUse" x1="31.5537" y1="24.9805" x2="36.4053" y2="24.9805">
	<stop  offset="0.0545" style="stop-color:#7E5A43"/>
	<stop  offset="0.523" style="stop-color:#CC9966"/>
	<stop  offset="0.9415" style="stop-color:#7E5A43"/>
</linearGradient>
<path fill="none" stroke="url(#SVGID_8_)" stroke-miterlimit="10" d="M33.452,23.509c0,0,1.563,0.69,2.159,1.016
	c0.37,0.203,0.455,0.913-0.126,1.124c-0.89,0.327-2.656,0.906-2.656,0.906s-0.758,0.575-0.775-1.403
	C32.037,23.17,32.685,23.143,33.452,23.509z"/>
<linearGradient id="SVGID_9_" gradientUnits="userSpaceOnUse" x1="33.5547" y1="28.3389" x2="37.5264" y2="28.3389">
	<stop  offset="0.0545" style="stop-color:#7E5A43"/>
	<stop  offset="0.523" style="stop-color:#CC9966"/>
	<stop  offset="0.9415" style="stop-color:#7E5A43"/>
</linearGradient>
<path fill="none" stroke="url(#SVGID_9_)" stroke-miterlimit="10" d="M36.031,26.571c0.32-0.441,0.995-0.086,0.995,0.421v2.894
	c0,0-0.235,0.744-1.552,0.254c-1.313-0.49-1.887-0.746-0.978-1.827C35.408,27.23,36.031,26.571,36.031,26.571z"/>
<linearGradient id="SVGID_10_" gradientUnits="userSpaceOnUse" x1="36.1553" y1="26.5977" x2="42.4805" y2="26.5977">
	<stop  offset="0.0545" style="stop-color:#7E5A43"/>
	<stop  offset="0.523" style="stop-color:#CC9966"/>
	<stop  offset="0.9415" style="stop-color:#7E5A43"/>
</linearGradient>
<path fill="none" stroke="url(#SVGID_10_)" stroke-miterlimit="10" d="M38.198,26.632C38.198,26.632,38.209,26.646,38.198,26.632
	c-0.328-0.502,0.092-1.025,0.857-0.777l2.505,0.777c0,0,1.096,0.413-0.252,1.867c-1.35,1.456-1.383,1.082-2.009,0.153
	C38.677,27.722,38.198,26.632,38.198,26.632z"/>
<linearGradient id="SVGID_11_" gradientUnits="userSpaceOnUse" x1="37.3701" y1="22.8926" x2="42.4395" y2="22.8926">
	<stop  offset="0.0545" style="stop-color:#7E5A43"/>
	<stop  offset="0.523" style="stop-color:#CC9966"/>
	<stop  offset="0.9415" style="stop-color:#7E5A43"/>
</linearGradient>
<path fill="none" stroke="url(#SVGID_11_)" stroke-miterlimit="10" d="M37.953,23.795c-0.121,0.248-0.253,0.948,0.724,0.83
	c0.979-0.117,3.153-0.83,3.153-0.83s0.438-0.473-0.438-1.571c-0.877-1.101-1.215-1.507-1.923-0.508
	C38.762,22.714,38.233,23.217,37.953,23.795z"/>
<linearGradient id="SVGID_12_" gradientUnits="userSpaceOnUse" x1="32.499" y1="20.4609" x2="37.5273" y2="20.4609">
	<stop  offset="0.0545" style="stop-color:#7E5A43"/>
	<stop  offset="0.523" style="stop-color:#CC9966"/>
	<stop  offset="0.9415" style="stop-color:#7E5A43"/>
</linearGradient>
<path fill="none" stroke="url(#SVGID_12_)" stroke-miterlimit="10" d="M35.796,23.052c0,0,1.213,1.32,1.23,0
	c0.018-1.319-0.27-5.43-0.27-5.43s-0.033-0.762-2.157,0c-2.124,0.761-1.788,0.795-0.961,2.081
	C34.466,20.988,35.796,23.052,35.796,23.052z"/>
</svg>
